<svg width="90" height="90" viewBox="0 0 90 90" fill="none" xmlns="http://www.w3.org/2000/svg">
<circle cx="45" cy="45" r="44.5" stroke="black"/>
<path d="M7.33614 50.6012L10.625 48.7024L13.9139 50.6012V54.3988L10.625 56.2976L7.33614 54.3988V50.6012Z" stroke="black"/>
<path d="M14.8361 38.1012L18.125 36.2024L21.4139 38.1012V41.8988L18.125 43.7976L14.8361 41.8988V38.1012Z" stroke="black"/>
<path d="M37.3361 24.9762L40.625 23.0774L43.9139 24.9762V28.7738L40.625 30.6726L37.3361 28.7738V24.9762Z" stroke="black"/>
<path d="M66.7111 24.9762L70 23.0774L73.2889 24.9762V28.7738L70 30.6726L66.7111 28.7738V24.9762Z" stroke="black"/>
<path d="M73.5861 38.1012L76.875 36.2024L80.1639 38.1012V41.8988L76.875 43.7976L73.5861 41.8988V38.1012Z" stroke="black"/>
<path d="M59.2111 63.7262L62.5 61.8274L65.7889 63.7262V67.5238L62.5 69.4226L59.2111 67.5238V63.7262Z" stroke="black"/>
<path d="M20.4223 49.0387L27.5 44.9524L34.5777 49.0387V57.2113L27.5 61.2977L20.4223 57.2113V49.0387Z" stroke="black"/>
<path d="M27.2973 36.5387L34.375 32.4524L41.4527 36.5387V44.7113L34.375 48.7977L27.2973 44.7113V36.5387Z" stroke="black"/>
<path d="M34.7973 49.0387L41.875 44.9524L48.9527 49.0387V57.2113L41.875 61.2977L34.7973 57.2113V49.0387Z" stroke="black"/>
<path d="M27.9223 61.5387L35 57.4524L42.0777 61.5387V69.7113L35 73.7977L27.9223 69.7113V61.5387Z" stroke="black"/>
<path d="M41.6723 36.5387L48.75 32.4524L55.8277 36.5387V44.7113L48.75 48.7977L41.6723 44.7113V36.5387Z" stroke="black"/>
<path d="M49.1723 24.0387L56.25 19.9524L63.3277 24.0387V32.2113L56.25 36.2977L49.1723 32.2113V24.0387Z" stroke="black"/>
<path d="M49.1723 49.0387L56.25 44.9524L63.3277 49.0387V57.2113L56.25 61.2977L49.1723 57.2113V49.0387Z" stroke="black"/>
<path d="M42.2973 61.5493L49.3647 57.7603L56.3776 61.8512L56.4501 69.7129L49.375 73.7977L42.2973 69.7113V61.5493Z" stroke="black"/>
<path d="M56.0473 36.5387L63.125 32.4524L70.2027 36.5387V44.7113L63.125 48.7977L56.0473 44.7113V36.5387Z" stroke="black"/>
<path d="M63.5473 49.0387L70.625 44.9524L77.7027 49.0387V57.2113L70.625 61.2977L63.5473 57.2113V49.0387Z" stroke="black"/>
</svg>
