<svg width="688" height="538" viewBox="0 0 688 538" fill="none" xmlns="http://www.w3.org/2000/svg">
<rect x="-44.1575" y="0.732834" width="790.549" height="536.774" fill="#0E0E0E"/>
<path opacity="0.3" d="M70.4262 58.4091C70.2076 55.0727 69.3385 49.7254 66.5927 48.7521C66.0343 48.5541 65.4297 48.3593 65.1218 47.8532C64.1153 46.199 64.2662 43.9804 70.7434 44.4557C78.2678 45.008 79.081 53.0381 78.1164 57.6401" stroke="white" stroke-width="0.695865"/>
<path opacity="0.3" d="M75.8091 139.156C75.582 142.307 75.0198 147.043 72.0552 147.584C71.6892 147.651 71.3205 147.778 71.0925 148.072C69.9147 149.589 69.7112 151.856 76.5405 151.401C84.065 150.899 84.464 144.108 83.4993 139.925" stroke="white" stroke-width="0.695865"/>
<g opacity="0.3">
<path d="M504.012 46.2725C506.319 47.0415 507.857 52.4247 508.627 55.5007L512.472 52.4247L510.125 45.3852C509.666 44.0073 508.59 42.8852 507.173 42.5656C500.468 41.0529 502.02 45.6082 504.012 46.2725Z" stroke="white" stroke-width="1.53803"/>
<path d="M502.647 152.397C504.954 151.628 504.532 150.691 505.301 147.615L509.915 149.153L508.716 153.173C508.286 154.615 507.189 155.8 505.72 156.123C499.116 157.577 500.662 153.058 502.647 152.397Z" stroke="white" stroke-width="1.53803"/>
<path d="M375.587 147.014H417.883H504.782L509.396 149.321L556.306 147.014C568.61 147.014 575.275 133.171 577.069 126.25V76.2642C576.454 65.1903 562.97 56.2697 556.306 53.1937H512.472L508.627 56.2697H424.035H416.864L378.663 53.1937C363.898 56.8849 356.618 70.112 354.823 76.2642C354.054 88.5684 352.978 115.792 354.823 126.25C356.669 136.709 369.435 144.45 375.587 147.014Z" stroke="white" stroke-width="1.53803"/>
<path d="M556.825 142.232L561.951 140.775L570.74 133.489L572.205 128.39H566.346L556.825 136.404V142.232Z" stroke="#757575" stroke-width="1.53803"/>
<path d="M563.416 73.7489L568.543 75.206V68.6491L561.951 60.6352L556.825 59.1781V65.0064L563.416 73.7489Z" stroke="#757575" stroke-width="1.53803"/>
<path d="M377.894 63.9599L376.356 56.2697C367.743 58.1154 360.976 67.805 358.668 72.4191L366.359 73.9571L377.894 63.9599Z" stroke="#757575" stroke-width="1.53803"/>
<path d="M417.113 67.036C410.961 93.4901 414.3 123.263 416.863 134.542L380.2 133.94C365.435 111.178 374.048 79.8529 380.2 67.036H417.113Z" stroke="#757575" stroke-width="1.53803"/>
<path d="M375.586 138.555L374.817 143.938C370.511 143.938 362.769 135.735 359.437 131.633L369.434 129.326L375.586 138.555Z" stroke="#757575" stroke-width="1.53803"/>
<path d="M490.939 66.2669C499.552 76.7256 496.066 118.304 493.246 137.785L514.778 143.169C532.004 146.245 540.412 131.633 542.463 123.943C543.745 112.664 545.078 86.7228 540.156 73.1881C535.234 59.6534 519.649 59.8585 512.471 61.6528L490.939 66.2669Z" stroke="#757575" stroke-width="1.53803"/>
<path d="M416.095 134.542L409.942 146.846H504.531L493.765 137.618L416.095 134.542Z" stroke="white" stroke-width="1.53803"/>
<path d="M406.097 55.333L423.266 56.2697L509.145 56.102L491.458 66.0992L416.863 66.8683L406.097 55.333Z" stroke="white" stroke-width="1.53803"/>
</g>
<g opacity="0.3">
<path d="M666.779 379.105C668.905 379.813 670.322 384.773 671.03 387.607L674.573 384.773L672.411 378.287C671.988 377.018 670.996 375.984 669.691 375.69C663.514 374.296 664.943 378.493 666.779 379.105Z" stroke="white" stroke-width="1.41701"/>
<path d="M665.52 476.879C667.646 476.17 667.257 475.307 667.965 472.473L672.216 473.89L671.112 477.594C670.716 478.922 669.706 480.014 668.352 480.312C662.267 481.651 663.692 477.488 665.52 476.879Z" stroke="white" stroke-width="1.41701"/>
<path d="M548.459 471.919H587.426H667.488L671.739 474.045L714.958 471.919C726.294 471.919 732.434 459.166 734.087 452.789V406.737C733.52 396.534 721.098 388.315 714.958 385.481H674.573L671.03 388.315H593.095H586.488L551.293 385.481C537.689 388.882 530.982 401.069 529.329 406.737C528.621 418.073 527.629 443.154 529.329 452.789C531.029 462.425 542.791 469.557 548.459 471.919Z" stroke="white" stroke-width="1.41701"/>
<path d="M550.584 395.4L549.167 388.315C541.232 390.016 534.997 398.943 532.872 403.194L539.957 404.611L550.584 395.4Z" stroke="#757575" stroke-width="1.41701"/>
<path d="M586.718 398.234C581.05 422.607 584.126 450.037 586.487 460.428L552.709 459.874C539.106 438.903 547.041 410.043 552.709 398.234H586.718Z" stroke="#757575" stroke-width="1.41701"/>
<path d="M548.459 464.125L547.75 469.085C543.783 469.085 536.65 461.528 533.58 457.749L542.791 455.623L548.459 464.125Z" stroke="#757575" stroke-width="1.41701"/>
<path d="M654.734 397.526C662.67 407.162 659.458 445.468 656.86 463.417L676.698 468.377C692.569 471.211 700.315 457.749 702.204 450.664C703.385 440.272 704.613 416.372 700.079 403.903C695.544 391.433 681.185 391.622 674.573 393.275L654.734 397.526Z" stroke="#757575" stroke-width="1.41701"/>
<path d="M585.779 460.428L580.111 471.765H667.258L657.338 463.262L585.779 460.428Z" stroke="white" stroke-width="1.41701"/>
<path d="M576.569 387.452L592.386 388.315L671.509 388.161L655.213 397.371L586.488 398.08L576.569 387.452Z" stroke="white" stroke-width="1.41701"/>
</g>
<g opacity="0.3">
<path d="M101.567 54.564C72.1996 63.2014 13.1449 57.2419 -17.8377 52.4499C-21.7429 51.8458 -25.7949 52.0891 -29.3432 53.8286C-58.4393 68.0925 -59.994 103.247 -56.8508 119.93C-52.7494 131.466 -39.471 152.383 -19.169 143.77C-0.220634 135.731 51.0162 136.892 79.022 138.75C82.7255 138.996 86.2616 140.304 89.7955 141.439C101.344 145.148 120.603 144.646 130.02 143.77C171.24 132.081 166.164 92.7585 158.474 74.5584C152.578 64.0485 132.942 45.3358 101.567 54.564Z" stroke="white" stroke-width="1.53803"/>
<path d="M-42.2395 79.1725L-26.0902 92.2458H21.5889L2.37486 77.3704C-0.666431 75.0159 -4.21204 73.3391 -8.02949 72.8696C-26.7951 70.5615 -38.5075 75.907 -42.2395 79.1725Z" stroke="#757575" stroke-width="1.53803"/>
<path d="M-41.4705 121.468L-25.3211 108.395H22.3579L3.14391 123.271C0.102612 125.625 -3.443 127.302 -7.26045 127.771C-26.0261 130.079 -37.7384 124.734 -41.4705 121.468Z" stroke="#757575" stroke-width="1.53803"/>
<path d="M67.7296 113.009C61.5774 121.622 41.0703 121.725 31.5858 120.699C26.0489 125.621 53.3746 127.364 67.7296 127.621C95.1331 131.535 106.819 123.461 110.066 117.723C110.655 116.682 111.071 115.539 111.563 114.449C120.86 93.8505 113.369 78.8983 106.136 71.6027C103.806 69.2533 100.779 67.7591 97.5244 67.1636C90.8459 65.9417 78.4584 65.0264 60.0394 66.8683C35.4309 69.3291 30.8168 73.0204 31.5858 74.5584C56.8095 70.8671 68.2422 81.2232 70.8056 86.8627C72.3437 91.9895 73.8817 104.396 67.7296 113.009Z" stroke="#757575" stroke-width="1.53803"/>
</g>
<path d="M-7.24463 192.987H737.163" stroke="white" stroke-width="3.07607" stroke-dasharray="29.22 29.22"/>
<path d="M-7.24463 331.41H732.549" stroke="white" stroke-width="3.07607" stroke-dasharray="29.22 29.22"/>
<g opacity="0.3">
<path d="M362.601 373.161C363.734 373.728 365.907 376.704 366.852 378.121H372.52C371.102 371.036 368.977 368.91 364.726 368.91C360.475 368.91 361.183 372.453 362.601 373.161Z" stroke="white" stroke-width="1.41701"/>
<path d="M362.989 473.769C364.122 473.202 366.295 470.227 367.24 468.81H372.908C371.491 475.895 369.365 478.02 365.114 478.02C360.863 478.02 361.572 474.478 362.989 473.769Z" stroke="white" stroke-width="1.41701"/>
<path d="M118.874 368.202V478.729C118.874 479.511 119.508 480.146 120.291 480.146H333.551C334.334 480.146 334.968 479.511 334.968 478.729V368.202C334.968 367.419 334.334 366.785 333.551 366.785H120.291C119.508 366.785 118.874 367.419 118.874 368.202Z" stroke="white" stroke-width="1.41701"/>
<path d="M401.568 468.81C376.628 466.542 346.777 469.754 334.968 471.644V374.578C344.604 379.68 381.966 378.593 399.442 377.412C413.612 379.113 419.989 392.291 421.406 398.667C422.587 412.365 423.815 442.737 419.28 454.639C414.746 466.542 405.583 469.046 401.568 468.81Z" stroke="white" stroke-width="1.41701"/>
<path d="M403.693 459.287V465.976L408.228 464.638L415.029 457.281V451.261L410.495 452.599L403.693 459.287Z" stroke="#757575" stroke-width="1.41701"/>
<path d="M410.495 395.08H415.029L413.896 389.729L407.094 382.372H403.693V387.722L410.495 395.08Z" stroke="#757575" stroke-width="1.41701"/>
<path d="M349.847 458.327C359.017 426.86 353.668 398.648 349.847 387.797L376.354 382.372C388.39 382.372 396.175 392.318 398.564 397.292C401.429 402.943 406.158 419.536 402.146 440.695C398.134 461.854 382.325 465.335 374.922 464.431L349.847 458.327Z" stroke="#757575" stroke-width="1.41701"/>
</g>
<rect x="208.58" y="193.487" width="303.531" height="137.423" fill="url(#paint0_radial_1406_427)" fill-opacity="0.14" stroke="#FFAC05" stroke-dasharray="6 6"/>
<rect x="322.663" y="278.348" width="7.69017" height="9.2282" stroke="white" stroke-width="1.53803"/>
<rect x="322.663" y="233.745" width="7.69017" height="9.2282" stroke="white" stroke-width="1.53803"/>
<path d="M357.269 287.576H369.573V233.745H357.269" stroke="white" stroke-width="1.53803"/>
<path d="M380.339 283.731H405.717V239.897H379.29" stroke="white" stroke-width="1.53803"/>
<rect x="388.03" y="231.438" width="13.8423" height="6.15213" rx="1.53803" fill="white"/>
<rect x="388.03" y="285.269" width="13.8423" height="6.15213" rx="1.53803" fill="white"/>
<path d="M393.413 236.821H396.489V245.694L393.413 244.498V236.821Z" stroke="white" stroke-width="1.53803"/>
<path d="M393.413 286.038V278.757L396.489 277.521V286.038H393.413Z" stroke="white" stroke-width="1.53803"/>
<rect x="300.362" y="289.883" width="13.8423" height="6.15213" rx="1.53803" fill="white"/>
<rect x="300.362" y="228.362" width="13.8423" height="6.15213" rx="1.53803" fill="white"/>
<rect x="305.361" y="233.36" width="3.84508" height="3.84508" stroke="white" stroke-width="0.769017"/>
<rect x="305.361" y="287.192" width="3.84508" height="3.84508" stroke="white" stroke-width="0.769017"/>
<path d="M409.562 251.432L414.946 244.511V229.9M409.562 272.196L414.946 278.348V291.421" stroke="white" stroke-width="1.07662"/>
<path d="M331.123 232.976V288.345H356.57L371.111 260.66L356.57 232.976H331.123Z" stroke="white" stroke-width="1.53803"/>
<path d="M297.286 283.731V240.666C297.286 238.967 298.663 237.59 300.362 237.59H321.894V286.807H300.362C298.663 286.807 297.286 285.43 297.286 283.731Z" stroke="white" stroke-width="1.53803" stroke-linecap="round"/>
<path d="M372.65 237.59V286.807L409.562 272.196V250.663L372.65 237.59Z" stroke="white" stroke-width="1.53803" stroke-linecap="round"/>
<rect x="336.506" y="239.897" width="4.6141" height="43.0649" stroke="white" stroke-width="1.53803"/>
<defs>
<radialGradient id="paint0_radial_1406_427" cx="0" cy="0" r="1" gradientUnits="userSpaceOnUse" gradientTransform="translate(360.345 262.198) rotate(90) scale(91.513 201.329)">
<stop stop-color="#FFAA00"/>
<stop offset="1" stop-color="#FFAA00" stop-opacity="0"/>
</radialGradient>
</defs>
</svg>
