<svg width="724" height="566" viewBox="0 0 724 566" fill="none" xmlns="http://www.w3.org/2000/svg">
<path opacity="0.3" d="M74.1114 61.5408C73.8814 58.0298 72.9668 52.4028 70.0773 51.3785C69.4897 51.1702 68.8535 50.9652 68.5294 50.4325C67.4703 48.6918 67.6291 46.3571 74.4452 46.8573C82.3633 47.4385 83.2191 55.8888 82.2039 60.7315" stroke="white" stroke-width="0.732277"/>
<path opacity="0.3" d="M79.7759 146.512C79.5369 149.829 78.9452 154.812 75.8255 155.382C75.4404 155.452 75.0524 155.586 74.8124 155.895C73.573 157.492 73.3589 159.877 80.5455 159.398C88.4637 158.87 88.8836 151.724 87.8684 147.322" stroke="white" stroke-width="0.732277"/>
<g opacity="0.3">
<path d="M530.385 48.7692C532.813 49.5784 534.431 55.2432 535.241 58.4802L539.287 55.2432L536.818 47.8353C536.334 46.3855 535.202 45.2046 533.711 44.8683C526.655 43.2764 528.288 48.0701 530.385 48.7692Z" stroke="white" stroke-width="1.61851"/>
<path d="M528.947 160.447C531.375 159.637 530.931 158.652 531.74 155.415L536.596 157.033L535.334 161.264C534.882 162.781 533.728 164.028 532.182 164.368C525.232 165.898 526.859 161.143 528.947 160.447Z" stroke="white" stroke-width="1.61851"/>
<path d="M395.239 154.781H439.748H531.194L536.05 157.209L585.414 154.781C598.363 154.781 605.376 140.215 607.264 132.932V80.3299C606.617 68.6766 592.428 59.2893 585.414 56.0522H539.287L535.241 59.2893H446.222H438.676L398.476 56.0522C382.939 59.9367 375.278 73.8559 373.389 80.3299C372.58 93.278 371.447 121.926 373.389 132.932C375.332 143.937 388.765 152.084 395.239 154.781Z" stroke="white" stroke-width="1.61851"/>
<path d="M585.96 149.75L591.355 148.216L600.604 140.55L602.146 135.183H595.98L585.96 143.616V149.75Z" stroke="#757575" stroke-width="1.61851"/>
<path d="M592.897 77.6834L598.292 79.2167V72.3167L591.355 63.8834L585.96 62.3501V68.4834L592.897 77.6834Z" stroke="#757575" stroke-width="1.61851"/>
<path d="M397.667 67.3821L396.048 59.2896C386.985 61.2318 379.863 71.4284 377.436 76.2839L385.528 77.9024L397.667 67.3821Z" stroke="#757575" stroke-width="1.61851"/>
<path d="M438.938 70.6191C432.464 98.4575 435.978 129.788 438.675 141.657L400.094 141.024C384.556 117.07 393.62 84.1067 400.094 70.6191H438.938Z" stroke="#757575" stroke-width="1.61851"/>
<path d="M395.239 145.88L394.43 151.545C389.898 151.545 381.751 142.913 378.245 138.597L388.765 136.169L395.239 145.88Z" stroke="#757575" stroke-width="1.61851"/>
<path d="M516.628 69.81C525.691 80.8159 522.023 124.57 519.055 145.071L541.715 150.736C559.842 153.973 568.69 138.597 570.848 130.504C572.197 118.635 573.599 91.3362 568.42 77.0933C563.241 62.8504 546.84 63.0662 539.287 64.9545L516.628 69.81Z" stroke="#757575" stroke-width="1.61851"/>
<path d="M437.867 141.657L431.393 154.605H530.931L519.601 144.894L437.867 141.657Z" stroke="white" stroke-width="1.61851"/>
<path d="M427.346 58.3037L445.413 59.2894L535.786 59.113L517.173 69.6333L438.676 70.4425L427.346 58.3037Z" stroke="white" stroke-width="1.61851"/>
</g>
<g opacity="0.3">
<path d="M701.669 399.017C703.905 399.763 705.397 404.982 706.142 407.964L709.87 404.982L707.595 398.157C707.15 396.821 706.107 395.733 704.733 395.424C698.232 393.957 699.737 398.373 701.669 399.017Z" stroke="white" stroke-width="1.49116"/>
<path d="M700.344 501.907C702.581 501.162 702.171 500.254 702.917 497.271L707.391 498.762L706.228 502.66C705.811 504.058 704.748 505.207 703.324 505.52C696.921 506.93 698.42 502.549 700.344 501.907Z" stroke="white" stroke-width="1.49116"/>
<path d="M577.157 496.688H618.164H702.414L706.888 498.925L752.368 496.688C764.297 496.688 770.759 483.268 772.499 476.558V428.095C771.902 417.359 758.83 408.71 752.368 405.728H709.87L706.142 408.71H624.129H617.176L580.14 405.728C565.824 409.306 558.766 422.13 557.027 428.095C556.281 440.024 555.237 466.418 557.027 476.558C558.816 486.697 571.193 494.203 577.157 496.688Z" stroke="white" stroke-width="1.49116"/>
<path d="M579.394 416.166L577.903 408.71C569.552 410.499 562.991 419.894 560.754 424.367L568.21 425.858L579.394 416.166Z" stroke="#757575" stroke-width="1.49116"/>
<path d="M617.418 419.148C611.453 444.796 614.69 473.661 617.176 484.596L581.63 484.013C567.315 461.944 575.666 431.574 581.63 419.148H617.418Z" stroke="#757575" stroke-width="1.49116"/>
<path d="M577.157 488.487L576.412 493.706C572.237 493.706 564.731 485.753 561.5 481.777L571.193 479.54L577.157 488.487Z" stroke="#757575" stroke-width="1.49116"/>
<path d="M688.994 418.403C697.344 428.542 693.964 468.853 691.23 487.741L712.107 492.96C728.808 495.943 736.959 481.777 738.947 474.321C740.19 463.386 741.482 438.235 736.711 425.113C731.939 411.991 716.829 412.189 709.87 413.929L688.994 418.403Z" stroke="#757575" stroke-width="1.49116"/>
<path d="M616.43 484.597L610.466 496.526H702.172L691.734 487.579L616.43 484.597Z" stroke="white" stroke-width="1.49116"/>
<path d="M606.738 407.802L623.383 408.71L706.646 408.547L689.497 418.24L617.176 418.985L606.738 407.802Z" stroke="white" stroke-width="1.49116"/>
</g>
<g opacity="0.3">
<path d="M106.881 57.4943C75.9774 66.5837 13.8327 60.3124 -18.771 55.2696C-22.8807 54.634 -27.1446 54.89 -30.8786 56.7205C-61.4972 71.7307 -63.1332 108.725 -59.8256 126.281C-55.5096 138.42 -41.5364 160.432 -20.1721 151.368C-0.232204 142.909 53.6856 144.131 83.1568 146.086C87.0541 146.344 90.7753 147.721 94.494 148.915C106.647 152.818 126.914 152.29 136.824 151.368C180.2 139.067 174.859 97.6874 166.766 78.535C160.562 67.4752 139.899 47.7833 106.881 57.4943Z" stroke="white" stroke-width="1.61851"/>
<path d="M-44.4497 83.3905L-27.4553 97.1478H22.7185L2.49913 81.4941C-0.701302 79.0164 -4.43244 77.2519 -8.44965 76.7578C-28.1972 74.3289 -40.5224 79.9541 -44.4497 83.3905Z" stroke="#757575" stroke-width="1.61851"/>
<path d="M-43.6404 127.9L-26.646 114.142H23.5279L3.30846 129.796C0.108025 132.274 -3.62312 134.038 -7.64032 134.532C-27.3879 136.961 -39.7131 131.336 -43.6404 127.9Z" stroke="#757575" stroke-width="1.61851"/>
<path d="M71.2735 118.998C64.7994 128.061 43.2193 128.169 33.2385 127.09C27.4118 132.269 56.1674 134.104 71.2735 134.374C100.111 138.493 112.408 129.996 115.825 123.958C116.445 122.862 116.883 121.66 117.401 120.513C127.184 98.8365 119.301 83.1019 111.689 75.4245C109.238 72.9522 106.052 71.3798 102.627 70.7532C95.5994 69.4673 82.5637 68.5041 63.1809 70.4424C37.2847 73.032 32.4292 76.9164 33.2385 78.5349C59.7821 74.6505 71.813 85.5484 74.5105 91.483C76.129 96.878 77.7475 109.934 71.2735 118.998Z" stroke="#757575" stroke-width="1.61851"/>
</g>
<path d="M-7.62378 203.161H775.736" stroke="white" stroke-width="3.23702" stroke-dasharray="30.75 30.75"/>
<path d="M-7.62378 348.827H770.88" stroke="white" stroke-width="3.23702" stroke-dasharray="30.75 30.75"/>
<g opacity="0.3">
<path d="M381.573 392.763C382.766 393.359 385.053 396.49 386.047 397.982H392.011C390.52 390.526 388.284 388.289 383.81 388.289C379.337 388.289 380.082 392.017 381.573 392.763Z" stroke="white" stroke-width="1.49116"/>
<path d="M381.982 498.635C383.175 498.038 385.461 494.907 386.456 493.416H392.42C390.929 500.872 388.692 503.108 384.219 503.108C379.745 503.108 380.491 499.381 381.982 498.635Z" stroke="white" stroke-width="1.49116"/>
<path d="M125.094 387.543V503.854C125.094 504.677 125.762 505.345 126.585 505.345H351.004C351.828 505.345 352.495 504.677 352.495 503.854V387.543C352.495 386.72 351.828 386.052 351.004 386.052H126.585C125.762 386.052 125.094 386.72 125.094 387.543Z" stroke="white" stroke-width="1.49116"/>
<path d="M422.58 493.416C396.336 491.03 364.922 494.41 352.496 496.398V394.254C362.636 399.622 401.952 398.479 420.343 397.236C435.255 399.026 441.965 412.893 443.456 419.604C444.699 434.018 445.991 465.979 441.22 478.504C436.448 491.03 426.805 493.664 422.58 493.416Z" stroke="white" stroke-width="1.49116"/>
<path d="M424.817 483.395V490.433L429.588 489.026L436.746 481.284V474.949L431.974 476.357L424.817 483.395Z" stroke="#757575" stroke-width="1.49116"/>
<path d="M431.974 415.828H436.746L435.553 410.197L428.395 402.455H424.817V408.086L431.974 415.828Z" stroke="#757575" stroke-width="1.49116"/>
<path d="M368.153 482.385C377.803 449.271 372.174 419.583 368.153 408.164L396.048 402.455C408.713 402.455 416.906 412.922 419.419 418.156C422.434 424.103 427.41 441.563 423.188 463.83C418.967 486.096 402.33 489.759 394.54 488.808L368.153 482.385Z" stroke="#757575" stroke-width="1.49116"/>
</g>
<rect x="219.494" y="203.687" width="319.413" height="144.614" fill="url(#paint0_radial_420_192)" fill-opacity="0.14" stroke="#FFAC05" stroke-width="1.05233" stroke-dasharray="6.31 6.31"/>
<rect x="339.547" y="292.988" width="8.09256" height="9.71107" stroke="white" stroke-width="1.61851"/>
<rect x="339.547" y="246.051" width="8.09256" height="9.71107" stroke="white" stroke-width="1.61851"/>
<path d="M375.963 302.7H388.911V246.052H375.963" stroke="white" stroke-width="1.61851"/>
<path d="M400.241 298.653H426.947V252.525H399.137" stroke="white" stroke-width="1.61851"/>
<rect x="408.333" y="243.624" width="14.5666" height="6.47405" rx="1.61851" fill="white"/>
<rect x="408.333" y="300.271" width="14.5666" height="6.47405" rx="1.61851" fill="white"/>
<path d="M413.998 249.288H417.235V258.626L413.998 257.367V249.288Z" stroke="white" stroke-width="1.61851"/>
<path d="M413.998 301.081V293.419L417.235 292.118V301.081H413.998Z" stroke="white" stroke-width="1.61851"/>
<rect x="316.078" y="305.127" width="14.5666" height="6.47405" rx="1.61851" fill="white"/>
<rect x="316.078" y="240.387" width="14.5666" height="6.47405" rx="1.61851" fill="white"/>
<rect x="321.338" y="245.647" width="4.04628" height="4.04628" stroke="white" stroke-width="0.809256"/>
<rect x="321.338" y="302.295" width="4.04628" height="4.04628" stroke="white" stroke-width="0.809256"/>
<path d="M430.993 264.665L436.658 257.381V242.005M430.993 286.514L436.658 292.988V306.746" stroke="white" stroke-width="1.13296"/>
<path d="M348.449 245.242V303.509H375.228L390.53 274.375L375.228 245.242H348.449Z" stroke="white" stroke-width="1.61851"/>
<path d="M312.842 298.653V253.335C312.842 251.547 314.291 250.098 316.079 250.098H338.738V301.89H316.079C314.291 301.89 312.842 300.441 312.842 298.653Z" stroke="white" stroke-width="1.61851" stroke-linecap="round"/>
<path d="M392.149 250.098V301.89L430.993 286.514V263.855L392.149 250.098Z" stroke="white" stroke-width="1.61851" stroke-linecap="round"/>
<rect x="354.114" y="252.526" width="4.85554" height="45.3183" stroke="white" stroke-width="1.61851"/>
<defs>
<radialGradient id="paint0_radial_420_192" cx="0" cy="0" r="1" gradientUnits="userSpaceOnUse" gradientTransform="translate(379.2 275.994) rotate(90) scale(96.3014 211.863)">
<stop stop-color="#FFAA00"/>
<stop offset="1" stop-color="#FFAA00" stop-opacity="0"/>
</radialGradient>
</defs>
</svg>
