<svg width="557" height="548" viewBox="0 0 557 548" fill="none" xmlns="http://www.w3.org/2000/svg">
<rect x="0.625668" y="0.625668" width="36.7487" height="546.749" stroke="white" stroke-width="1.25134"/>
<rect x="519.626" y="0.625668" width="36.7487" height="546.749" stroke="white" stroke-width="1.25134"/>
<path d="M242.133 285.074H310.957V332.374C310.957 334.586 309.164 336.379 306.952 336.379H246.139C243.927 336.379 242.133 334.586 242.133 332.374V285.074Z" stroke="white" stroke-width="1.25134"/>
<g opacity="0.79">
<path d="M343.253 407.639L340.937 400.693L347.246 401.449L346.726 409.955L343.253 407.639Z" stroke="white" stroke-width="1.25134"/>
<path d="M358.302 409.955V403.56L363.513 404.577L361.197 412.849L358.302 409.955Z" stroke="white" stroke-width="1.25134"/>
<path d="M374.51 412.849V406.882L379.155 407.705L378.562 412.849H374.51Z" stroke="white" stroke-width="1.25134"/>
<path d="M331.676 400.693L292.187 355.775L282.474 332.39L311.416 287.819L391.296 342.23L395.927 411.112L344.41 400.693H331.676Z" stroke="white" stroke-width="1.25134"/>
</g>
<rect x="316.579" y="120.002" width="6.85244" height="28.8484" transform="rotate(90 316.579 120.002)" stroke="#A9A7A7" stroke-width="1.25134"/>
<mask id="path-7-inside-1_1322_498" fill="white">
<rect x="258.163" y="126.323" width="61.3571" height="19.6806" rx="1.15768"/>
</mask>
<rect x="258.163" y="126.323" width="61.3571" height="19.6806" rx="1.15768" stroke="#A9A7A7" stroke-width="2.50267" mask="url(#path-7-inside-1_1322_498)"/>
<path d="M272.055 115.325C261.25 113.781 238.945 111.62 236.167 115.325C233.389 119.029 240.412 121.113 244.271 121.692C255.269 119.184 277.843 120.419 280.159 145.424" stroke="white" stroke-width="1.15768"/>
<path d="M317.783 112.431C326.273 116.868 340.358 121.345 328.781 103.748C317.205 86.1512 298.489 99.1172 290.578 107.8" stroke="white" stroke-width="1.15768"/>
<path d="M272.791 145.55C272.019 135.71 265.919 119.145 248.322 122.85C230.726 126.554 240.99 113.202 248.322 106.063C258.934 98.9243 279.927 88.9296 279.001 106.063" stroke="white" stroke-width="1.15768"/>
<path d="M289.059 145.55C280.569 143.621 269.971 139.52 280.159 132.111C290.347 124.702 317.425 138.072 330.353 146.176" stroke="white" stroke-width="1.15768"/>
<path d="M299.84 354.386L285.93 356.401L273.213 336.442H286.526L299.84 354.386Z" stroke="white" stroke-width="1.25134"/>
<path d="M285.368 356.123L274.37 337.6L241.508 321.363L225.169 343.388C228.41 346.167 266.653 353.035 285.368 356.123Z" stroke="white" stroke-width="1.25134" stroke-linecap="round"/>
<path d="M324.722 284.925H276.107H254.4H237.754M232.694 255.668V220.674V188.548V176.208M319.52 254.417V220.674V188.548V175.582M249.016 156.423H254.4H276.107H297.813H306.577" stroke="white" stroke-width="1.25134"/>
<path d="M274.043 188.096L264.53 175.582L264.53 166.263V145.425H302.155V154.107L306.786 164.526V183.628L274.043 181.839V188.096Z" stroke="#FFFDFD" stroke-width="1.25134"/>
<path d="M269.74 273.348V203.887H290.578V216.622V273.348H269.74Z" stroke="white" stroke-width="1.25134"/>
<path d="M282.474 169.736V215.464H299.27C300.294 215.464 301.202 214.792 301.464 213.801C305.602 198.153 303.401 180.18 301.419 171.47C301.186 170.443 300.263 169.736 299.21 169.736H282.474Z" stroke="white" stroke-width="1.25134"/>
<path d="M280.159 229.935V261.193" stroke="white" stroke-width="1.15768"/>
<path d="M180.02 345.125V335.284V331.811C180.02 329.033 185.808 320.234 188.702 316.183L189.86 304.027L215.329 268.139L211.856 266.981V209.676L232.788 196.363V219.516L226.906 224.726V249.616L234.431 257.141H246.586L255.269 266.981L250.059 272.191H244.271L237.904 279.716V287.819L231.536 297.081L234.431 301.712L229.221 305.763C228.758 302.522 224.783 300.168 222.854 299.396L216.487 305.763V321.392L208.962 328.917L206.067 327.181L201.437 328.917V337.021L189.86 346.282L180.02 345.125Z" stroke="white" stroke-width="1.25134"/>
<path d="M219.381 214.885L228.063 207.939M221.117 219.516L229.221 213.728" stroke="url(#paint0_linear_1322_498)" stroke-width="1.15768"/>
<path d="M204.331 295.923L227.484 264.666" stroke="url(#paint1_linear_1322_498)" stroke-width="1.15768"/>
<path d="M190.439 309.815V314.446L203.752 315.604L204.331 317.919H205.489L204.331 311.552L190.439 309.815Z" stroke="white" stroke-width="1.25134"/>
<path d="M180.598 342.809V345.125L189.86 346.282V338.179H182.695L180.598 342.809Z" stroke="white" stroke-width="1.25134"/>
<path d="M301.578 271.612H307.366L320.101 275.664L328.203 290.705L324.096 296.962L331.604 301.967L329.36 296.494L335.727 292.442L341.516 297.652L338.486 306.334L346.62 311.978L354.829 317.911L357.723 319.069C356.566 315.981 353.324 309.113 349.62 306.334V294.205L336.308 267.56L339.781 266.402V209.097L319.716 195.604V219.379L324.731 224.147V249.037L317.206 256.562H305.051L296.368 266.402L301.578 271.612Z" stroke="white" stroke-width="1.25134"/>
<path d="M332.255 214.307L323.572 207.361M330.518 218.937L322.415 213.149" stroke="url(#paint2_linear_1322_498)" stroke-width="1.15768"/>
<path d="M338.846 288.465L329.179 269.433" stroke="url(#paint3_linear_1322_498)" stroke-width="1.15768"/>
<path d="M143.904 357.652L190.203 367.037" stroke="white" stroke-width="1.15768"/>
<path d="M175.968 399.536L116.347 387.959L142.395 359.017L185.229 319.656L180.019 331.232V344.546L189.86 346.861L226.327 317.919L241.377 321.971L189.86 367.699L175.968 399.536Z" stroke="white" stroke-width="1.25134"/>
<path d="M116.926 387.38C110.906 390.622 116.347 421.146 119.82 436.003L180.598 446.422L192.754 436.003V414.007L228.642 371.751L225.24 343.262L218.984 342.01L189.86 368.278L175.967 398.957L116.926 387.38Z" stroke="white" stroke-width="1.25134"/>
<path d="M126.187 444.106V410.534L131.976 420.374V439.476L130.239 444.106H126.187Z" stroke="white" stroke-width="1.25134"/>
<path d="M158.602 450.474V416.901L164.391 426.741V445.843L162.654 450.474H158.602Z" stroke="white" stroke-width="1.25134"/>
<path d="M174.81 453.947V420.374L180.598 430.214V449.316L178.862 453.947H174.81Z" stroke="white" stroke-width="1.25134"/>
<path d="M144.71 447.579C141.006 442.023 142.009 422.11 142.974 412.849L148.183 422.11V441.212C147.72 447.232 145.675 447.965 144.71 447.579Z" stroke="white" stroke-width="1.25134"/>
<circle cx="67.1456" cy="173.209" r="22.528" stroke="#92702C" stroke-width="1.25134"/>
<path d="M100.732 164.32L87.2891 165.061C85.9919 167.824 75.2178 167.364 69.9928 166.788C61.7771 165.867 59.3628 171.01 59.1827 173.697C57.8854 181.987 65.8489 182.908 69.9928 182.332L248.901 175.999L249.016 156.187L234 157.001" stroke="#92702C" stroke-width="1.25134"/>
<circle cx="65.9879" cy="174.367" r="3.47305" fill="#D9D9D9"/>
<path d="M105.928 153.528L96.6663 172.051L237.325 167.999C237.325 159.664 226.52 146.003 221.117 140.215L105.928 153.528Z" stroke="#92702C" stroke-width="1.25134"/>
<circle cx="23.1536" cy="23.1536" r="22.528" transform="matrix(-1 0 0 1 508.801 150.055)" stroke="#92702C" stroke-width="1.25134"/>
<path d="M452.358 163.695L466.427 164.482C467.709 167.246 478.351 166.785 483.513 166.209C491.628 165.288 494.013 170.431 494.191 173.118C495.472 181.408 487.606 182.329 483.513 181.753L306.786 175.421V156.422L322.845 157.225" stroke="#92702C" stroke-width="1.25134"/>
<circle cx="3.47305" cy="3.47305" r="3.47305" transform="matrix(-1 0 0 1 490.278 170.894)" fill="#D9D9D9"/>
<path d="M447.132 153.77L456.127 172.63L319.521 168.504C319.521 160.018 330.014 146.109 335.261 140.215L447.132 153.77Z" stroke="#92702C" stroke-width="1.25134"/>
<path d="M343.831 368.278L340.358 364.805L342.095 360.175L296.567 324.492" stroke="#837F7A" stroke-width="4.63073" stroke-linecap="round"/>
<path d="M377.404 398.957L402.873 424.426L412.135 416.322" stroke="#837F7A" stroke-width="4.63073" stroke-linecap="round"/>
<path d="M422.554 420.953H412.134L409.819 415.164L422.554 401.272L435.288 407.061L450.338 409.955L468.282 412.849L473.492 431.372C473.492 433.687 470.019 438.511 468.282 440.633V445.264L443.392 449.895L442.813 451.631H439.919V448.737L437.603 447.001L435.288 434.845L422.554 420.953Z" stroke="white" stroke-width="1.25134"/>
<path d="M468.282 412.849L437.025 407.639L422.554 401.272L414.45 409.955L436.446 418.059L445.476 437.737L473.631 431.481" stroke="white" stroke-width="1.25134"/>
<path d="M452.867 452.461L452.358 448.374L456.112 447.748L455.726 452.012L452.867 452.461Z" stroke="white" stroke-width="1.25134"/>
<path d="M466.384 449.441L464.872 445.871L468 445.246L469.278 448.862L466.384 449.441Z" stroke="white" stroke-width="1.25134"/>
<path d="M369.77 360.78L412.316 412.085L421.396 402.43L402.571 380.585C402.104 380.043 401.262 380.05 400.805 380.6L398.785 383.023L377.904 358.278L369.77 360.78Z" stroke="white" stroke-width="1.25134"/>
<path d="M363.512 355.544L360.039 360.753L365.248 364.805L369.3 360.753L370.458 352.65H379.141L377.983 359.017L383.193 361.911L385.508 359.017L386.087 348.019L324.73 303.448L302.198 309.475L309.101 321.392L311.995 317.34L320.099 323.708L318.362 329.496L342.674 348.019V355.544H353.093L355.408 349.755L363.512 355.544Z" stroke="white" stroke-width="1.25134"/>
<rect x="322.964" y="309.14" width="3.47305" height="1.15768" transform="rotate(-33.7256 322.964 309.14)" fill="url(#paint4_linear_1322_498)"/>
<rect x="331.097" y="315.795" width="3.47305" height="2.28456" transform="rotate(-33.7256 331.097 315.795)" fill="url(#paint5_linear_1322_498)"/>
<rect x="368.143" y="342.422" width="3.47305" height="2.28456" transform="rotate(-33.7256 368.143 342.422)" fill="url(#paint6_linear_1322_498)"/>
<rect x="357.724" y="335.476" width="3.47305" height="2.28456" transform="rotate(-33.7256 357.724 335.476)" fill="url(#paint7_linear_1322_498)"/>
<rect x="349.62" y="329.688" width="3.47305" height="2.28456" transform="rotate(-33.7256 349.62 329.688)" fill="url(#paint8_linear_1322_498)"/>
<rect x="341.516" y="323.899" width="3.47305" height="2.28456" transform="rotate(-33.7256 341.516 323.899)" fill="url(#paint9_linear_1322_498)"/>
<path d="M301.529 323.708C301.529 327.566 298.653 330.607 295.209 330.607C291.764 330.607 288.888 327.566 288.888 323.708C288.888 319.849 291.764 316.808 295.209 316.808C298.653 316.808 301.529 319.849 301.529 323.708Z" stroke="#FFFDFD" stroke-width="1.25134"/>
<ellipse cx="295.208" cy="323.708" rx="1.9846" ry="2.14998" fill="#DCDCDB"/>
<path d="M310.791 315.604C310.791 319.462 307.915 322.503 304.47 322.503C301.026 322.503 298.15 319.462 298.15 315.604C298.15 311.745 301.026 308.704 304.47 308.704C307.915 308.704 310.791 311.745 310.791 315.604Z" stroke="white" stroke-width="1.25134"/>
<ellipse cx="304.47" cy="315.604" rx="1.9846" ry="2.14998" fill="#DCDCDB"/>
<rect x="346.779" y="365.472" width="45.1496" height="6.94609" transform="rotate(43.2731 346.779 365.472)" fill="#DDDDDC"/>
<rect x="272.681" y="106.11" width="9.1678" height="19.5869" stroke="#A9A7A7" stroke-width="1.25134"/>
<rect x="316.579" y="106.11" width="9.1678" height="28.8484" transform="rotate(90 316.579 106.11)" stroke="#A9A7A7" stroke-width="1.25134"/>
<path d="M345.868 128.202C319.52 121.37 308.696 140.809 306.578 151.382C304.865 160.312 304.893 178.914 318.711 181.882L456.229 189.202C462.97 200.182 481.074 219.458 499.564 208.722C518.053 197.986 519.209 177.409 517.476 168.462C516.32 158.499 508.809 138.45 488.008 137.962C467.207 137.474 458.155 150.772 456.229 157.482L447.561 145.892C424.642 142.842 372.216 135.034 345.868 128.202Z" stroke="#FFAC05" stroke-dasharray="6 6"/>
<path d="M40.2561 188.034C61.0378 216.95 85.8604 200.082 95.6739 188.034L233.064 183.293L244.032 171.442L255 159.591C254.538 141.577 236.335 130.358 227.291 127L104.91 140.036L92.2103 153.073C80.6649 141.695 66.2332 141.616 60.4605 142.999C32.2898 152.006 35.2532 176.775 40.2561 188.034Z" stroke="#FFAC05" stroke-dasharray="6 6"/>
<defs>
<linearGradient id="paint0_linear_1322_498" x1="224.301" y1="207.939" x2="224.301" y2="219.516" gradientUnits="userSpaceOnUse">
<stop stop-color="white"/>
<stop offset="1" stop-opacity="0"/>
</linearGradient>
<linearGradient id="paint1_linear_1322_498" x1="215.908" y1="264.666" x2="215.908" y2="295.923" gradientUnits="userSpaceOnUse">
<stop stop-color="white"/>
<stop offset="1" stop-opacity="0"/>
</linearGradient>
<linearGradient id="paint2_linear_1322_498" x1="327.335" y1="207.361" x2="327.335" y2="218.937" gradientUnits="userSpaceOnUse">
<stop stop-color="white"/>
<stop offset="1" stop-opacity="0"/>
</linearGradient>
<linearGradient id="paint3_linear_1322_498" x1="335.928" y1="271.075" x2="332.097" y2="286.823" gradientUnits="userSpaceOnUse">
<stop stop-color="white"/>
<stop offset="1" stop-opacity="0"/>
</linearGradient>
<linearGradient id="paint4_linear_1322_498" x1="324.7" y1="309.14" x2="324.7" y2="310.298" gradientUnits="userSpaceOnUse">
<stop stop-color="#FFF8F8"/>
<stop offset="1" stop-color="#3D3D3D" stop-opacity="0"/>
</linearGradient>
<linearGradient id="paint5_linear_1322_498" x1="332.833" y1="315.795" x2="332.833" y2="318.08" gradientUnits="userSpaceOnUse">
<stop stop-color="#FFF8F8"/>
<stop offset="1" stop-color="#3D3D3D" stop-opacity="0"/>
</linearGradient>
<linearGradient id="paint6_linear_1322_498" x1="369.879" y1="342.422" x2="369.879" y2="344.707" gradientUnits="userSpaceOnUse">
<stop stop-color="#FFF8F8"/>
<stop offset="1" stop-color="#3D3D3D" stop-opacity="0"/>
</linearGradient>
<linearGradient id="paint7_linear_1322_498" x1="359.46" y1="335.476" x2="359.46" y2="337.761" gradientUnits="userSpaceOnUse">
<stop stop-color="#FFF8F8"/>
<stop offset="1" stop-color="#3D3D3D" stop-opacity="0"/>
</linearGradient>
<linearGradient id="paint8_linear_1322_498" x1="351.356" y1="329.688" x2="351.356" y2="331.972" gradientUnits="userSpaceOnUse">
<stop stop-color="#FFF8F8"/>
<stop offset="1" stop-color="#3D3D3D" stop-opacity="0"/>
</linearGradient>
<linearGradient id="paint9_linear_1322_498" x1="343.252" y1="323.899" x2="343.252" y2="326.184" gradientUnits="userSpaceOnUse">
<stop stop-color="#FFF8F8"/>
<stop offset="1" stop-color="#3D3D3D" stop-opacity="0"/>
</linearGradient>
</defs>
</svg>
