<svg width="600" height="600" viewBox="0 0 600 600" fill="none" xmlns="http://www.w3.org/2000/svg">
<path d="M534.466 495.791C536.299 497.228 537.594 498.694 538.319 500.186L537.869 500.404C538.291 501.273 538.5 502.137 538.5 503C538.5 503.863 538.291 504.727 537.869 505.596L538.319 505.814C537.595 507.306 536.299 508.772 534.466 510.209L534.158 509.816C532.831 510.856 531.208 511.886 529.298 512.904L529.533 513.345C527.937 514.195 526.149 515.033 524.177 515.856L523.985 515.395C522.307 516.096 520.495 516.787 518.55 517.468L518.716 517.94C516.958 518.556 515.095 519.163 513.131 519.76L512.985 519.282C511.191 519.828 509.311 520.366 507.348 520.896L507.478 521.379C505.649 521.872 503.749 522.359 501.78 522.838L501.662 522.352C499.815 522.801 497.906 523.244 495.938 523.68L496.046 524.168C494.177 524.583 492.254 524.991 490.279 525.392L490.18 524.902C488.296 525.285 486.366 525.662 484.389 526.033L484.481 526.525C482.604 526.877 480.687 527.224 478.729 527.565L478.643 527.072C476.753 527.402 474.826 527.726 472.862 528.044L472.943 528.538C471.035 528.847 469.094 529.152 467.119 529.451L467.045 528.956C465.131 529.246 463.186 529.531 461.211 529.811L461.281 530.306C459.378 530.575 457.446 530.84 455.487 531.1L455.421 530.605C453.502 530.859 451.556 531.11 449.585 531.355L449.646 531.851C447.718 532.091 445.766 532.327 443.789 532.557L443.731 532.061C441.816 532.284 439.879 532.504 437.92 532.718L437.974 533.215C436.04 533.428 434.084 533.635 432.108 533.839L432.057 533.341C430.13 533.539 428.183 533.733 426.217 533.923L426.265 534.421C424.334 534.607 422.384 534.79 420.417 534.968L420.372 534.47C418.429 534.645 416.469 534.817 414.492 534.984L414.535 535.483C412.606 535.646 410.662 535.805 408.702 535.96L408.662 535.462C406.716 535.616 404.754 535.766 402.777 535.912L402.814 536.411C400.88 536.554 398.932 536.693 396.971 536.828L396.936 536.329C394.991 536.463 393.032 536.593 391.06 536.719L391.092 537.218C389.151 537.342 387.197 537.462 385.23 537.578L385.201 537.079C383.256 537.194 381.299 537.305 379.331 537.412L379.358 537.911C377.411 538.018 375.453 538.12 373.484 538.218L373.459 537.719C371.514 537.816 369.558 537.909 367.592 537.999L367.615 538.499C365.664 538.587 363.704 538.673 361.733 538.754L361.712 538.254C359.767 538.335 357.812 538.411 355.847 538.484L355.866 538.984C353.913 539.056 351.951 539.125 349.98 539.19L349.963 538.69C348.017 538.754 346.061 538.815 344.097 538.871L344.112 539.371C342.158 539.428 340.195 539.48 338.225 539.529L338.213 539.029C336.264 539.078 334.308 539.123 332.344 539.164L332.355 539.664C330.4 539.705 328.438 539.742 326.469 539.776L326.46 539.276C324.51 539.309 322.553 539.339 320.589 539.365L320.596 539.865C318.641 539.89 316.679 539.913 314.711 539.931L314.707 539.431C312.755 539.449 310.796 539.464 308.832 539.475L308.835 539.975C306.88 539.986 304.92 539.994 302.954 539.997L302.953 539.497C301.97 539.499 300.986 539.5 300 539.5C299.014 539.5 298.03 539.499 297.047 539.497L297.047 539.997C295.08 539.994 293.12 539.986 291.165 539.975L291.168 539.475C289.204 539.464 287.245 539.449 285.293 539.431L285.289 539.931C283.321 539.913 281.359 539.89 279.404 539.865L279.411 539.365C277.447 539.339 275.49 539.309 273.54 539.276L273.531 539.776C271.562 539.742 269.6 539.705 267.645 539.664L267.656 539.164C265.692 539.123 263.736 539.078 261.788 539.029L261.775 539.529C259.805 539.48 257.842 539.428 255.888 539.371L255.903 538.871C253.939 538.815 251.983 538.754 250.037 538.69L250.02 539.19C248.049 539.125 246.087 539.056 244.135 538.984L244.153 538.484C242.188 538.411 240.233 538.335 238.288 538.254L238.267 538.754C236.296 538.673 234.336 538.587 232.385 538.499L232.408 537.999C230.442 537.909 228.486 537.816 226.541 537.719L226.516 538.218C224.547 538.12 222.589 538.018 220.642 537.911L220.67 537.412C218.701 537.305 216.744 537.194 214.799 537.079L214.77 537.578C212.803 537.462 210.849 537.342 208.908 537.218L208.94 536.719C206.968 536.593 205.009 536.463 203.064 536.329L203.029 536.828C201.068 536.693 199.12 536.554 197.186 536.411L197.223 535.912C195.246 535.766 193.284 535.616 191.338 535.462L191.298 535.96C189.338 535.805 187.394 535.646 185.465 535.483L185.508 534.984C183.531 534.817 181.571 534.645 179.628 534.47L179.583 534.968C177.616 534.79 175.666 534.607 173.735 534.421L173.783 533.923C171.817 533.733 169.87 533.539 167.943 533.341L167.892 533.839C165.916 533.635 163.96 533.428 162.026 533.215L162.08 532.718C160.121 532.504 158.184 532.284 156.269 532.061L156.211 532.557C154.234 532.327 152.282 532.091 150.354 531.851L150.415 531.355C148.444 531.11 146.498 530.859 144.579 530.605L144.513 531.1C142.554 530.84 140.622 530.575 138.719 530.306L138.789 529.811C136.814 529.531 134.869 529.246 132.955 528.956L132.881 529.451C130.906 529.152 128.965 528.847 127.057 528.538L127.138 528.044C125.174 527.726 123.247 527.402 121.357 527.072L121.271 527.565C119.313 527.224 117.396 526.877 115.519 526.525L115.611 526.033C113.635 525.662 111.704 525.285 109.82 524.902L109.721 525.392C107.746 524.991 105.823 524.583 103.954 524.168L104.062 523.68C102.094 523.244 100.185 522.801 98.3382 522.352L98.22 522.838C96.2508 522.359 94.3508 521.872 92.5222 521.379L92.6525 520.896C90.6892 520.366 88.809 519.828 87.0147 519.282L86.8692 519.76C84.9046 519.163 83.0418 518.556 81.2843 517.94L81.4497 517.468C79.5055 516.787 77.6926 516.096 76.0154 515.395L75.8226 515.856C73.8507 515.033 72.0629 514.195 70.4668 513.345L70.7019 512.904C68.7918 511.886 67.1691 510.856 65.8425 509.816L65.534 510.209C63.7011 508.772 62.4055 507.306 61.681 505.814L62.1307 505.596C61.7089 504.727 61.5 503.863 61.5 503C61.5 502.137 61.7088 501.273 62.1307 500.404L61.6809 500.186C62.4054 498.694 63.701 497.228 65.534 495.791L65.8424 496.184C67.169 495.144 68.7918 494.114 70.7018 493.096L70.4667 492.655C72.0628 491.805 73.8507 490.967 75.8226 490.144L76.0153 490.605C77.6926 489.904 79.5055 489.213 81.4496 488.532L81.2843 488.06C83.0418 487.444 84.9046 486.837 86.8691 486.24L87.0146 486.718C88.809 486.172 90.6892 485.634 92.6525 485.104L92.5221 484.621C94.3507 484.128 96.2507 483.641 98.2199 483.162L98.3381 483.648C100.185 483.199 102.094 482.756 104.062 482.32L103.954 481.832C105.823 481.417 107.746 481.009 109.721 480.608L109.82 481.098C111.704 480.715 113.635 480.338 115.611 479.967L115.519 479.475C117.396 479.123 119.313 478.776 121.271 478.435L121.357 478.928C123.247 478.598 125.174 478.274 127.138 477.956L127.057 477.462C128.965 477.153 130.906 476.848 132.881 476.549L132.955 477.044C134.869 476.754 136.814 476.469 138.789 476.189L138.719 475.694C140.622 475.425 142.554 475.16 144.513 474.9L144.579 475.395C146.498 475.141 148.444 474.89 150.415 474.645L150.354 474.149C152.282 473.909 154.234 473.673 156.211 473.443L156.269 473.939C158.184 473.716 160.121 473.496 162.08 473.282L162.026 472.785C163.96 472.572 165.916 472.365 167.892 472.161L167.943 472.659C169.87 472.461 171.817 472.267 173.783 472.077L173.735 471.579C175.666 471.393 177.616 471.21 179.583 471.032L179.628 471.53C181.571 471.355 183.531 471.183 185.508 471.016L185.465 470.517C187.394 470.354 189.338 470.195 191.298 470.04L191.338 470.538C193.284 470.384 195.246 470.234 197.223 470.088L197.186 469.589C199.12 469.446 201.068 469.307 203.029 469.172L203.064 469.671C205.009 469.537 206.968 469.407 208.94 469.281L208.908 468.782C210.849 468.658 212.803 468.538 214.77 468.422L214.799 468.921C216.744 468.806 218.701 468.695 220.669 468.588L220.642 468.089C222.589 467.982 224.547 467.88 226.516 467.782L226.541 468.281C228.486 468.184 230.442 468.091 232.408 468.001L232.385 467.501C234.336 467.413 236.296 467.327 238.267 467.246L238.288 467.746C240.233 467.665 242.188 467.589 244.153 467.516L244.134 467.016C246.087 466.944 248.049 466.875 250.02 466.81L250.037 467.31C251.983 467.246 253.939 467.185 255.903 467.129L255.888 466.629C257.842 466.572 259.805 466.52 261.775 466.471L261.787 466.971C263.736 466.922 265.692 466.877 267.656 466.836L267.645 466.336C269.6 466.295 271.562 466.258 273.531 466.224L273.54 466.724C275.49 466.691 277.447 466.661 279.411 466.635L279.404 466.135C281.359 466.11 283.321 466.087 285.289 466.069L285.293 466.569C287.245 466.551 289.204 466.536 291.168 466.525L291.165 466.025C293.12 466.014 295.08 466.006 297.046 466.003L297.047 466.503C298.03 466.501 299.014 466.5 300 466.5C300.986 466.5 301.97 466.501 302.953 466.503L302.953 466.003C304.92 466.006 306.88 466.014 308.835 466.025L308.832 466.525C310.796 466.536 312.755 466.551 314.707 466.569L314.711 466.069C316.679 466.087 318.641 466.11 320.596 466.135L320.589 466.635C322.553 466.661 324.51 466.691 326.46 466.724L326.469 466.224C328.438 466.258 330.4 466.295 332.355 466.336L332.344 466.836C334.308 466.877 336.264 466.922 338.212 466.971L338.225 466.471C340.195 466.52 342.158 466.572 344.112 466.629L344.097 467.129C346.061 467.185 348.017 467.246 349.963 467.31L349.98 466.81C351.951 466.875 353.913 466.944 355.866 467.016L355.847 467.516C357.812 467.589 359.767 467.665 361.712 467.746L361.733 467.246C363.704 467.327 365.664 467.413 367.615 467.501L367.592 468.001C369.558 468.091 371.514 468.184 373.459 468.281L373.483 467.782C375.453 467.88 377.411 467.982 379.358 468.089L379.331 468.588C381.299 468.695 383.256 468.806 385.201 468.921L385.23 468.422C387.197 468.538 389.151 468.658 391.092 468.782L391.06 469.281C393.032 469.407 394.991 469.537 396.936 469.671L396.971 469.172C398.932 469.307 400.88 469.446 402.814 469.589L402.777 470.088C404.754 470.234 406.716 470.384 408.662 470.538L408.702 470.04C410.662 470.195 412.606 470.354 414.535 470.517L414.492 471.016C416.469 471.183 418.429 471.355 420.372 471.53L420.417 471.032C422.384 471.21 424.334 471.393 426.265 471.579L426.217 472.077C428.183 472.267 430.13 472.461 432.057 472.659L432.108 472.161C434.084 472.365 436.04 472.572 437.974 472.785L437.92 473.282C439.879 473.496 441.816 473.716 443.731 473.939L443.789 473.443C445.766 473.673 447.718 473.909 449.646 474.149L449.585 474.645C451.556 474.89 453.502 475.141 455.421 475.395L455.487 474.9C457.446 475.16 459.378 475.425 461.281 475.694L461.211 476.189C463.186 476.469 465.131 476.754 467.045 477.044L467.119 476.549C469.094 476.848 471.035 477.153 472.943 477.462L472.862 477.956C474.826 478.274 476.753 478.598 478.643 478.928L478.729 478.435C480.687 478.776 482.604 479.123 484.481 479.475L484.389 479.967C486.365 480.338 488.296 480.715 490.18 481.098L490.279 480.608C492.254 481.009 494.177 481.417 496.046 481.832L495.938 482.32C497.906 482.756 499.815 483.199 501.662 483.648L501.78 483.162C503.749 483.641 505.649 484.128 507.478 484.621L507.347 485.104C509.311 485.634 511.191 486.172 512.985 486.718L513.131 486.24C515.095 486.837 516.958 487.444 518.716 488.06L518.55 488.532C520.494 489.213 522.307 489.904 523.985 490.605L524.177 490.144C526.149 490.967 527.937 491.805 529.533 492.655L529.298 493.096C531.208 494.114 532.831 495.144 534.158 496.184L534.466 495.791Z" fill="url(#paint0_diamond_1406_126)" stroke="#FFAC05" stroke-dasharray="6 6"/>
<path d="M60 27H27V573H60V27Z" stroke="white" stroke-width="0.931422" stroke-miterlimit="10"/>
<path d="M573 27H540V573H573V27Z" stroke="white" stroke-width="0.931422" stroke-miterlimit="10"/>
<path d="M81.7796 250.381C93.1868 250.381 102.434 241.134 102.434 229.727C102.434 218.32 93.1868 209.072 81.7796 209.072C70.3724 209.072 61.125 218.32 61.125 229.727C61.125 241.134 70.3724 250.381 81.7796 250.381Z" stroke="white" stroke-width="1.05843" stroke-miterlimit="10"/>
<path d="M81.7798 235.115C84.7556 235.115 87.1679 232.703 87.1679 229.727C87.1679 226.751 84.7556 224.339 81.7798 224.339C78.804 224.339 76.3916 226.751 76.3916 229.727C76.3916 232.703 78.804 235.115 81.7798 235.115Z" stroke="white" stroke-width="1.05843" stroke-miterlimit="10"/>
<path d="M85.3716 226.135H101.585H271.263V233.319H101.603H85.5007" stroke="white" stroke-width="0.931422" stroke-miterlimit="10"/>
<path d="M115.006 226.135L122.295 209.466L243.827 196.5L257.793 226.135" stroke="white" stroke-width="0.931422" stroke-miterlimit="10"/>
<path d="M518.669 262.056C529.829 262.056 538.875 252.809 538.875 241.402C538.875 229.994 529.829 220.747 518.669 220.747C507.51 220.747 498.464 229.994 498.464 241.402C498.464 252.809 507.51 262.056 518.669 262.056Z" stroke="white" stroke-width="1.05843" stroke-miterlimit="10"/>
<path d="M518.669 246.789C521.893 246.789 524.506 244.377 524.506 241.401C524.506 238.425 521.893 236.013 518.669 236.013C515.445 236.013 512.832 238.425 512.832 241.401C512.832 244.377 515.445 246.789 518.669 246.789Z" stroke="white" stroke-width="1.05843" stroke-miterlimit="10"/>
<path d="M515.527 237.271L499.291 236.497L337.17 228.829L336.819 236.552L498.903 244.219L514.991 244.994H515.009" stroke="white" stroke-width="0.931422" stroke-miterlimit="10"/>
<path d="M343.105 229.574L358.337 200.99L478.5 219.263L484.994 236.013" stroke="white" stroke-width="0.931422" stroke-miterlimit="10"/>
<path d="M231.75 269.888L252.405 255.77V279.854L246.772 283.453L248.113 313.074L232.823 329.408L231.75 269.888Z" stroke="white" stroke-width="1.05843" stroke-miterlimit="10"/>
<path d="M271.263 333.879L270.71 322.366L261.581 318.802L254.942 319.35L226.173 358.003L223.684 356.084L253.836 317.431L250.24 314.142L210.959 361.567L209.299 373.629L225.897 372.532L228.11 392.27L236.408 383.772L235.025 369.243L243.047 360.47L249.963 364.308L250.24 369.791L253.283 367.598V362.389L248.303 356.907L252.729 353.069L254.389 354.988L260.475 347.312L257.155 344.571L264.348 334.976L267.944 335.524L271.263 333.879Z" stroke="white" stroke-width="1.05843" stroke-miterlimit="10"/>
<path d="M222.946 379.005L207.412 378.799L197.137 393.919L196.727 409.878L199.245 409.672V400.004H209.315V411.128H212.447L225.464 393.284L222.946 379.005Z" stroke="white" stroke-width="1.05843" stroke-miterlimit="10"/>
<path d="M192.941 412.599L212.714 414.259L244.713 381.493L262.283 383.78L208.363 434.173L196.393 463.214L135.661 452.851L199.073 384.609L183.027 411.493L192.941 412.599Z" stroke="white" stroke-width="1.05843" stroke-miterlimit="10"/>
<path d="M178.766 509.013L166.194 507.217" stroke="white" stroke-width="1.05843" stroke-miterlimit="10"/>
<path d="M145.332 503.457L135.175 501.816L132.967 455.061L198.377 466.681L210.796 435.972L249.711 399.454L249.159 437.909L212.728 479.684L212.452 503.753L202.241 512.605L199.462 512.163H199.444" stroke="white" stroke-width="1.05843" stroke-miterlimit="10"/>
<path d="M194.931 511.707L183.256 509.911" stroke="white" stroke-width="1.05843" stroke-miterlimit="10"/>
<path d="M162.602 506.319L149.131 504.523" stroke="white" stroke-width="1.05843" stroke-miterlimit="10"/>
<path d="M291.828 275.526H312.572V335.694H291.02L291.828 275.526Z" stroke="white" stroke-width="1.05843" stroke-miterlimit="10"/>
<path d="M301.266 288.997H305.388V322.224H300.972C300.972 322.224 300.677 288.997 301.266 288.997Z" stroke="white" stroke-width="1.05843" stroke-miterlimit="10"/>
<path d="M303.508 242.92H294.157L285.631 225.731V201.888H323.034L330.459 224.067L330.533 243.16L327.984 243.197V226.285H303.783L303.508 242.92Z" stroke="white" stroke-width="1.05843" stroke-miterlimit="10"/>
<path d="M307.184 229.727H325.145V272.554L307.184 272.832V229.727Z" stroke="white" stroke-width="1.05843" stroke-miterlimit="10"/>
<path d="M291.918 272.832V257.566H294.945V261.694H304.49V268.704H294.733V272.832H291.918Z" stroke="white" stroke-width="1.05843" stroke-miterlimit="10"/>
<path d="M299.102 246.79H294.612V252.178H299.102V246.79Z" stroke="white" stroke-width="1.05843" stroke-miterlimit="10"/>
<path d="M309.294 380.327L323.207 370.321L351.437 368.023L412.254 412.645V425.561H407.069V415.35L396.274 416.814V426.395H387.971V419.094L381.126 414.313L371.568 414.72L371.162 421.188L366.789 420.557L366.586 410.977L341.271 391.168L342.507 386.572L335.237 380.327L334.628 383.867L326.731 384.071L324.664 398.043H314.903L308.98 392.113L309.294 380.327Z" stroke="white" stroke-width="0.931422" stroke-miterlimit="10"/>
<path d="M381.72 435.409L433.013 475.786L440.092 466.423L391.319 429.987L381.72 435.409Z" stroke="white" stroke-width="0.931422" stroke-miterlimit="10"/>
<path d="M339.246 392.27L363.335 411.427L363.76 418.312L330.533 392.695L339.246 392.27Z" stroke="white" stroke-width="0.931422" stroke-miterlimit="10"/>
<path d="M327.839 399.739L360.521 424.599L361.964 421.486L330.305 397.658L327.839 399.739Z" stroke="white" stroke-width="0.931422" stroke-miterlimit="10"/>
<path d="M360.168 434.526L362.864 432.681L391.524 457.736L394.644 453.828L418.54 476.435L416.047 478.48L395.069 459.178L391.745 462.465L360.168 434.526Z" stroke="white" stroke-width="0.931422" stroke-miterlimit="10"/>
<path d="M307.184 379.464V389.576L282.04 383.865V378.799C282.04 378.799 307.184 379.23 307.184 379.464Z" stroke="white" stroke-width="0.931422" stroke-miterlimit="10"/>
<path d="M283.835 370.717V375.869H277.035V394.066H272.161V371.421L283.835 370.717Z" stroke="white" stroke-width="0.931422" stroke-miterlimit="10"/>
<path d="M308.156 400.352L326.941 421.006L308.713 420.86L295.51 400.625L308.156 400.352Z" stroke="white" stroke-width="0.931422" stroke-miterlimit="10"/>
<path d="M254.201 412.196L306.909 424.599L333.227 423.644L308.709 396.76L254.623 397.587L254.201 412.196Z" stroke="white" stroke-width="0.931422" stroke-miterlimit="10"/>
<path d="M344.305 256.668V281.362L349.876 286.911V312.438L342.207 320.058V334.634L355.094 347.472L351.12 351.411V358.496H355.447V354.057L361.574 347.952L368.816 355.166V368.762H375.223L382.594 376.105H384.414L383.579 370.982L376.615 363.768V350.727L361.296 330.75L364.917 272.206H360.46L344.305 256.668Z" stroke="white" stroke-width="0.931422" stroke-miterlimit="10"/>
<path d="M317.062 428.321L339.503 426.654L322.271 407.686L329.529 403.944L358.84 425.191L360.706 429.358L354.685 433.526L391.032 467.072L394.154 463.96L405.069 474.888H360.706L317.062 428.321Z" stroke="white" stroke-width="0.931422" stroke-miterlimit="10"/>
<path d="M304.49 348.266H300V352.756H304.49V348.266Z" stroke="white" stroke-width="0.931422" stroke-miterlimit="10"/>
<path d="M296.408 337.49H291.918V342.878H296.408V337.49Z" stroke="white" stroke-width="0.931422" stroke-miterlimit="10"/>
<path d="M312.572 337.49H308.082V342.878H312.572V337.49Z" stroke="white" stroke-width="0.931422" stroke-miterlimit="10"/>
<path d="M337.717 248.585H333.227V253.974H337.717V248.585Z" stroke="white" stroke-width="1.05843" stroke-miterlimit="10"/>
<path d="M306.282 188.418L251.506 166.944L292.726 150.701L309.878 161.162L306.282 188.418Z" stroke="white" stroke-width="1.05843" stroke-miterlimit="10"/>
<path d="M251.506 166.865L309.491 170.181L353.881 170.457" stroke="white" stroke-width="1.05843" stroke-miterlimit="10"/>
<path d="M308.152 160.568L338.365 148.905L355.678 159.26C355.678 159.26 352.048 185.42 352.048 186.238L307.184 188.418" stroke="white" stroke-width="1.05843" stroke-miterlimit="10"/>
<path d="M241.628 234.217L240.73 262.954" stroke="white" stroke-width="1.05843" stroke-miterlimit="10"/>
<path d="M358.372 237.809V269.24" stroke="white" stroke-width="1.05843" stroke-miterlimit="10"/>
<path d="M404.171 431.148L444.208 462.316L448.174 458.415L412.512 429.089L404.171 431.148Z" stroke="white" stroke-width="1.05843" stroke-miterlimit="10"/>
<path d="M150.928 492.118L148.014 515.299L141.947 489.939L147.455 477.582L150.928 492.118Z" stroke="white" stroke-width="1.05843" stroke-miterlimit="10"/>
<path d="M167.092 493.915L164.47 517.096L159.01 491.735L163.949 479.378L167.092 493.915Z" stroke="white" stroke-width="1.05843" stroke-miterlimit="10"/>
<path d="M184.155 498.424L181.514 521.586L176.072 496.244L181.011 483.869L184.155 498.424Z" stroke="white" stroke-width="1.05843" stroke-miterlimit="10"/>
<path d="M200.319 502.015L197.697 525.178L192.237 499.836L197.194 487.46L200.319 502.015Z" stroke="white" stroke-width="1.05843" stroke-miterlimit="10"/>
<path d="M490.381 509.869L491.542 519.79L493.973 508.918L491.778 503.625L490.381 509.869Z" stroke="white" stroke-width="0.465711" stroke-miterlimit="10"/>
<path d="M482.299 510.204L483.46 520.688L485.891 509.218L483.678 503.625L482.299 510.204Z" stroke="white" stroke-width="0.465711" stroke-miterlimit="10"/>
<path d="M475.115 512.552L476.289 522.484L478.707 511.618L476.505 506.319L475.115 512.552Z" stroke="white" stroke-width="0.465711" stroke-miterlimit="10"/>
<path d="M467.931 513.796L469.104 524.28L471.523 512.81L469.321 507.217L467.931 513.796Z" stroke="white" stroke-width="0.465711" stroke-miterlimit="10"/>
<path d="M476.013 517.994L469.727 519.79" stroke="white" stroke-width="1.05843" stroke-miterlimit="10"/>
<path d="M490.381 514.401L484.993 516.197" stroke="white" stroke-width="1.05843" stroke-miterlimit="10"/>
<path d="M468.487 519.593L463.698 520.688L464.534 511.508L461.397 499.62L450.335 487.306L437.398 486.676L452.209 467.704L466.408 476.457L487.289 475.623L498.778 485.211L502.954 498.99L496.272 503.366L496.68 513.177L492.504 514.123" stroke="white" stroke-width="1.05843" stroke-miterlimit="10"/>
<path d="M483.197 516.198L477.809 517.994" stroke="white" stroke-width="1.05843" stroke-miterlimit="10"/>
<path d="M248.336 195.949L261.942 221.712H282.992V198.036H324.653L333.528 222.543H342.806L354.78 200.104L351.883 188.673L305.675 192.219L247.915 169.559L248.336 195.949Z" stroke="white" stroke-width="0.931422" stroke-miterlimit="10"/>
<path d="M384.415 376.105L421.834 407.658L432.908 445.253" stroke="white" stroke-width="1.05843" stroke-miterlimit="10"/>
<defs>
<radialGradient id="paint0_diamond_1406_126" cx="0" cy="0" r="1" gradientUnits="userSpaceOnUse" gradientTransform="translate(287.5 514.732) rotate(91.3088) scale(87.5594 566.253)">
<stop stop-color="#FFAC05" stop-opacity="0.12"/>
<stop offset="1" stop-color="#FFAC05" stop-opacity="0"/>
</radialGradient>
</defs>
</svg>
