<svg width="58" height="91" viewBox="0 0 58 91" fill="none" xmlns="http://www.w3.org/2000/svg">
<path d="M41.5073 22.3143L37.1636 29.0824V46.8611L38.7799 51.4068V59.185C38.7799 60.3008 37.8753 61.2053 36.7595 61.2053H31.7088M41.5073 22.3143V14.9402M41.5073 22.3143H16.8595M16.8595 22.3143L21.2031 29.0824V46.8611L18.7788 51.4068V59.185C18.7788 60.3008 19.6833 61.2053 20.7991 61.2053H26.86M16.8595 22.3143V14.9402M16.8595 14.9402H2.01016C1.45226 14.9402 1 14.4879 1 13.93V9.58633C1 9.02844 1.45226 8.57618 2.01016 8.57618H16.8595M16.8595 14.9402V8.57618M16.8595 8.57618V6.05079C16.8595 3.26131 19.1208 1 21.9102 1H36.4565C39.246 1 41.5073 3.26132 41.5073 6.05079V8.57618M41.5073 8.57618H56.3566C56.9145 8.57618 57.3667 9.02844 57.3667 9.58633V13.93C57.3667 14.4879 56.9145 14.9402 56.3566 14.9402H41.5073M41.5073 8.57618V14.9402M31.7088 61.2053V79.5902L33.9311 82.6207V88.8836C33.9311 89.3299 33.5693 89.6918 33.123 89.6918H25.3448C24.8985 89.6918 24.5367 89.3299 24.5367 88.8836V82.6207L26.86 79.5902V61.2053M31.7088 61.2053H26.86M23.8295 29.0824H34.1331M15.9503 84.4389L4.63656 79.5902M18.7788 79.5902L10.3945 71.2059M39.689 79.5902L48.0733 71.2059M41.5073 84.4389L53.8312 79.5902M31.7088 57.1647H35.2443M15.9503 33.8301V39.992M11.9097 35.1433V38.5778M43.4266 53.4271V59.286M48.0733 54.4373V57.9728" stroke="black"/>
</svg>
