<svg width="546" height="546" viewBox="0 0 546 546" fill="none" xmlns="http://www.w3.org/2000/svg">
<path d="M228.125 300L119 398.46C119 419.905 161.753 447.089 183.13 458L262 327.064L228.125 300Z" stroke="#FFAC05" stroke-dasharray="6 6"/>
<path fill-rule="evenodd" clip-rule="evenodd" d="M545.48 273C545.48 423.487 423.487 545.48 273 545.48C122.513 545.48 0.519805 423.487 0.519805 273C0.519805 122.513 122.513 0.519805 273 0.519805C423.487 0.519805 545.48 122.513 545.48 273ZM546 273C546 423.774 423.774 546 273 546C122.226 546 0 423.774 0 273C0 122.226 122.226 0 273 0C423.774 0 546 122.226 546 273ZM193.861 141.97L193.665 141.797L193.493 141.994L144.936 197.835L144.769 198.027L144.957 198.198L201.337 249.453L201.523 249.622L201.698 249.443L215.186 235.685L214.815 235.321L201.502 248.9L145.495 197.985L193.713 142.533L252.343 194.34L252.608 199.577L241.024 207.231L241 207.247L240.98 207.268L228.189 220.591L208.161 202.399L208.141 202.38L208.117 202.366L195.977 195.353L195.785 195.241L195.645 195.414L186.473 206.744L186.333 206.918L186.483 207.083L197.544 219.222L197.551 219.23L197.559 219.238L226.096 245.621L227.353 250.901L224.522 253.94L224.447 254.021L224.453 254.131L224.981 264.111L224.979 264.127L115.169 272.363L86.3235 274.527V273.27H80.9282V276.506H77.6912V279.743H89.0212V276.506H86.3235V275.048L114.929 272.903V299.625L86.3862 300.997L86.3222 299.069L89.0184 298.979L88.9123 295.788L96.3437 295.518C98.5802 295.437 100.351 293.6 100.351 291.362V283.903C100.351 281.606 98.4895 279.744 96.1929 279.744H74.2963C71.9997 279.744 70.1379 281.606 70.1379 283.903V292.157C70.1379 294.513 72.0929 296.398 74.4472 296.313L77.5897 296.199L77.6946 299.356L80.9299 299.248L81.0374 302.483L86.4297 302.304L86.4035 301.517L115.195 300.133H226.914L226.984 300.185L228.573 301.373L225.082 304.365L224.947 304.48L225.006 304.648L228.735 315.301L210.944 337.015V333.966V333.706H210.684H207.177H207.075L207 333.776L173.819 364.799L173.737 364.876V364.989V369.46L149.273 391.773L148.902 392.112L149.393 392.219L157.979 394.097L167.64 400.364L166.811 401.134L164.772 399.4C164.205 398.917 163.376 398.903 162.792 399.366L158.811 402.527H151.63C151.19 402.527 150.77 402.713 150.474 403.04L136.731 418.22C135.747 419.308 135.856 420.994 136.973 421.944L146.541 430.085C147.656 431.034 149.334 430.875 150.251 429.733L169.669 405.556C170.198 404.898 170.107 403.939 169.464 403.392L167.21 401.474L168.068 400.676L173.692 405.515L179.298 410.339L178.067 411.816L174.82 409.227C174.38 408.876 173.741 408.939 173.378 409.369L153.737 432.648C152.783 433.778 152.963 435.475 154.133 436.38L163.675 443.761C164.771 444.61 166.341 444.448 167.241 443.394L180.687 427.655C181.278 426.963 181.464 426.013 181.178 425.149L179.015 418.624L181.113 415.459C181.411 415.01 181.316 414.408 180.895 414.072L178.473 412.141L179.673 410.701L187.259 418.811L189.939 426.045L190.132 426.567L190.408 426.084L207.328 396.541H212.842H212.982L213.059 396.425L236.259 361.355L236.302 361.29V361.212V354.738V354.54L236.112 354.487L231.623 353.241L249.427 329.591L260.059 324.923L260.165 325.003L260.252 325.068L260.35 325.053L268.856 434.607L268.856 434.608L271.019 463.452H269.763V468.847H273V463.452H271.541L269.395 434.848H296.118L297.49 463.39L295.561 463.454L295.471 460.758L292.28 460.864L292.011 453.432C291.93 451.196 290.093 449.425 287.855 449.425H280.395C278.098 449.425 276.237 451.287 276.237 453.583L276.237 460.754H273V472.084H276.237L276.237 475.48C276.237 476.4 276.536 477.251 277.042 477.94C275.863 477.96 274.681 477.97 273.497 477.97C160.57 477.97 69.0238 386.424 69.0238 273.497C69.0238 160.569 160.57 69.0237 273.497 69.0237C386.424 69.0237 477.97 160.569 477.97 273.497C477.97 380.024 396.508 467.524 292.481 477.101C292.711 476.558 292.828 475.958 292.806 475.329L292.691 472.187L295.848 472.082L295.74 468.846L298.976 468.739L298.796 463.347L298.009 463.373L296.625 434.578L296.625 434.575L292.418 320.355L302.711 318.847L302.798 318.835L302.86 318.772L303.567 318.046L308.004 321.376L308.059 321.418L308.127 321.426L313.824 322.159L343.075 347.748L343.084 347.755L343.093 347.762L356.333 357.477L356.513 357.609L356.671 357.451L366.968 347.133L367.125 346.976L366.994 346.797L358.737 335.467L358.72 335.444L358.7 335.426L338.55 317.365L350.39 303.305L350.409 303.283L350.422 303.258L356.141 292.219L362.627 291.172L419.757 343.466L369.712 397.275L313.163 346.962L325.259 332.289L324.858 331.958L312.603 346.824L312.444 347.018L312.63 347.184L369.557 397.832L369.747 398.001L369.92 397.815L420.316 343.628L420.495 343.437L420.302 343.26L363.281 291.066L431.651 280.027L460.485 277.864V279.121H465.88V275.884H469.117V272.647H457.787V275.884H460.485V277.343L431.88 279.489V252.766L460.423 251.394L460.487 253.322L457.791 253.412L457.897 256.603L450.465 256.872C448.228 256.954 446.457 258.79 446.457 261.028V268.488C446.457 270.785 448.319 272.646 450.616 272.646H472.512C474.809 272.646 476.671 270.785 476.671 268.488V260.233C476.671 257.878 474.715 255.992 472.361 256.078L469.219 256.192L469.114 253.035L465.879 253.143L465.771 249.908L460.379 250.087L460.405 250.874L431.608 252.259L431.605 252.259L323.19 258.711L314.961 257.118L312.645 254.03V249.791H316.431H316.691V249.531V247.115L323.155 247.632L323.41 247.652L323.434 247.398L323.955 241.928L326.729 241.424L326.636 240.913L323.669 241.452L323.475 241.487L323.456 241.683L322.941 247.093L316.691 246.593V244.136V244.022L316.608 243.945L302.85 231.266L302.775 231.197H302.674H298.088H297.904L297.842 231.37L296.285 235.783H293.222V233.615V233.355H292.962H289.185H288.926V233.615V235.783H286.171L284.856 227.37L284.827 227.184L284.64 227.154L284.57 227.143L276.25 118.013L276.25 118.012L274.086 89.167H275.343V83.7717H272.106V89.167H273.565L275.711 117.772H248.988L247.616 89.2295L249.545 89.1654L249.634 91.8618L252.825 91.7558L253.095 99.1877C253.176 101.424 255.013 103.195 257.251 103.195H264.711C267.007 103.195 268.869 101.334 268.869 99.0369V91.8647H272.106V80.5347H268.869V77.1403C268.869 74.8437 267.007 72.9819 264.711 72.9819H256.456C254.1 72.9819 252.215 74.9369 252.3 77.2912L252.414 80.4331L249.258 80.538L249.365 83.7731L246.13 83.8807L246.309 89.2729L247.096 89.2468L248.481 118.045L248.481 118.045L252.307 193.614L193.861 141.97ZM252.851 194.095L252.307 193.614L252.343 194.34L252.888 194.821L253.112 199.244L252.608 199.577L252.639 200.18L241.335 207.649L228.574 220.941L228.189 220.591L228.031 220.756L228.406 221.116L228.574 220.941L240.459 231.736H244.944H245.034L245.105 231.792L245.134 231.815L244.723 232.256H240.358H240.258L240.183 232.188L208.422 203.338L208.456 203.297L208.056 202.965L208.037 202.988L207.833 202.803L195.91 195.914L187.018 206.898L196.318 217.105L196.187 217.263L196.587 217.595L196.671 217.493L197.92 218.864L226.507 245.293L226.565 245.347L226.583 245.424L227.779 250.444L227.353 250.901L227.427 251.209L227.443 251.279L227.494 251.331L227.581 251.419L224.977 254.213L225.49 263.887L225.008 263.839L224.981 264.111L224.982 264.127L224.979 264.127L224.957 264.357L224.994 264.361L225.656 276.871L225.006 264.647L115.448 272.864V299.613H226.86L226.88 299.99L226.887 300.112L226.914 300.133H227.14H227.414L227.4 299.859L227.399 299.846L229.596 301.489L229.393 301.672L229.742 302.058L230.02 301.806L255.602 320.941L266.593 309.254L266.785 309.419L266.536 309.438L266.581 310.025L261.341 315.597L260.872 315.654L260.919 316.045L256.021 321.254L260.127 324.325L259.58 324.565L255.477 321.496L228.999 301.692L229.197 301.522L228.859 301.127L228.573 301.373L228.999 301.692L225.555 304.644L229.273 315.267L229.322 315.404L229.229 315.517L210.885 337.907L210.877 337.918L210.876 337.918L195.478 354.789L201.159 368.001L218.123 371.712L230.973 353.241L230.979 353.233L249.053 329.224L249.094 329.169L249.156 329.142L259.58 324.565L260.059 324.923L260.331 324.804L260.331 324.815L260.35 325.053L260.358 325.052L291.608 320.474L291.632 320.547L260.869 325.017L269.356 434.328H296.096L291.904 320.507L291.715 320.535L292.124 320.398L292.418 320.355L292.413 320.199L292.402 319.91L292.115 319.951L291.988 319.97L291.963 319.897L302.549 318.346L303.148 317.731L303.567 318.046L303.933 317.67L308.261 320.92L313.969 321.653L314.047 321.664L314.107 321.716L343.409 347.349L344.904 348.446L344.812 348.541L345.185 348.904L345.328 348.757L356.46 356.926L366.443 346.923L358.333 335.795L358.127 335.611L358.148 335.59L357.775 335.227L357.74 335.263L325.208 306.104L325.172 306.072L325.15 306.029L323.493 302.812L321.285 299.862L321.652 299.485L323.922 302.518L323.936 302.535L323.946 302.554L325.591 305.749L338.163 317.018L337.949 317.272L338.346 317.607L338.55 317.365L338.163 317.018L349.974 302.993L355.502 292.322L356.141 292.219L356.439 291.644L362.138 290.724L362.627 291.172L363.281 291.066L362.792 290.619L431.36 279.547V252.794L323.435 259.217L323.435 258.973V258.758L323.225 258.717L323.19 258.711L323.16 258.713L322.916 258.727V258.972L322.916 259.187L314.763 257.609L314.665 257.59L314.605 257.51L312.429 254.609L312.618 254.232L312.153 254L312.125 254.055V249.531V249.271H312.385H316.172V246.833V244.25L302.572 231.717H298.271L296.714 236.129L296.653 236.303H296.469H292.962H292.702V236.043V233.875H289.445V236.043V236.303H289.185H285.948H285.726L285.711 236.208L286.078 235.997L285.819 235.547L285.625 235.658L284.379 227.681L284.614 227.719L284.589 227.39L284.57 227.143L284.042 227.058L275.75 118.292H249.014L252.851 194.095ZM253.143 199.847L252.639 200.18L253.771 222.544L245.134 231.815L245.544 232.138L245.188 232.519L244.854 232.256H244.723L227.779 250.444L227.915 251.018L227.935 251.038L227.581 251.419L241.343 265.446L225.49 263.887L225.517 264.412L225.514 264.412L225.511 264.354L225.497 264.089L225.232 264.108L224.982 264.127L224.994 264.361L225.514 264.412L226.176 276.85L226.485 282.68L226.135 283.079L226.524 283.42L226.815 288.926H226.6V289.446H226.843L227.103 294.36L226.621 294.322L226.599 294.597L225.656 276.871L226.597 294.629L226.58 294.84L226.608 294.843L226.86 299.613H226.866L226.612 294.843L227.131 294.884L227.393 299.841L227.399 299.846L227.135 294.884L236.119 295.593L229.596 301.489L230.02 301.806L243.682 289.458L266.593 309.254L266.606 309.24C266.704 309.136 266.869 309.131 266.973 309.229C267.023 309.276 267.051 309.339 267.055 309.403L267.054 309.398L266.785 309.419L266.987 309.594L266.984 309.596L266.581 310.025L267.615 323.464L262.434 324.223L261.388 315.592L261.341 315.597L260.919 316.045L261.92 324.298L260.39 324.522L260.285 324.444L260.216 324.286L260.127 324.325L260.285 324.444L260.34 324.568L260.313 324.572L260.331 324.804L260.425 324.762L260.34 324.568L260.553 324.537L261.925 324.338L261.951 324.556L262.467 324.494L262.439 324.263L270.25 323.128L270.494 323.351L270.767 323.053L291.465 320.046L291.608 320.474L292.124 320.398L292.13 320.396L291.988 319.97L291.465 320.046L291.441 319.973L291.963 319.897L287.268 305.81L303.148 317.731L303.514 317.356L303.933 317.67L321.285 299.862L320.969 299.441L321.336 299.064L321.652 299.485L323.362 297.73L323.435 297.654V297.549V297.5L355.502 292.322L355.8 291.747L356.439 291.644L358.595 287.482L362.138 290.724L362.792 290.619L358.696 286.869L358.446 286.64L358.29 286.941L355.8 291.747L323.435 296.973L323.435 297.5L323.217 297.535L322.916 297.584L322.916 297.443L321.336 299.064L308.368 281.746L308.143 281.915L304.037 271.394L312.429 254.609L312.177 254.273L312.125 254.204V254.117V254.055L303.668 270.969L271.833 244.175L285.711 236.208L285.691 236.083L285.625 235.658L271.312 243.875H260.41L245.544 232.138L254.201 222.845L284.289 227.667L284.379 227.681L284.372 227.637L254.212 222.833L254.201 222.845L253.991 222.811L253.783 222.778L253.772 222.568L253.771 222.544L253.926 222.378L254.02 222.276L254.157 222.298L254.28 222.318L254.281 222.331L284.046 227.101L284.042 227.058L254.28 222.318L253.143 199.847ZM253.143 199.847L253.112 199.244L255.848 197.437L252.888 194.821L252.851 194.095L256.446 197.272L256.7 197.496L256.417 197.683L253.143 199.847ZM260.431 243.995L260.482 243.931L260.41 243.875H259.781V244.04L245.188 232.519L227.935 251.038L241.811 265.181L241.468 265.573L241.453 265.559L241.463 265.458L241.343 265.446L241.453 265.559L241.45 265.594L241.139 265.949L225.517 264.412L226.176 276.85L226.486 282.679L226.485 282.68L226.524 283.42L226.525 283.421L226.818 288.926H226.815L226.843 289.446H226.846L227.107 294.361L227.103 294.36L227.131 294.884L227.135 294.884L227.107 294.361L236.649 295.114L236.119 295.593L236.831 295.65L236.872 295.131L236.649 295.114L242.92 289.446H243.595C243.617 289.446 243.638 289.443 243.659 289.438L243.682 289.458L243.767 289.382C243.821 289.334 243.855 289.264 243.855 289.186C243.855 289.042 243.739 288.926 243.595 288.926H243.066L236.412 283.177L236.224 283.015L236.378 282.82L245.28 271.49L245.449 271.274L245.655 271.455L260.255 284.229L259.918 284.625L245.519 272.026L236.94 282.946L270.284 311.756L279.639 301.881L260.309 284.968L260.646 284.572L267.601 290.657L267.4 290.914L267.809 291.234L267.993 291L280.185 301.668L280.388 301.846L280.202 302.043L270.491 312.294L270.32 312.474L270.132 312.311L267.075 309.67L267.055 309.403C267.059 309.47 267.036 309.54 266.987 309.594L267.075 309.67L268.13 323.388L267.615 323.464L267.615 323.466L268.133 323.426L268.13 323.388L270.202 323.085L270.25 323.128L270.767 323.053L270.821 322.994L291.441 319.973L286.673 305.67L286.839 305.488L287.268 305.81L287.075 305.231L287.192 305.103L303.514 317.356L320.969 299.441L308.201 282.39L308.311 282.346L308.222 282.119L308.26 282.078L308.176 282L308.143 281.915L308.109 281.939L307.877 281.727L307.621 282.007L303.535 271.537L271.286 244.395H260.708L260.786 244.306L260.431 243.995ZM260.104 244.295L260.395 243.964L260.431 243.995L260.16 244.339L260.104 244.295ZM260.017 244.395H259.781V244.04L260.104 244.295L260.017 244.395ZM260.017 244.395H260.708L226.526 283.422L226.525 283.421L226.486 282.679L241.139 265.949L241.412 265.975L241.45 265.594L241.468 265.573L241.522 265.628L241.893 265.264L241.811 265.181L260.017 244.395ZM307.849 282.527L307.827 282.535L307.621 282.007L270.11 323L270.202 323.085L270.821 322.994L286.673 305.67L286.511 305.184L286.756 305.103L286.601 305.309L286.839 305.488L287.075 305.231L287.004 305.02L286.756 305.103L286.913 304.893L287.192 305.103L307.849 282.527ZM308.099 282.254L308.201 282.39L307.849 282.527L308.099 282.254ZM308.099 282.254L308.222 282.119L308.176 282L308.109 281.939L307.952 282.057L308.099 282.254ZM273.04 284.812L272.637 285.065L267.993 291L267.601 290.657L272.256 284.709L272.284 284.673L272.322 284.649L272.647 284.445L273.04 284.812ZM273.496 284.526L273.04 284.812L281.995 293.152L282.178 293.323L282.356 293.146L291.797 283.704L291.99 283.511L291.788 283.327L284.927 277.12L289.635 272.648L289.838 272.456L289.63 272.268L275.063 259.049L274.864 258.869L274.69 259.073L270.469 264.039L263.463 257.7L263.271 257.526L263.097 257.717L254.464 267.159L254.29 267.349L254.479 267.524L265.634 277.914L260.255 284.229L260.646 284.572L266.015 278.269L272.647 284.445L273.102 284.159L273.496 284.526ZM284.55 277.479L291.237 283.529L282.165 292.601L273.496 284.526L284.199 277.806L284.221 277.792L284.239 277.774L284.55 277.479ZM284.163 277.13L283.9 277.379L273.102 284.159L266.353 277.873L266.454 277.754L266.488 277.714L266.504 277.663L270.526 264.792L284.163 277.13ZM284.541 276.771L284.163 277.13L284.55 277.479L284.927 277.12L284.541 276.771ZM270.855 264.388L270.535 264.765L270.526 264.792L270.133 264.435L270.469 264.039L270.855 264.388ZM265.972 277.518L255.022 267.32L263.306 258.259L270.133 264.435L270.104 264.469L270.07 264.509L270.054 264.559L266.024 277.457L265.972 277.518ZM265.972 277.518L265.634 277.914L266.015 278.269L266.353 277.873L265.972 277.518ZM270.855 264.388L284.541 276.771L289.074 272.464L274.913 259.615L270.855 264.388ZM260.309 284.968L259.918 284.625L259.854 284.701L260.249 285.038L260.309 284.968ZM243.286 289.116L243.421 288.993L243.77 289.379L243.767 289.382C243.736 289.408 243.699 289.428 243.659 289.438L243.286 289.116ZM243.286 289.116L242.92 289.446H226.846L226.818 288.926H243.066L243.286 289.116ZM262.439 324.263L262.434 324.223L261.92 324.298L261.925 324.338L262.439 324.263ZM226.612 294.843L226.599 294.597L226.597 294.629L226.608 294.843L226.612 294.843ZM357.74 335.263L344.904 348.446L345.328 348.757L358.127 335.611L357.74 335.263ZM291.715 320.535L291.632 320.547L291.637 320.561L291.715 320.535ZM196.671 217.493L208.422 203.338L208.037 202.988L196.318 217.105L196.671 217.493ZM268.869 80.5347V91.8647H268.869V80.5347H268.869ZM252.414 80.4331L252.825 91.7558L252.87 91.7543L252.493 80.4305L252.414 80.4331ZM247.096 89.2468L247.616 89.2295L247.547 87.8062L247.028 87.8312L247.096 89.2468ZM273.565 89.167H274.086L273.984 87.7992L273.465 87.8381L273.565 89.167ZM460.405 250.874L460.423 251.394L461.846 251.325L461.821 250.806L460.405 250.874ZM460.485 277.343L461.814 277.243L461.853 277.762L460.485 277.864V277.343ZM292.199 477.648C396.648 468.202 478.49 380.407 478.49 273.497C478.49 160.282 386.712 68.5039 273.497 68.5039C160.283 68.5039 68.504 160.282 68.504 273.497C68.504 386.711 160.283 478.49 273.497 478.49C274.83 478.49 276.16 478.477 277.487 478.452C278.237 479.186 279.263 479.638 280.395 479.638H288.65C290.156 479.638 291.469 478.84 292.199 477.648ZM292.199 477.648C292.306 477.474 292.4 477.291 292.481 477.101C287.386 477.57 282.238 477.852 277.042 477.94C277.176 478.123 277.325 478.294 277.487 478.452C282.436 478.357 287.342 478.088 292.199 477.648ZM292.691 472.187L292.612 472.189L292.236 460.865L292.28 460.864L292.691 472.187ZM298.009 463.373L297.49 463.39L297.558 464.814L298.077 464.789L298.009 463.373ZM271.541 463.452H271.019L271.122 464.821L271.64 464.782L271.541 463.452ZM178.473 412.141L175.815 415.331L175.415 414.998L178.067 411.816L178.473 412.141ZM167.21 401.474L164.462 404.025L164.108 403.644L166.811 401.134L167.21 401.474ZM77.5897 296.199L88.9123 295.788L88.9108 295.744L77.5871 296.12L77.5897 296.199ZM86.4035 301.517L86.3862 300.997L84.9626 301.066L84.9875 301.585L86.4035 301.517ZM86.3235 276.506H80.9282V276.507H86.3235V276.506ZM86.3235 275.048L84.9945 275.148L84.9556 274.629L86.3235 274.527V275.048ZM457.897 256.603L469.219 256.192L469.222 256.271L457.898 256.647L457.897 256.603ZM195.093 355.211L179.854 371.908L179.734 372.039L179.569 371.976L174.053 369.875L149.994 391.818L158.136 393.599L158.182 393.61L158.222 393.635L168.203 400.11L168.218 400.119L168.231 400.131L173.818 404.938L200.675 368.192L195.093 355.211ZM201.083 368.516L174.213 405.278L179.831 410.112L179.842 410.121L179.851 410.131L187.674 418.494L187.71 418.532L187.728 418.581L190.233 425.344L206.894 396.253L205.042 390.698L205.001 390.575L205.076 390.468L217.802 372.173L201.083 368.516ZM207.365 396.021H212.703L235.782 361.134V354.935L231.294 353.689L218.451 372.151L205.577 390.658L207.365 396.021ZM174.256 369.396L179.589 371.427L194.981 354.563L210.424 337.642V334.226H207.28L174.256 365.102V369.396ZM208.219 215.156L208.431 215.347L228.393 233.421L228.596 233.605L228.402 233.798L226.514 235.686L226.339 235.861L226.156 235.695L206.463 217.891L206.287 217.732L206.43 217.542L208.048 215.384L208.219 215.156ZM208.293 215.924L206.988 217.664L226.321 235.144L227.842 233.624L208.293 215.924ZM345.795 336.526L346.008 336.716L345.799 336.91L343.824 338.748L343.651 338.909L343.474 338.751L323.688 321.05L323.504 320.886L323.659 320.693L325.337 318.616L325.509 318.404L325.713 318.586L345.795 336.526ZM343.644 338.206L345.236 336.724L325.57 319.155L324.219 320.828L343.644 338.206ZM273.303 512.872C405.613 512.872 512.872 405.614 512.872 273.303C512.872 140.993 405.613 33.7342 273.303 33.7342C140.993 33.7342 33.7339 140.993 33.7339 273.303C33.7339 405.614 140.993 512.872 273.303 512.872ZM273.303 513.392C405.9 513.392 513.392 405.901 513.392 273.303C513.392 140.706 405.9 33.2144 273.303 33.2144C140.706 33.2144 33.2141 140.706 33.2141 273.303C33.2141 405.901 140.706 513.392 273.303 513.392ZM272.209 399.798H272.46H289.995H290.231L290.253 400.034L293.221 431.056L293.248 431.341H292.962H271.381H271.112L271.121 431.072L272.2 400.049L272.209 399.798ZM272.711 400.318L271.65 430.821H292.676L289.758 400.318H272.711ZM271.651 342.069H271.382L271.391 342.338L272.74 382.802L272.748 383.053H272.999H275.967H276.235L276.226 382.785L274.878 342.32L274.869 342.069H274.618H271.651ZM273.251 382.534L271.919 342.589H274.367L275.698 382.534H273.251ZM280.284 341.799H280.553H283.52H283.772L283.78 342.05L285.129 382.515L285.138 382.783H284.869H281.902H281.65L281.642 382.532L280.293 342.068L280.284 341.799ZM280.822 342.319L282.153 382.264H284.6L283.269 342.319H280.822ZM396.831 277.503V260.86V260.639L397.05 260.604L428.072 255.665L428.373 255.617V255.922V277.503V277.763H428.113H397.091H396.831V277.503ZM397.35 277.243H427.853V256.226L397.35 261.082V277.243ZM339.101 278.852V279.12L339.37 279.111L379.834 277.763L380.086 277.754V277.503V274.535V274.267L379.817 274.276L339.353 275.624L339.101 275.633V275.884V278.852ZM379.566 277.251L339.621 278.583V276.136L379.566 274.804V277.251ZM338.832 270.217V269.949V266.981V266.73L339.083 266.722L379.547 265.373L379.816 265.364V265.633V268.6V268.851L379.565 268.86L339.1 270.208L338.832 270.217ZM339.351 269.68L379.296 268.349V265.901L339.351 267.233V269.68ZM465.88 275.884H460.485V275.884H465.88V275.884ZM272.982 152.822H272.73H255.465H255.232L255.207 152.589L251.885 121.567L251.854 121.279H252.144H273.725H273.993L273.984 121.547L272.99 152.57L272.982 152.822ZM272.478 152.302L273.456 121.799H252.433L255.699 152.302H272.478ZM273.455 210.551H273.724L273.715 210.282L272.366 169.818L272.358 169.567H272.106H269.139H268.87L268.879 169.835L270.228 210.3L270.236 210.551H270.488H273.455ZM271.855 170.086L273.186 210.031H270.739L269.407 170.086H271.855ZM264.822 210.821H264.553H261.586H261.334L261.326 210.57L259.977 170.105L259.968 169.837H260.237L263.204 169.837H263.456L263.464 170.088L264.813 210.552L264.822 210.821ZM264.284 210.301L262.953 170.357H260.505L261.837 210.301H264.284ZM149.978 274.629V274.888V294.581V294.826L149.734 294.841L118.711 296.729L118.436 296.746V296.469V274.888V274.629H118.695H149.718H149.978ZM149.458 275.148H118.955V296.193L149.458 294.337V275.148ZM207.707 275.158V274.889L207.439 274.898L166.974 276.247L166.723 276.256V276.507V279.474V279.743L166.991 279.734L207.456 278.385L207.707 278.377V278.126V275.158ZM167.243 276.758L207.187 275.427V277.874L167.243 279.206V276.758ZM207.977 283.791V284.06V287.027V287.279L207.725 287.287L167.261 288.636L166.992 288.645V288.376V285.409V285.158L167.244 285.149L207.708 283.8L207.977 283.791ZM207.457 284.329L167.512 285.66V288.108L207.457 286.776V284.329Z" fill="white"/>
</svg>
