<svg width="548" height="548" viewBox="0 0 548 548" fill="none" xmlns="http://www.w3.org/2000/svg">
<path d="M34 1H1V547H34V1Z" stroke="white" stroke-width="0.931422" stroke-miterlimit="10"/>
<path d="M547 1H514V547H547V1Z" stroke="white" stroke-width="0.931422" stroke-miterlimit="10"/>
<path d="M55.7796 224.381C67.1868 224.381 76.4342 215.134 76.4342 203.727C76.4342 192.32 67.1868 183.072 55.7796 183.072C44.3724 183.072 35.125 192.32 35.125 203.727C35.125 215.134 44.3724 224.381 55.7796 224.381Z" stroke="#92702C" stroke-width="1.05843" stroke-miterlimit="10"/>
<path d="M55.7798 209.115C58.7556 209.115 61.1679 206.703 61.1679 203.727C61.1679 200.751 58.7556 198.339 55.7798 198.339C52.804 198.339 50.3916 200.751 50.3916 203.727C50.3916 206.703 52.804 209.115 55.7798 209.115Z" stroke="#92702C" stroke-width="1.05843" stroke-miterlimit="10"/>
<path d="M59.3716 200.135H75.585H245.263V207.319H75.6034H59.5007" stroke="#92702C" stroke-width="0.931422" stroke-miterlimit="10"/>
<path d="M89.0063 200.135L96.2946 183.466L217.827 170.5L231.793 200.135" stroke="#92702C" stroke-width="0.931422" stroke-miterlimit="10"/>
<path d="M492.669 236.056C503.829 236.056 512.875 226.809 512.875 215.402C512.875 203.994 503.829 194.747 492.669 194.747C481.51 194.747 472.464 203.994 472.464 215.402C472.464 226.809 481.51 236.056 492.669 236.056Z" stroke="#92702C" stroke-width="1.05843" stroke-miterlimit="10"/>
<path d="M492.669 220.789C495.893 220.789 498.506 218.377 498.506 215.401C498.506 212.425 495.893 210.013 492.669 210.013C489.445 210.013 486.832 212.425 486.832 215.401C486.832 218.377 489.445 220.789 492.669 220.789Z" stroke="#92702C" stroke-width="1.05843" stroke-miterlimit="10"/>
<path d="M489.527 211.271L473.291 210.497L311.17 202.829L310.819 210.552L472.903 218.219L488.991 218.994H489.009" stroke="#92702C" stroke-width="0.931422" stroke-miterlimit="10"/>
<path d="M317.105 203.574L332.337 174.99L452.5 193.263L458.994 210.013" stroke="#92702C" stroke-width="0.931422" stroke-miterlimit="10"/>
<path d="M205.75 243.888L226.405 229.77V253.854L220.772 257.453L222.113 287.074L206.823 303.408L205.75 243.888Z" stroke="white" stroke-width="1.05843" stroke-miterlimit="10"/>
<path d="M245.263 307.879L244.71 296.366L235.581 292.802L228.942 293.35L200.173 332.003L197.684 330.084L227.836 291.431L224.24 288.142L184.959 335.567L183.299 347.629L199.897 346.532L202.11 366.27L210.408 357.772L209.025 343.243L217.047 334.47L223.963 338.308L224.24 343.791L227.283 341.598V336.389L222.303 330.907L226.729 327.069L228.389 328.988L234.475 321.312L231.155 318.571L238.348 308.976L241.944 309.524L245.263 307.879Z" stroke="white" stroke-width="1.05843" stroke-miterlimit="10"/>
<path d="M196.946 353.004L181.412 352.799L171.137 367.918L170.727 383.877L173.245 383.672V374.003H183.315V385.128H186.447L199.464 367.283L196.946 353.004Z" stroke="white" stroke-width="1.05843" stroke-miterlimit="10"/>
<path d="M166.941 386.599L186.714 388.259L218.713 355.493L236.283 357.78L182.363 408.173L170.393 437.214L109.661 426.851L173.073 358.609L157.027 385.493L166.941 386.599Z" stroke="white" stroke-width="1.05843" stroke-miterlimit="10"/>
<path d="M152.766 483.013L140.194 481.217" stroke="white" stroke-width="1.05843" stroke-miterlimit="10"/>
<path d="M119.332 477.457L109.175 475.816L106.967 429.061L172.377 440.681L184.796 409.972L223.711 373.454L223.159 411.909L186.728 453.684L186.452 477.753L176.241 486.605L173.462 486.163H173.444" stroke="white" stroke-width="1.05843" stroke-miterlimit="10"/>
<path d="M168.931 485.707L157.256 483.911" stroke="white" stroke-width="1.05843" stroke-miterlimit="10"/>
<path d="M136.602 480.319L123.131 478.523" stroke="white" stroke-width="1.05843" stroke-miterlimit="10"/>
<path d="M265.828 249.526H286.572V309.694H265.02L265.828 249.526Z" stroke="white" stroke-width="1.05843" stroke-miterlimit="10"/>
<path d="M275.266 262.996H279.388V296.223H274.972C274.972 296.223 274.677 262.996 275.266 262.996Z" stroke="white" stroke-width="1.05843" stroke-miterlimit="10"/>
<path d="M277.508 216.92H268.157L259.631 199.731V175.888H297.034L304.459 198.067L304.533 217.16L301.984 217.197V200.285H277.783L277.508 216.92Z" stroke="white" stroke-width="1.05843" stroke-miterlimit="10"/>
<path d="M281.184 203.727H299.145V246.554L281.184 246.832V203.727Z" stroke="white" stroke-width="1.05843" stroke-miterlimit="10"/>
<path d="M265.918 246.833V231.566H268.945V235.695H278.49V242.704H268.733V246.833H265.918Z" stroke="white" stroke-width="1.05843" stroke-miterlimit="10"/>
<path d="M273.102 220.789H268.612V226.177H273.102V220.789Z" stroke="white" stroke-width="1.05843" stroke-miterlimit="10"/>
<path d="M283.294 354.328L297.207 344.321L325.437 342.023L386.254 386.645V399.561H381.069V389.351L370.274 390.815V400.395H361.971V393.094L355.126 388.313L345.568 388.721L345.162 395.188L340.789 394.558L340.586 384.978L315.271 365.168L316.507 360.573L309.237 354.328L308.628 357.867L300.731 358.071L298.664 372.043H288.903L282.98 366.113L283.294 354.328Z" stroke="white" stroke-width="0.931422" stroke-miterlimit="10"/>
<path d="M355.72 409.408L407.013 449.786L414.092 440.422L365.319 403.986L355.72 409.408Z" stroke="white" stroke-width="0.931422" stroke-miterlimit="10"/>
<path d="M313.246 366.27L337.335 385.427L337.76 392.312L304.533 366.695L313.246 366.27Z" stroke="white" stroke-width="0.931422" stroke-miterlimit="10"/>
<path d="M301.839 373.739L334.521 398.599L335.964 395.487L304.305 371.658L301.839 373.739Z" stroke="white" stroke-width="0.931422" stroke-miterlimit="10"/>
<path d="M334.168 408.526L336.864 406.682L365.524 431.736L368.644 427.828L392.54 450.436L390.047 452.481L369.069 433.179L365.745 436.466L334.168 408.526Z" stroke="white" stroke-width="0.931422" stroke-miterlimit="10"/>
<path d="M281.184 353.464V363.575L256.04 357.864V352.799C256.04 352.799 281.184 353.229 281.184 353.464Z" stroke="white" stroke-width="0.931422" stroke-miterlimit="10"/>
<path d="M257.835 344.717V349.868H251.035V368.065H246.161V345.421L257.835 344.717Z" stroke="white" stroke-width="0.931422" stroke-miterlimit="10"/>
<path d="M282.156 374.352L300.941 395.006L282.713 394.86L269.51 374.625L282.156 374.352Z" stroke="white" stroke-width="0.931422" stroke-miterlimit="10"/>
<path d="M228.201 386.195L280.909 398.599L307.227 397.643L282.709 370.76L228.623 371.587L228.201 386.195Z" stroke="white" stroke-width="0.931422" stroke-miterlimit="10"/>
<path d="M318.305 230.668V255.362L323.876 260.911V286.438L316.207 294.058V308.634L329.094 321.472L325.12 325.411V332.496H329.447V328.057L335.574 321.952L342.816 329.166V342.762H349.223L356.594 350.105H358.414L357.579 344.982L350.615 337.768V324.727L335.296 304.75L338.917 246.206H334.46L318.305 230.668Z" stroke="white" stroke-width="0.931422" stroke-miterlimit="10"/>
<path d="M291.062 402.321L313.503 400.654L296.271 381.686L303.529 377.944L332.84 399.191L334.706 403.358L328.685 407.526L365.032 441.072L368.154 437.96L379.069 448.888H334.706L291.062 402.321Z" stroke="white" stroke-width="0.931422" stroke-miterlimit="10"/>
<path d="M278.49 322.266H274V326.756H278.49V322.266Z" stroke="white" stroke-width="0.931422" stroke-miterlimit="10"/>
<path d="M270.408 311.49H265.918V316.878H270.408V311.49Z" stroke="white" stroke-width="0.931422" stroke-miterlimit="10"/>
<path d="M286.572 311.49H282.082V316.878H286.572V311.49Z" stroke="white" stroke-width="0.931422" stroke-miterlimit="10"/>
<path d="M311.717 222.586H307.227V227.974H311.717V222.586Z" stroke="white" stroke-width="1.05843" stroke-miterlimit="10"/>
<path d="M280.282 162.418L225.506 140.944L266.726 124.701L283.878 135.163L280.282 162.418Z" stroke="white" stroke-width="1.05843" stroke-miterlimit="10"/>
<path d="M225.506 140.865L283.491 144.181L327.881 144.457" stroke="white" stroke-width="1.05843" stroke-miterlimit="10"/>
<path d="M282.152 134.567L312.365 122.904L329.678 133.259C329.678 133.259 326.048 159.42 326.048 160.237L281.184 162.417" stroke="white" stroke-width="1.05843" stroke-miterlimit="10"/>
<path d="M215.628 208.217L214.73 236.954" stroke="white" stroke-width="1.05843" stroke-miterlimit="10"/>
<path d="M332.372 211.809V243.24" stroke="white" stroke-width="1.05843" stroke-miterlimit="10"/>
<path d="M378.171 405.148L418.208 436.316L422.174 432.415L386.512 403.089L378.171 405.148Z" stroke="white" stroke-width="1.05843" stroke-miterlimit="10"/>
<path d="M124.928 466.118L122.014 489.299L115.947 463.939L121.455 451.582L124.928 466.118Z" stroke="white" stroke-width="1.05843" stroke-miterlimit="10"/>
<path d="M141.092 467.915L138.47 491.096L133.01 465.736L137.949 453.379L141.092 467.915Z" stroke="white" stroke-width="1.05843" stroke-miterlimit="10"/>
<path d="M158.155 472.424L155.514 495.586L150.072 470.244L155.011 457.869L158.155 472.424Z" stroke="white" stroke-width="1.05843" stroke-miterlimit="10"/>
<path d="M174.319 476.016L171.697 499.178L166.237 473.836L171.194 461.461L174.319 476.016Z" stroke="white" stroke-width="1.05843" stroke-miterlimit="10"/>
<path d="M464.381 483.868L465.542 493.789L467.973 482.917L465.778 477.625L464.381 483.868Z" stroke="white" stroke-width="0.465711" stroke-miterlimit="10"/>
<path d="M456.299 484.204L457.46 494.688L459.891 483.218L457.678 477.625L456.299 484.204Z" stroke="white" stroke-width="0.465711" stroke-miterlimit="10"/>
<path d="M449.115 486.552L450.289 496.484L452.707 485.618L450.505 480.319L449.115 486.552Z" stroke="white" stroke-width="0.465711" stroke-miterlimit="10"/>
<path d="M441.931 487.795L443.104 498.279L445.523 486.809L443.321 481.217L441.931 487.795Z" stroke="white" stroke-width="0.465711" stroke-miterlimit="10"/>
<path d="M450.013 491.994L443.727 493.79" stroke="white" stroke-width="1.05843" stroke-miterlimit="10"/>
<path d="M464.381 488.401L458.993 490.197" stroke="white" stroke-width="1.05843" stroke-miterlimit="10"/>
<path d="M442.487 493.593L437.698 494.688L438.534 485.508L435.397 473.62L424.335 461.306L411.398 460.676L426.209 441.704L440.408 450.457L461.289 449.623L472.778 459.211L476.954 472.99L470.272 477.366L470.68 487.177L466.504 488.123" stroke="white" stroke-width="1.05843" stroke-miterlimit="10"/>
<path d="M457.197 490.197L451.809 491.993" stroke="white" stroke-width="1.05843" stroke-miterlimit="10"/>
<path d="M222.336 169.949L235.942 195.711H256.992V172.036H298.653L307.528 196.542H316.806L328.78 174.104L325.883 162.673L279.675 166.218L221.915 143.559L222.336 169.949Z" stroke="white" stroke-width="0.931422" stroke-miterlimit="10"/>
<path d="M358.415 350.105L395.834 381.658L406.908 419.254" stroke="white" stroke-width="1.05843" stroke-miterlimit="10"/>
</svg>
