<svg width="24" height="25" viewBox="0 0 24 25" fill="none" xmlns="http://www.w3.org/2000/svg">
<path d="M3 5.76318C3 14.3236 9.93959 21.2632 18.5 21.2632C18.8862 21.2632 19.2691 21.2491 19.6483 21.2213C20.0834 21.1894 20.3009 21.1735 20.499 21.0595C20.663 20.965 20.8185 20.7977 20.9007 20.6272C21 20.4214 21 20.1813 21 19.7012V16.8839C21 16.4801 21 16.2782 20.9335 16.1052C20.8749 15.9523 20.7795 15.8162 20.6559 15.7088C20.516 15.5872 20.3262 15.5182 19.9468 15.3802L16.74 14.2141C16.2985 14.0535 16.0777 13.9733 15.8683 13.9869C15.6836 13.9989 15.5059 14.0619 15.3549 14.169C15.1837 14.2903 15.0629 14.4917 14.8212 14.8946L14 16.2632C11.3501 15.0631 9.2019 12.9121 8 10.2632L9.36863 9.44201C9.77145 9.20031 9.97286 9.07947 10.0942 8.90825C10.2012 8.75727 10.2643 8.57955 10.2763 8.39488C10.2899 8.18545 10.2096 7.96471 10.0491 7.52323L8.88299 4.31639C8.745 3.93695 8.67601 3.74722 8.55442 3.60728C8.44701 3.48367 8.31089 3.38833 8.15802 3.32963C7.98496 3.26318 7.78308 3.26318 7.37932 3.26318H4.56201C4.08188 3.26318 3.84181 3.26318 3.63598 3.36244C3.4655 3.44464 3.29814 3.6002 3.2037 3.76422C3.08968 3.96225 3.07375 4.1798 3.04189 4.61491C3.01413 4.99404 3 5.37696 3 5.76318Z" stroke="white" stroke-linecap="round" stroke-linejoin="round"/>
</svg>
