<svg width="25" height="25" viewBox="0 0 25 25" fill="none" xmlns="http://www.w3.org/2000/svg">
<path d="M0 24.2634L1.71489 18.0361C0.654671 16.2083 0.0984903 14.1383 0.104284 12.0221C0.104284 5.39122 5.52704 0 12.1838 0C15.4166 0 18.4524 1.25123 20.7293 3.52303C23.012 5.79484 24.2692 8.81624 24.2634 12.0279C24.2634 18.6588 18.8406 24.05 12.178 24.05H12.1722C10.1503 24.05 8.16311 23.5426 6.39607 22.5855L0 24.2634ZM6.70313 20.4117L7.06812 20.6308C8.60921 21.5418 10.3762 22.0204 12.178 22.0262H12.1838C17.7167 22.0262 22.224 17.546 22.224 12.0337C22.224 9.36401 21.1812 6.85579 19.2867 4.96454C17.3922 3.07329 14.8662 2.0354 12.1838 2.0354C6.65099 2.02964 2.14361 6.50983 2.14361 12.0221C2.14361 13.9076 2.67082 15.747 3.6789 17.3384L3.91644 17.719L2.90257 21.4034L6.70313 20.4117Z" fill="black"/>
<path d="M0.422852 23.8425L2.07981 17.8285C1.05435 16.0699 0.515548 14.0691 0.515548 12.0279C0.521342 5.62761 5.75291 0.420898 12.1837 0.420898C15.3065 0.420898 18.2322 1.63176 20.4338 3.82285C22.6353 6.01393 23.8462 8.93154 23.8462 12.0337C23.8462 18.4339 18.6088 23.6406 12.1837 23.6406H12.178C10.2255 23.6406 8.30787 23.1505 6.60456 22.228L0.422852 23.8425Z" fill="white"/>
<path d="M0 24.2634L1.71489 18.0361C0.654671 16.2083 0.0984903 14.1383 0.104284 12.0221C0.104284 5.39122 5.52704 0 12.1838 0C15.4166 0 18.4524 1.25123 20.7293 3.52303C23.012 5.79484 24.2692 8.81624 24.2634 12.0279C24.2634 18.6588 18.8406 24.05 12.178 24.05H12.1722C10.1503 24.05 8.16311 23.5426 6.39607 22.5855L0 24.2634ZM6.70313 20.4117L7.06812 20.6308C8.60921 21.5418 10.3762 22.0204 12.178 22.0262H12.1838C17.7167 22.0262 22.224 17.546 22.224 12.0337C22.224 9.36401 21.1812 6.85579 19.2867 4.96454C17.3922 3.07329 14.8662 2.0354 12.1838 2.0354C6.65099 2.02964 2.14361 6.50983 2.14361 12.0221C2.14361 13.9076 2.67082 15.747 3.6789 17.3384L3.91644 17.719L2.90257 21.4034L6.70313 20.4117Z" fill="black"/>
<path fill-rule="evenodd" clip-rule="evenodd" d="M9.16527 6.99395C8.93932 6.4923 8.70178 6.48077 8.48742 6.475C8.31362 6.46924 8.11084 6.46924 7.90807 6.46924C7.70529 6.46924 7.38086 6.5442 7.10276 6.84403C6.82467 7.14386 6.04834 7.87038 6.04834 9.35225C6.04834 10.8283 7.13173 12.2583 7.28236 12.4601C7.433 12.6619 9.37383 15.7929 12.4386 16.998C14.9878 18.0013 15.5092 17.7995 16.0596 17.7476C16.61 17.6957 17.844 17.021 18.0989 16.3176C18.348 15.6141 18.348 15.0145 18.2727 14.8876C18.1974 14.7608 17.9946 14.6858 17.6934 14.5359C17.3921 14.386 15.909 13.6595 15.6309 13.5557C15.3528 13.4576 15.15 13.4058 14.953 13.7056C14.7502 14.0054 14.1709 14.68 13.9971 14.8819C13.8233 15.0837 13.6437 15.1067 13.3424 14.9568C13.0411 14.8069 12.0678 14.4898 10.9149 13.4634C10.0169 12.6677 9.4086 11.6817 9.23479 11.3819C9.06098 11.082 9.21741 10.9206 9.36804 10.7707C9.50129 10.6381 9.66931 10.419 9.81994 10.246C9.97057 10.073 10.0227 9.94615 10.1212 9.74433C10.2197 9.54252 10.1733 9.36954 10.098 9.21963C10.0227 9.07548 9.43177 7.58785 9.16527 6.99395Z" fill="black"/>
</svg>
