<svg width="600" height="600" viewBox="0 0 600 600" fill="none" xmlns="http://www.w3.org/2000/svg">
<path d="M60 27H27V573H60V27Z" stroke="white" stroke-width="0.931422" stroke-miterlimit="10"/>
<path d="M573 27H540V573H573V27Z" stroke="white" stroke-width="0.931422" stroke-miterlimit="10"/>
<path d="M81.7796 250.381C93.1868 250.381 102.434 241.134 102.434 229.727C102.434 218.32 93.1868 209.072 81.7796 209.072C70.3724 209.072 61.125 218.32 61.125 229.727C61.125 241.134 70.3724 250.381 81.7796 250.381Z" stroke="#92702C" stroke-width="1.05843" stroke-miterlimit="10"/>
<path d="M81.7796 235.115C84.7554 235.115 87.1678 232.703 87.1678 229.727C87.1678 226.751 84.7554 224.339 81.7796 224.339C78.8038 224.339 76.3914 226.751 76.3914 229.727C76.3914 232.703 78.8038 235.115 81.7796 235.115Z" stroke="#92702C" stroke-width="1.05843" stroke-miterlimit="10"/>
<path d="M85.3717 226.135H101.585H271.263V233.319H101.604H85.5008" stroke="#92702C" stroke-width="0.931422" stroke-miterlimit="10"/>
<path d="M115.007 226.135L122.295 209.466L243.827 196.5L257.793 226.135" stroke="#92702C" stroke-width="0.931422" stroke-miterlimit="10"/>
<path d="M518.669 262.056C529.829 262.056 538.875 252.809 538.875 241.402C538.875 229.994 529.829 220.747 518.669 220.747C507.51 220.747 498.464 229.994 498.464 241.402C498.464 252.809 507.51 262.056 518.669 262.056Z" stroke="#92702C" stroke-width="1.05843" stroke-miterlimit="10"/>
<path d="M518.669 246.789C521.893 246.789 524.507 244.377 524.507 241.401C524.507 238.425 521.893 236.013 518.669 236.013C515.446 236.013 512.832 238.425 512.832 241.401C512.832 244.377 515.446 246.789 518.669 246.789Z" stroke="#92702C" stroke-width="1.05843" stroke-miterlimit="10"/>
<path d="M515.526 237.271L499.29 236.497L337.17 228.829L336.819 236.552L498.902 244.219L514.991 244.994H515.009" stroke="#92702C" stroke-width="0.931422" stroke-miterlimit="10"/>
<path d="M343.105 229.574L358.337 200.99L478.5 219.263L484.993 236.013" stroke="#92702C" stroke-width="0.931422" stroke-miterlimit="10"/>
<path d="M231.75 269.888L252.405 255.77V279.854L246.772 283.453L248.113 313.074L232.823 329.408L231.75 269.888Z" stroke="white" stroke-width="1.05843" stroke-miterlimit="10"/>
<path d="M271.263 333.879L270.71 322.366L261.581 318.802L254.942 319.35L226.173 358.003L223.684 356.084L253.836 317.431L250.24 314.142L210.959 361.567L209.299 373.629L225.897 372.532L228.11 392.27L236.408 383.772L235.025 369.243L243.047 360.47L249.963 364.308L250.24 369.791L253.283 367.598V362.389L248.303 356.907L252.729 353.069L254.389 354.988L260.475 347.312L257.155 344.571L264.348 334.976L267.944 335.524L271.263 333.879Z" stroke="white" stroke-width="1.05843" stroke-miterlimit="10"/>
<path d="M222.946 379.005L207.412 378.799L197.137 393.919L196.727 409.878L199.244 409.672V400.004H209.314V411.128H212.447L225.464 393.284L222.946 379.005Z" stroke="white" stroke-width="1.05843" stroke-miterlimit="10"/>
<path d="M192.941 412.599L212.714 414.259L244.713 381.493L262.283 383.78L208.363 434.173L196.393 463.214L135.661 452.851L199.073 384.609L183.027 411.493L192.941 412.599Z" stroke="white" stroke-width="1.05843" stroke-miterlimit="10"/>
<path d="M178.766 509.013L166.194 507.217" stroke="white" stroke-width="1.05843" stroke-miterlimit="10"/>
<path d="M145.331 503.457L135.175 501.816L132.967 455.061L198.377 466.681L210.796 435.972L249.71 399.454L249.159 437.909L212.728 479.684L212.452 503.753L202.24 512.605L199.462 512.163H199.444" stroke="white" stroke-width="1.05843" stroke-miterlimit="10"/>
<path d="M194.931 511.707L183.257 509.911" stroke="white" stroke-width="1.05843" stroke-miterlimit="10"/>
<path d="M162.602 506.319L149.132 504.523" stroke="white" stroke-width="1.05843" stroke-miterlimit="10"/>
<path d="M291.828 275.526H312.572V335.694H291.02L291.828 275.526Z" stroke="white" stroke-width="1.05843" stroke-miterlimit="10"/>
<path d="M301.266 288.997H305.388V322.224H300.972C300.972 322.224 300.677 288.997 301.266 288.997Z" stroke="white" stroke-width="1.05843" stroke-miterlimit="10"/>
<path d="M303.508 242.92H294.157L285.632 225.731V201.888H323.034L330.46 224.067L330.533 243.16L327.984 243.197V226.285H303.783L303.508 242.92Z" stroke="white" stroke-width="1.05843" stroke-miterlimit="10"/>
<path d="M307.184 229.727H325.145V272.554L307.184 272.832V229.727Z" stroke="white" stroke-width="1.05843" stroke-miterlimit="10"/>
<path d="M291.918 272.832V257.566H294.945V261.694H304.49V268.704H294.733V272.832H291.918Z" stroke="white" stroke-width="1.05843" stroke-miterlimit="10"/>
<path d="M299.102 246.79H294.612V252.178H299.102V246.79Z" stroke="white" stroke-width="1.05843" stroke-miterlimit="10"/>
<path d="M309.294 380.327L323.206 370.321L351.437 368.023L412.253 412.645V425.561H407.068V415.35L396.274 416.814V426.395H387.971V419.094L381.126 414.313L371.568 414.72L371.162 421.188L366.789 420.557L366.586 410.977L341.27 391.168L342.507 386.572L335.237 380.327L334.628 383.867L326.731 384.071L324.664 398.043H314.903L308.98 392.113L309.294 380.327Z" stroke="white" stroke-width="0.931422" stroke-miterlimit="10"/>
<path d="M381.72 435.409L433.013 475.786L440.092 466.423L391.319 429.987L381.72 435.409Z" stroke="white" stroke-width="0.931422" stroke-miterlimit="10"/>
<path d="M339.246 392.27L363.335 411.427L363.76 418.312L330.533 392.695L339.246 392.27Z" stroke="white" stroke-width="0.931422" stroke-miterlimit="10"/>
<path d="M327.839 399.739L360.521 424.599L361.964 421.486L330.305 397.658L327.839 399.739Z" stroke="white" stroke-width="0.931422" stroke-miterlimit="10"/>
<path d="M360.168 434.526L362.864 432.681L391.523 457.736L394.644 453.828L418.539 476.435L416.047 478.48L395.069 459.178L391.745 462.465L360.168 434.526Z" stroke="white" stroke-width="0.931422" stroke-miterlimit="10"/>
<path d="M307.184 379.464V389.576L282.039 383.865V378.799C282.039 378.799 307.184 379.23 307.184 379.464Z" stroke="white" stroke-width="0.931422" stroke-miterlimit="10"/>
<path d="M283.836 370.717V375.869H277.035V394.066H272.161V371.421L283.836 370.717Z" stroke="white" stroke-width="0.931422" stroke-miterlimit="10"/>
<path d="M308.156 400.352L326.941 421.006L308.713 420.86L295.51 400.625L308.156 400.352Z" stroke="white" stroke-width="0.931422" stroke-miterlimit="10"/>
<path d="M254.201 412.196L306.909 424.599L333.227 423.644L308.709 396.76L254.623 397.587L254.201 412.196Z" stroke="white" stroke-width="0.931422" stroke-miterlimit="10"/>
<path d="M344.306 256.668V281.362L349.876 286.911V312.438L342.207 320.058V334.634L355.094 347.472L351.12 351.411V358.496H355.447V354.057L361.575 347.952L368.817 355.166V368.762H375.223L382.595 376.105H384.414L383.579 370.982L376.615 363.768V350.727L361.296 330.75L364.917 272.206H360.46L344.306 256.668Z" stroke="white" stroke-width="0.931422" stroke-miterlimit="10"/>
<path d="M317.063 428.321L339.503 426.654L322.271 407.686L329.529 403.944L358.84 425.191L360.706 429.358L354.685 433.526L391.032 467.072L394.154 463.96L405.069 474.888H360.706L317.063 428.321Z" stroke="white" stroke-width="0.931422" stroke-miterlimit="10"/>
<path d="M304.49 348.266H300V352.756H304.49V348.266Z" stroke="white" stroke-width="0.931422" stroke-miterlimit="10"/>
<path d="M296.408 337.49H291.918V342.878H296.408V337.49Z" stroke="white" stroke-width="0.931422" stroke-miterlimit="10"/>
<path d="M312.572 337.49H308.082V342.878H312.572V337.49Z" stroke="white" stroke-width="0.931422" stroke-miterlimit="10"/>
<path d="M337.717 248.585H333.227V253.974H337.717V248.585Z" stroke="white" stroke-width="1.05843" stroke-miterlimit="10"/>
<path d="M306.282 188.418L251.507 166.944L292.726 150.701L309.878 161.162L306.282 188.418Z" stroke="white" stroke-width="1.05843" stroke-miterlimit="10"/>
<path d="M251.507 166.865L309.491 170.181L353.882 170.457" stroke="white" stroke-width="1.05843" stroke-miterlimit="10"/>
<path d="M308.152 160.568L338.365 148.905L355.678 159.26C355.678 159.26 352.048 185.42 352.048 186.238L307.184 188.418" stroke="white" stroke-width="1.05843" stroke-miterlimit="10"/>
<path d="M241.628 234.217L240.73 262.954" stroke="white" stroke-width="1.05843" stroke-miterlimit="10"/>
<path d="M358.372 237.809V269.24" stroke="white" stroke-width="1.05843" stroke-miterlimit="10"/>
<path d="M404.171 431.148L444.208 462.316L448.174 458.415L412.512 429.089L404.171 431.148Z" stroke="white" stroke-width="1.05843" stroke-miterlimit="10"/>
<path d="M150.928 492.118L148.014 515.299L141.947 489.939L147.455 477.582L150.928 492.118Z" stroke="white" stroke-width="1.05843" stroke-miterlimit="10"/>
<path d="M167.092 493.915L164.47 517.096L159.01 491.735L163.949 479.378L167.092 493.915Z" stroke="white" stroke-width="1.05843" stroke-miterlimit="10"/>
<path d="M184.155 498.424L181.514 521.586L176.072 496.244L181.011 483.869L184.155 498.424Z" stroke="white" stroke-width="1.05843" stroke-miterlimit="10"/>
<path d="M200.319 502.015L197.697 525.178L192.237 499.836L197.194 487.46L200.319 502.015Z" stroke="white" stroke-width="1.05843" stroke-miterlimit="10"/>
<path d="M490.382 509.869L491.543 519.79L493.974 508.918L491.779 503.625L490.382 509.869Z" stroke="white" stroke-width="0.465711" stroke-miterlimit="10"/>
<path d="M482.299 510.204L483.46 520.688L485.891 509.218L483.678 503.625L482.299 510.204Z" stroke="white" stroke-width="0.465711" stroke-miterlimit="10"/>
<path d="M475.115 512.552L476.288 522.484L478.707 511.618L476.505 506.319L475.115 512.552Z" stroke="white" stroke-width="0.465711" stroke-miterlimit="10"/>
<path d="M467.931 513.796L469.104 524.28L471.523 512.81L469.321 507.217L467.931 513.796Z" stroke="white" stroke-width="0.465711" stroke-miterlimit="10"/>
<path d="M476.013 517.994L469.727 519.79" stroke="white" stroke-width="1.05843" stroke-miterlimit="10"/>
<path d="M490.382 514.401L484.993 516.197" stroke="white" stroke-width="1.05843" stroke-miterlimit="10"/>
<path d="M468.487 519.593L463.698 520.688L464.534 511.508L461.397 499.62L450.335 487.306L437.398 486.676L452.209 467.704L466.408 476.457L487.289 475.623L498.778 485.211L502.954 498.99L496.272 503.366L496.68 513.177L492.504 514.123" stroke="white" stroke-width="1.05843" stroke-miterlimit="10"/>
<path d="M483.197 516.198L477.809 517.994" stroke="white" stroke-width="1.05843" stroke-miterlimit="10"/>
<path d="M248.336 195.949L261.942 221.712H282.992V198.036H324.653L333.528 222.543H342.806L354.78 200.104L351.882 188.673L305.674 192.219L247.914 169.559L248.336 195.949Z" stroke="white" stroke-width="0.931422" stroke-miterlimit="10"/>
<path d="M384.414 376.105L421.834 407.658L432.908 445.253" stroke="white" stroke-width="1.05843" stroke-miterlimit="10"/>
</svg>
