<svg width="600" height="600" viewBox="0 0 600 600" fill="none" xmlns="http://www.w3.org/2000/svg">
<path d="M255.125 327L146 425.46C146 446.905 188.753 474.089 210.13 485L289 354.064L255.125 327Z" stroke="#FFAC05" stroke-width="1.03961" stroke-dasharray="6.24 6.24"/>
<path fill-rule="evenodd" clip-rule="evenodd" d="M572.48 300C572.48 450.487 450.487 572.48 300 572.48C149.513 572.48 27.5198 450.487 27.5198 300C27.5198 149.513 149.513 27.5198 300 27.5198C450.487 27.5198 572.48 149.513 572.48 300ZM573 300C573 450.774 450.774 573 300 573C149.226 573 27 450.774 27 300C27 149.226 149.226 27 300 27C450.774 27 573 149.226 573 300ZM220.861 168.97L220.665 168.797L220.493 168.994L171.936 224.835L171.769 225.027L171.957 225.198L228.337 276.453L228.523 276.622L228.698 276.443L242.186 262.685L241.815 262.321L228.502 275.9L172.495 224.985L220.713 169.533L279.343 221.34L279.608 226.577L268.024 234.231L268 234.247L267.98 234.268L255.189 247.591L235.161 229.399L235.141 229.38L235.117 229.366L222.977 222.353L222.785 222.241L222.645 222.414L213.473 233.744L213.333 233.918L213.483 234.083L224.544 246.222L224.551 246.23L224.559 246.238L253.096 272.621L254.353 277.901L251.522 280.94L251.447 281.021L251.453 281.131L251.981 291.111L251.979 291.127L142.169 299.363L113.323 301.527V300.27H107.928V303.506H104.691V306.743H116.021V303.506H113.323V302.048L141.929 299.903V326.625L113.386 327.997L113.322 326.069L116.018 325.979L115.912 322.788L123.344 322.518C125.58 322.437 127.351 320.6 127.351 318.362V310.903C127.351 308.606 125.49 306.744 123.193 306.744H101.296C98.9997 306.744 97.1379 308.606 97.1379 310.903V319.157C97.1379 321.513 99.0929 323.398 101.447 323.313L104.59 323.199L104.695 326.356L107.93 326.248L108.037 329.483L113.43 329.304L113.404 328.517L142.195 327.133H253.914L253.984 327.185L255.573 328.373L252.082 331.365L251.947 331.48L252.006 331.648L255.735 342.301L237.944 364.015V360.966V360.706H237.684H234.177H234.075L234 360.776L200.819 391.799L200.737 391.876V391.989V396.46L176.273 418.773L175.902 419.112L176.393 419.219L184.979 421.097L194.64 427.364L193.811 428.134L191.772 426.4C191.205 425.917 190.376 425.903 189.792 426.366L185.811 429.527H178.63C178.19 429.527 177.77 429.713 177.474 430.04L163.731 445.22C162.747 446.308 162.856 447.994 163.973 448.944L173.541 457.085C174.656 458.034 176.334 457.875 177.251 456.733L196.669 432.556C197.198 431.898 197.107 430.939 196.464 430.392L194.21 428.474L195.068 427.676L200.692 432.515L206.298 437.339L205.067 438.816L201.82 436.227C201.38 435.876 200.741 435.939 200.378 436.369L180.737 459.648C179.783 460.778 179.963 462.475 181.133 463.38L190.675 470.761C191.771 471.61 193.341 471.448 194.241 470.394L207.687 454.655C208.278 453.963 208.464 453.013 208.178 452.149L206.015 445.624L208.113 442.459C208.411 442.01 208.316 441.408 207.895 441.072L205.473 439.141L206.673 437.701L214.259 445.811L216.939 453.045L217.132 453.567L217.408 453.084L234.328 423.541H239.842H239.982L240.059 423.425L263.259 388.355L263.302 388.29V388.212V381.738V381.54L263.112 381.487L258.623 380.241L276.427 356.591L287.059 351.923L287.165 352.003L287.252 352.068L287.35 352.053L295.856 461.607L295.856 461.608L298.019 490.452H296.763V495.847H300V490.452H298.541L296.395 461.848H323.118L324.49 490.39L322.561 490.454L322.471 487.758L319.28 487.864L319.011 480.432C318.93 478.196 317.093 476.425 314.855 476.425H307.395C305.098 476.425 303.237 478.287 303.237 480.583L303.237 487.754H300V499.084H303.237L303.237 502.48C303.237 503.4 303.536 504.251 304.042 504.94C302.863 504.96 301.681 504.97 300.497 504.97C187.57 504.97 96.0238 413.424 96.0238 300.497C96.0238 187.569 187.57 96.0237 300.497 96.0237C413.424 96.0237 504.97 187.569 504.97 300.497C504.97 407.024 423.508 494.524 319.481 504.101C319.711 503.558 319.828 502.958 319.806 502.329L319.691 499.187L322.848 499.082L322.74 495.846L325.976 495.739L325.796 490.347L325.009 490.373L323.625 461.578L323.625 461.575L319.418 347.355L329.711 345.847L329.798 345.835L329.86 345.772L330.567 345.046L335.004 348.376L335.059 348.418L335.127 348.426L340.824 349.159L370.075 374.748L370.084 374.755L370.093 374.762L383.333 384.477L383.513 384.609L383.671 384.451L393.968 374.133L394.125 373.976L393.994 373.797L385.737 362.467L385.72 362.444L385.7 362.426L365.55 344.365L377.39 330.305L377.409 330.283L377.422 330.258L383.141 319.219L389.627 318.172L446.757 370.466L396.712 424.275L340.163 373.962L352.259 359.289L351.858 358.958L339.603 373.824L339.444 374.018L339.63 374.184L396.557 424.832L396.747 425.001L396.92 424.815L447.316 370.628L447.495 370.437L447.302 370.26L390.281 318.066L458.651 307.027L487.485 304.864V306.121H492.88V302.884H496.117V299.647H484.787V302.884H487.485V304.343L458.88 306.489V279.766L487.423 278.394L487.487 280.322L484.791 280.412L484.897 283.603L477.465 283.872C475.228 283.954 473.457 285.79 473.457 288.028V295.488C473.457 297.785 475.319 299.646 477.616 299.646H499.512C501.809 299.646 503.671 297.785 503.671 295.488V287.233C503.671 284.878 501.715 282.992 499.361 283.078L496.219 283.192L496.114 280.035L492.879 280.143L492.771 276.908L487.379 277.087L487.405 277.874L458.608 279.259L458.605 279.259L350.19 285.711L341.961 284.118L339.645 281.03V276.791H343.431H343.691V276.531V274.115L350.155 274.632L350.41 274.652L350.434 274.398L350.955 268.928L353.729 268.424L353.636 267.913L350.669 268.452L350.475 268.487L350.456 268.683L349.941 274.093L343.691 273.593V271.136V271.022L343.608 270.945L329.85 258.266L329.775 258.197H329.674H325.088H324.904L324.842 258.37L323.285 262.783H320.222V260.615V260.355H319.962H316.185H315.926V260.615V262.783H313.171L311.856 254.37L311.827 254.184L311.64 254.154L311.57 254.143L303.25 145.013L303.25 145.012L301.086 116.167H302.343V110.772H299.106V116.167H300.565L302.711 144.772H275.988L274.616 116.23L276.545 116.165L276.634 118.862L279.825 118.756L280.095 126.188C280.176 128.424 282.013 130.195 284.251 130.195H291.711C294.007 130.195 295.869 128.334 295.869 126.037V118.865H299.106V107.535H295.869V104.14C295.869 101.844 294.007 99.9819 291.711 99.9819H283.456C281.1 99.9819 279.215 101.937 279.3 104.291L279.414 107.433L276.258 107.538L276.365 110.773L273.13 110.881L273.309 116.273L274.096 116.247L275.481 145.045L275.481 145.045L279.307 220.614L220.861 168.97ZM279.851 221.095L279.307 220.614L279.343 221.34L279.888 221.821L280.112 226.244L279.608 226.577L279.639 227.18L268.335 234.649L255.574 247.941L255.189 247.591L255.031 247.756L255.406 248.116L255.574 247.941L267.459 258.736H271.944H272.034L272.105 258.792L272.134 258.815L271.723 259.256H267.358H267.258L267.183 259.188L235.422 230.338L235.456 230.297L235.056 229.965L235.037 229.988L234.833 229.803L222.91 222.914L214.018 233.898L223.318 244.105L223.187 244.263L223.587 244.595L223.671 244.493L224.92 245.864L253.507 272.293L253.565 272.347L253.583 272.424L254.779 277.444L254.353 277.901L254.427 278.209L254.443 278.279L254.494 278.331L254.581 278.419L251.977 281.213L252.49 290.887L252.008 290.839L251.981 291.111L251.982 291.127L251.979 291.127L251.957 291.357L251.994 291.361L252.656 303.871L252.006 291.647L142.448 299.864V326.613H253.86L253.88 326.99L253.887 327.112L253.914 327.133H254.14H254.414L254.4 326.859L254.399 326.846L256.596 328.489L256.393 328.672L256.742 329.058L257.02 328.806L282.602 347.941L293.593 336.254L293.785 336.419L293.536 336.438L293.581 337.025L288.341 342.597L287.872 342.654L287.919 343.045L283.021 348.254L287.127 351.325L286.58 351.565L282.477 348.496L255.999 328.692L256.197 328.522L255.859 328.127L255.573 328.373L255.999 328.692L252.555 331.644L256.273 342.267L256.322 342.404L256.229 342.517L237.885 364.907L237.877 364.918L237.876 364.918L222.478 381.789L228.159 395.001L245.123 398.712L257.973 380.241L257.979 380.233L276.053 356.224L276.094 356.169L276.156 356.142L286.58 351.565L287.059 351.923L287.331 351.804L287.331 351.815L287.35 352.053L287.358 352.052L318.608 347.474L318.632 347.547L287.869 352.017L296.356 461.328H323.096L318.904 347.507L318.715 347.535L319.124 347.398L319.418 347.355L319.413 347.199L319.402 346.91L319.115 346.951L318.988 346.97L318.963 346.897L329.549 345.346L330.148 344.731L330.567 345.046L330.933 344.67L335.261 347.92L340.969 348.653L341.047 348.664L341.107 348.716L370.409 374.349L371.904 375.446L371.812 375.541L372.185 375.904L372.328 375.757L383.46 383.926L393.443 373.923L385.333 362.795L385.127 362.611L385.148 362.59L384.775 362.227L384.74 362.263L352.208 333.104L352.172 333.072L352.15 333.029L350.493 329.812L348.285 326.862L348.652 326.485L350.922 329.518L350.936 329.535L350.946 329.554L352.591 332.749L365.163 344.018L364.949 344.272L365.346 344.607L365.55 344.365L365.163 344.018L376.974 329.993L382.502 319.322L383.141 319.219L383.439 318.644L389.138 317.724L389.627 318.172L390.281 318.066L389.792 317.619L458.36 306.547V279.794L350.435 286.217L350.435 285.973V285.758L350.225 285.717L350.19 285.711L350.16 285.713L349.916 285.727V285.972L349.916 286.187L341.763 284.609L341.665 284.59L341.605 284.51L339.429 281.609L339.618 281.232L339.153 281L339.125 281.055V276.531V276.271H339.385H343.172V273.833V271.25L329.572 258.717H325.271L323.714 263.129L323.653 263.303H323.469H319.962H319.702V263.043V260.875H316.445V263.043V263.303H316.185H312.948H312.726L312.711 263.208L313.078 262.997L312.819 262.547L312.625 262.658L311.379 254.681L311.614 254.719L311.589 254.39L311.57 254.143L311.042 254.058L302.75 145.292H276.014L279.851 221.095ZM280.143 226.847L279.639 227.18L280.771 249.544L272.134 258.815L272.544 259.138L272.188 259.519L271.854 259.256H271.723L254.779 277.444L254.915 278.018L254.935 278.038L254.581 278.419L268.343 292.446L252.49 290.887L252.517 291.412L252.514 291.412L252.511 291.354L252.497 291.089L252.232 291.108L251.982 291.127L251.994 291.361L252.514 291.412L253.176 303.85L253.485 309.68L253.135 310.079L253.524 310.42L253.815 315.926H253.6V316.446H253.843L254.103 321.36L253.621 321.322L253.599 321.597L252.656 303.871L253.597 321.629L253.58 321.84L253.608 321.843L253.86 326.613H253.866L253.612 321.843L254.131 321.884L254.393 326.841L254.399 326.846L254.135 321.884L263.119 322.593L256.596 328.489L257.02 328.806L270.682 316.458L293.593 336.254L293.606 336.24C293.704 336.136 293.869 336.131 293.973 336.229C294.023 336.276 294.051 336.339 294.055 336.403L294.054 336.398L293.785 336.419L293.987 336.594L293.984 336.596L293.581 337.025L294.615 350.464L289.434 351.223L288.388 342.592L288.341 342.597L287.919 343.045L288.92 351.298L287.39 351.522L287.285 351.444L287.216 351.286L287.127 351.325L287.285 351.444L287.34 351.568L287.313 351.572L287.331 351.804L287.425 351.762L287.34 351.568L287.553 351.537L288.925 351.338L288.951 351.556L289.467 351.494L289.439 351.263L297.25 350.128L297.494 350.351L297.767 350.053L318.465 347.046L318.608 347.474L319.124 347.398L319.13 347.396L318.988 346.97L318.465 347.046L318.441 346.973L318.963 346.897L314.268 332.81L330.148 344.731L330.514 344.356L330.933 344.67L348.285 326.862L347.969 326.441L348.336 326.064L348.652 326.485L350.362 324.73L350.435 324.654V324.549V324.5L382.502 319.322L382.8 318.747L383.439 318.644L385.595 314.482L389.138 317.724L389.792 317.619L385.696 313.869L385.446 313.64L385.29 313.941L382.8 318.747L350.435 323.973L350.435 324.5L350.217 324.535L349.916 324.584L349.916 324.443L348.336 326.064L335.368 308.746L335.143 308.915L331.037 298.394L339.429 281.609L339.177 281.273L339.125 281.204V281.117V281.055L330.668 297.969L298.833 271.175L312.711 263.208L312.691 263.083L312.625 262.658L298.312 270.875H287.41L272.544 259.138L281.201 249.845L311.289 254.667L311.379 254.681L311.372 254.637L281.212 249.833L281.201 249.845L280.991 249.811L280.783 249.778L280.772 249.568L280.771 249.544L280.926 249.378L281.02 249.276L281.157 249.298L281.28 249.318L281.281 249.331L311.046 254.101L311.042 254.058L281.28 249.318L280.143 226.847ZM280.143 226.847L280.112 226.244L282.848 224.437L279.888 221.821L279.851 221.095L283.446 224.272L283.7 224.496L283.417 224.683L280.143 226.847ZM287.431 270.995L287.482 270.931L287.41 270.875H286.781V271.04L272.188 259.519L254.935 278.038L268.811 292.181L268.468 292.573L268.453 292.559L268.463 292.458L268.343 292.446L268.453 292.559L268.45 292.594L268.139 292.949L252.517 291.412L253.176 303.85L253.486 309.679L253.485 309.68L253.524 310.42L253.525 310.421L253.818 315.926H253.815L253.843 316.446H253.846L254.107 321.361L254.103 321.36L254.131 321.884L254.135 321.884L254.107 321.361L263.649 322.114L263.119 322.593L263.831 322.65L263.872 322.131L263.649 322.114L269.92 316.446H270.595C270.617 316.446 270.638 316.443 270.659 316.438L270.682 316.458L270.767 316.382C270.821 316.334 270.855 316.264 270.855 316.186C270.855 316.042 270.739 315.926 270.595 315.926H270.066L263.412 310.177L263.224 310.015L263.378 309.82L272.28 298.49L272.449 298.274L272.655 298.455L287.255 311.229L286.918 311.625L272.519 299.026L263.94 309.946L297.284 338.756L306.639 328.881L287.309 311.968L287.646 311.572L294.601 317.657L294.4 317.914L294.809 318.234L294.993 318L307.185 328.668L307.388 328.846L307.202 329.043L297.491 339.294L297.32 339.474L297.132 339.311L294.075 336.67L294.055 336.403C294.059 336.47 294.036 336.54 293.987 336.594L294.075 336.67L295.13 350.388L294.615 350.464L294.615 350.466L295.133 350.426L295.13 350.388L297.202 350.085L297.25 350.128L297.767 350.053L297.821 349.994L318.441 346.973L313.673 332.67L313.839 332.488L314.268 332.81L314.075 332.231L314.192 332.103L330.514 344.356L347.969 326.441L335.201 309.39L335.311 309.346L335.222 309.119L335.26 309.078L335.176 309L335.143 308.915L335.109 308.939L334.877 308.727L334.621 309.007L330.535 298.537L298.286 271.395H287.708L287.786 271.306L287.431 270.995ZM287.104 271.295L287.395 270.964L287.431 270.995L287.16 271.339L287.104 271.295ZM287.017 271.395H286.781V271.04L287.104 271.295L287.017 271.395ZM287.017 271.395H287.708L253.526 310.422L253.525 310.421L253.486 309.679L268.139 292.949L268.412 292.975L268.45 292.594L268.468 292.573L268.522 292.628L268.893 292.264L268.811 292.181L287.017 271.395ZM334.849 309.527L334.827 309.535L334.621 309.007L297.11 350L297.202 350.085L297.821 349.994L313.673 332.67L313.511 332.184L313.756 332.103L313.601 332.309L313.839 332.488L314.075 332.231L314.004 332.02L313.756 332.103L313.913 331.893L314.192 332.103L334.849 309.527ZM335.099 309.254L335.201 309.39L334.849 309.527L335.099 309.254ZM335.099 309.254L335.222 309.119L335.176 309L335.109 308.939L334.952 309.057L335.099 309.254ZM300.04 311.812L299.637 312.065L294.993 318L294.601 317.657L299.256 311.709L299.284 311.673L299.322 311.649L299.647 311.445L300.04 311.812ZM300.496 311.526L300.04 311.812L308.995 320.152L309.178 320.323L309.356 320.146L318.797 310.704L318.99 310.511L318.788 310.327L311.927 304.12L316.635 299.648L316.838 299.456L316.63 299.268L302.063 286.049L301.864 285.869L301.69 286.073L297.469 291.039L290.463 284.7L290.271 284.526L290.097 284.717L281.464 294.159L281.29 294.349L281.479 294.524L292.634 304.914L287.255 311.229L287.646 311.572L293.015 305.269L299.647 311.445L300.102 311.159L300.496 311.526ZM311.55 304.479L318.237 310.529L309.165 319.601L300.496 311.526L311.199 304.806L311.221 304.792L311.239 304.774L311.55 304.479ZM311.163 304.13L310.9 304.379L300.102 311.159L293.353 304.873L293.454 304.754L293.488 304.714L293.504 304.663L297.526 291.792L311.163 304.13ZM311.541 303.771L311.163 304.13L311.55 304.479L311.927 304.12L311.541 303.771ZM297.855 291.388L297.535 291.765L297.526 291.792L297.133 291.435L297.469 291.039L297.855 291.388ZM292.972 304.518L282.022 294.32L290.306 285.259L297.133 291.435L297.104 291.469L297.07 291.509L297.054 291.559L293.024 304.457L292.972 304.518ZM292.972 304.518L292.634 304.914L293.015 305.269L293.353 304.873L292.972 304.518ZM297.855 291.388L311.541 303.771L316.074 299.464L301.913 286.615L297.855 291.388ZM287.309 311.968L286.918 311.625L286.854 311.701L287.249 312.038L287.309 311.968ZM270.286 316.116L270.421 315.993L270.77 316.379L270.767 316.382C270.736 316.408 270.699 316.428 270.659 316.438L270.286 316.116ZM270.286 316.116L269.92 316.446H253.846L253.818 315.926H270.066L270.286 316.116ZM289.439 351.263L289.434 351.223L288.92 351.298L288.925 351.338L289.439 351.263ZM253.612 321.843L253.599 321.597L253.597 321.629L253.608 321.843L253.612 321.843ZM384.74 362.263L371.904 375.446L372.328 375.757L385.127 362.611L384.74 362.263ZM318.715 347.535L318.632 347.547L318.637 347.561L318.715 347.535ZM223.671 244.493L235.422 230.338L235.037 229.988L223.318 244.105L223.671 244.493ZM295.869 107.535V118.865H295.869V107.535H295.869ZM279.414 107.433L279.825 118.756L279.87 118.754L279.493 107.43L279.414 107.433ZM274.096 116.247L274.616 116.23L274.547 114.806L274.028 114.831L274.096 116.247ZM300.565 116.167H301.086L300.984 114.799L300.465 114.838L300.565 116.167ZM487.405 277.874L487.423 278.394L488.846 278.325L488.821 277.806L487.405 277.874ZM487.485 304.343L488.814 304.243L488.853 304.762L487.485 304.864V304.343ZM319.199 504.648C423.648 495.202 505.49 407.407 505.49 300.497C505.49 187.282 413.712 95.5039 300.497 95.5039C187.283 95.5039 95.504 187.282 95.504 300.497C95.504 413.711 187.283 505.49 300.497 505.49C301.83 505.49 303.16 505.477 304.487 505.452C305.237 506.186 306.263 506.638 307.395 506.638H315.65C317.156 506.638 318.469 505.84 319.199 504.648ZM319.199 504.648C319.306 504.474 319.4 504.291 319.481 504.101C314.386 504.57 309.238 504.852 304.042 504.94C304.176 505.123 304.325 505.294 304.487 505.452C309.436 505.357 314.342 505.088 319.199 504.648ZM319.691 499.187L319.612 499.189L319.236 487.865L319.28 487.864L319.691 499.187ZM325.009 490.373L324.49 490.39L324.558 491.814L325.077 491.789L325.009 490.373ZM298.541 490.452H298.019L298.122 491.821L298.64 491.782L298.541 490.452ZM205.473 439.141L202.815 442.331L202.415 441.998L205.067 438.816L205.473 439.141ZM194.21 428.474L191.462 431.025L191.108 430.644L193.811 428.134L194.21 428.474ZM104.59 323.199L115.912 322.788L115.911 322.744L104.587 323.12L104.59 323.199ZM113.404 328.517L113.386 327.997L111.963 328.066L111.988 328.585L113.404 328.517ZM113.323 303.506H107.928V303.507H113.323V303.506ZM113.323 302.048L111.994 302.148L111.956 301.629L113.323 301.527V302.048ZM484.897 283.603L496.219 283.192L496.222 283.271L484.898 283.647L484.897 283.603ZM222.093 382.211L206.854 398.908L206.734 399.039L206.569 398.976L201.053 396.875L176.994 418.818L185.136 420.599L185.182 420.61L185.222 420.635L195.203 427.11L195.218 427.119L195.231 427.131L200.818 431.938L227.675 395.192L222.093 382.211ZM228.083 395.516L201.213 432.278L206.831 437.112L206.842 437.121L206.851 437.131L214.674 445.494L214.71 445.532L214.728 445.581L217.233 452.344L233.894 423.253L232.042 417.698L232.001 417.575L232.076 417.468L244.802 399.173L228.083 395.516ZM234.365 423.021H239.703L262.782 388.134V381.935L258.294 380.689L245.451 399.151L232.577 417.658L234.365 423.021ZM201.256 396.396L206.589 398.427L221.981 381.563L237.424 364.642V361.226H234.28L201.256 392.102V396.396ZM235.219 242.156L235.431 242.347L255.393 260.421L255.596 260.605L255.402 260.798L253.514 262.686L253.339 262.861L253.156 262.695L233.463 244.891L233.287 244.732L233.43 244.542L235.048 242.384L235.219 242.156ZM235.293 242.924L233.988 244.664L253.321 262.144L254.842 260.624L235.293 242.924ZM372.795 363.526L373.008 363.716L372.799 363.91L370.824 365.748L370.651 365.909L370.474 365.751L350.688 348.05L350.504 347.886L350.659 347.693L352.337 345.616L352.509 345.404L352.713 345.586L372.795 363.526ZM370.644 365.206L372.236 363.724L352.57 346.155L351.219 347.828L370.644 365.206ZM300.303 539.872C432.613 539.872 539.872 432.614 539.872 300.303C539.872 167.993 432.613 60.7342 300.303 60.7342C167.993 60.7342 60.7339 167.993 60.7339 300.303C60.7339 432.614 167.993 539.872 300.303 539.872ZM300.303 540.392C432.9 540.392 540.392 432.901 540.392 300.303C540.392 167.706 432.9 60.2144 300.303 60.2144C167.706 60.2144 60.2141 167.706 60.2141 300.303C60.2141 432.901 167.706 540.392 300.303 540.392ZM299.209 426.798H299.46H316.995H317.231L317.253 427.034L320.221 458.056L320.248 458.341H319.962H298.381H298.112L298.121 458.072L299.2 427.049L299.209 426.798ZM299.711 427.318L298.65 457.821H319.676L316.758 427.318H299.711ZM298.651 369.069H298.382L298.391 369.338L299.74 409.802L299.748 410.053H299.999H302.967H303.235L303.226 409.785L301.878 369.32L301.869 369.069H301.618H298.651ZM300.251 409.534L298.919 369.589H301.367L302.698 409.534H300.251ZM307.284 368.799H307.553H310.52H310.772L310.78 369.05L312.129 409.515L312.138 409.783H311.869H308.902H308.65L308.642 409.532L307.293 369.068L307.284 368.799ZM307.822 369.319L309.153 409.264H311.6L310.269 369.319H307.822ZM423.831 304.503V287.86V287.639L424.05 287.604L455.072 282.665L455.373 282.617V282.922V304.503V304.763H455.113H424.091H423.831V304.503ZM424.35 304.243H454.853V283.226L424.35 288.082V304.243ZM366.101 305.852V306.12L366.37 306.111L406.834 304.763L407.086 304.754V304.503V301.535V301.267L406.817 301.276L366.353 302.624L366.101 302.633V302.884V305.852ZM406.566 304.251L366.621 305.583V303.136L406.566 301.804V304.251ZM365.832 297.217V296.949V293.981V293.73L366.083 293.722L406.547 292.373L406.816 292.364V292.633V295.6V295.851L406.565 295.86L366.1 297.208L365.832 297.217ZM366.351 296.68L406.296 295.349V292.901L366.351 294.233V296.68ZM492.88 302.884H487.485V302.884H492.88V302.884ZM299.982 179.822H299.73H282.465H282.232L282.207 179.589L278.885 148.567L278.854 148.279H279.144H300.725H300.993L300.984 148.547L299.99 179.57L299.982 179.822ZM299.478 179.302L300.456 148.799H279.433L282.699 179.302H299.478ZM300.455 237.551H300.724L300.715 237.282L299.366 196.818L299.358 196.567H299.106H296.139H295.87L295.879 196.835L297.228 237.3L297.236 237.551H297.488H300.455ZM298.855 197.086L300.186 237.031H297.739L296.407 197.086H298.855ZM291.822 237.821H291.553H288.586H288.334L288.326 237.57L286.977 197.105L286.968 196.837H287.237L290.204 196.837H290.456L290.464 197.088L291.813 237.552L291.822 237.821ZM291.284 237.301L289.953 197.357H287.505L288.837 237.301H291.284ZM176.978 301.629V301.888V321.581V321.826L176.734 321.841L145.711 323.729L145.436 323.746V323.469V301.888V301.629H145.695H176.718H176.978ZM176.458 302.148H145.955V323.193L176.458 321.337V302.148ZM234.707 302.158V301.889L234.439 301.898L193.974 303.247L193.723 303.256V303.507V306.474V306.743L193.991 306.734L234.456 305.385L234.707 305.377V305.126V302.158ZM194.243 303.758L234.187 302.427V304.874L194.243 306.206V303.758ZM234.977 310.791V311.06V314.027V314.279L234.725 314.287L194.261 315.636L193.992 315.645V315.376V312.409V312.158L194.244 312.149L234.708 310.8L234.977 310.791ZM234.457 311.329L194.512 312.66V315.108L234.457 313.776V311.329Z" fill="white"/>
</svg>
