<svg width="437" height="233" viewBox="0 0 437 233" fill="none" xmlns="http://www.w3.org/2000/svg">
<path d="M88.8718 231.231C137.402 231.231 176.744 191.889 176.744 143.359C176.744 94.8288 137.402 55.4873 88.8718 55.4873C40.3415 55.4873 1 94.8288 1 143.359C1 191.889 40.3415 231.231 88.8718 231.231Z" stroke="#92702C" stroke-width="2" stroke-miterlimit="10"/>
<path d="M88.8718 166.282C101.532 166.282 111.795 156.019 111.795 143.359C111.795 130.699 101.532 120.436 88.8718 120.436C76.2117 120.436 65.9487 130.699 65.9487 143.359C65.9487 156.019 76.2117 166.282 88.8718 166.282Z" stroke="#92702C" stroke-width="2" stroke-miterlimit="10"/>
<path d="M104.154 128.077H173.131H895V158.641H173.21H104.703" stroke="#92702C" stroke-width="2" stroke-miterlimit="10"/>
<path d="M230.231 128.077L261.237 57.1636L778.276 2L837.692 128.077" stroke="#92702C" stroke-width="2" stroke-miterlimit="10"/>
</svg>
