<svg width="437" height="233" viewBox="0 0 437 233" fill="none" xmlns="http://www.w3.org/2000/svg">
<path d="M348.128 231.231C299.598 231.231 260.256 191.889 260.256 143.359C260.256 94.8288 299.598 55.4873 348.128 55.4873C396.658 55.4873 436 94.8288 436 143.359C436 191.889 396.658 231.231 348.128 231.231Z" stroke="#92702C" stroke-width="2" stroke-miterlimit="10"/>
<path d="M348.128 166.282C335.468 166.282 325.205 156.019 325.205 143.359C325.205 130.699 335.468 120.436 348.128 120.436C360.788 120.436 371.051 130.699 371.051 143.359C371.051 156.019 360.788 166.282 348.128 166.282Z" stroke="#92702C" stroke-width="2" stroke-miterlimit="10"/>
<path d="M332.846 128.077H263.869H-458V158.641H263.79H332.297" stroke="#92702C" stroke-width="2" stroke-miterlimit="10"/>
<path d="M206.769 128.077L175.763 57.1636L-341.276 2L-400.692 128.077" stroke="#92702C" stroke-width="2" stroke-miterlimit="10"/>
</svg>
