<?xml version="1.0" encoding="UTF-8"?>
<svg id="Layer_2" data-name="Layer 2" xmlns="http://www.w3.org/2000/svg" viewBox="0 0 2109.86 433.71">
  <g id="Layer_1-2" data-name="Layer 1">
    <g>
      <g>
        <path d="m0,103.66c.94-.15,1.89-.43,2.83-.43,21.64-.02,43.27-.02,64.91-.01.63,0,1.26.11,2.34.22v82.71c1.54-.7,2.49-1.12,3.42-1.57,76.98-37.26,167.8,7.36,185.32,91.04,14.88,71.04-33.35,142.1-104.7,154.29-69.6,11.89-134.5-30.84-150.45-99.26-1.67-7.19-2.11-14.66-3.09-22.01C.33,306.85.19,305.04,0,303.24,0,236.71,0,170.18,0,103.66Zm190.1,197.91c-.06-32.66-26.51-59.06-59.19-59.06-32.87,0-59.34,26.46-59.29,59.28.05,32.68,26.46,59.03,59.18,59.04,32.89.01,59.36-26.44,59.3-59.26Z"/>
        <path d="m566.46,433.71c-.15-1.37-.43-2.75-.44-4.12-.02-42.72-.02-85.45-.02-128.17,0-51.81,31.49-99.32,79.27-119.6,76.29-32.38,162.9,13.08,179.26,94.29,1.67,8.27,2.45,16.85,2.5,25.3.25,42.72.12,85.45.1,128.17,0,1.38-.25,2.76-.38,4.14h-70.4c-.18-1.36-.52-2.72-.52-4.07-.03-42.82.03-85.65-.04-128.47-.05-30.64-24.2-56.43-54.68-58.56-34.81-2.44-63.71,24.56-63.71,59.53,0,42.5,0,85-.02,127.5,0,1.36-.34,2.72-.52,4.07h-70.4Z"/>
        <path d="m1145.19,433.71c-.06-1.39-.19-2.79-.19-4.18,0-77.46,0-154.93,0-232.39v-4.11h69.7c0,1.2,0,2.36,0,3.51,0,77.79,0,155.57-.02,233.36,0,1.27-.25,2.54-.38,3.82h-69.11Z"/>
        <path d="m1045.69,186.22v-82.81h69.4c.1.88.26,1.7.26,2.51,0,65.56.38,131.12-.12,196.67-.48,64.04-46.07,116.86-109.17,127.72-69.52,11.96-137.58-35.82-149.68-105.09-12.2-69.82,30.95-135.04,100.08-150.71,29.67-6.72,58.35-3.06,85.79,10.13.94.45,1.9.87,3.43,1.58Zm-1.67,115.6c.1-32.5-26.26-59.15-58.63-59.31-33.15-.16-59.8,26.11-59.88,59.03-.07,32.68,26.23,59.14,58.95,59.29,32.88.15,59.46-26.18,59.56-59.01Z"/>
        <path d="m534.24,431.81h-69.68v-13.9c-6.78,2.65-13.14,5.49-19.73,7.66-74.82,24.62-154.88-23.09-168.9-100.57-13.03-72.01,36.27-141.26,108.28-152.13,68.63-10.36,132.38,33.18,147.73,100.95,2.97,13.11,3.67,26.39,2.43,39.78-.13,1.39-.13,2.79-.13,4.19,0,36.6,0,73.19,0,109.79v4.24Zm-129.8-70.98c32.69,0,59.22-26.4,59.29-59.01.08-32.72-26.52-59.3-59.34-59.31-32.62,0-59.23,26.47-59.33,59.03-.09,32.69,26.55,59.29,59.37,59.29Z"/>
        <path d="m1678.42,197.51c-58.41,57.46-56.98,152.17-.06,208.19-38.01,31.66-111.3,41.48-165.68-6.71-54.91-48.66-58.28-134.85-7.28-187.59,51.95-53.71,129.4-49.05,173.02-13.9Z"/>
        <path d="m1417.81,259.38c-26.06-24.76-64.08-20.81-85.33,2.11-20.5,22.11-20.84,56.82-.82,79.46,20.82,23.55,59.97,28.24,86.21,3.02,16.6,16.68,33.2,33.35,49.81,50.04-40.67,43.38-120.11,54.96-176.98,6.29-57.38-49.11-60.65-137.4-6.77-190.91,53.74-53.37,137.2-48.08,183.82-.21-16.6,16.68-33.19,33.37-49.94,50.2Z"/>
        <path d="m1935.02,221.69h-19.41v-50.15h19.28v-68.13h69.71v67.8h61.08v50.48h-59.5v3.74c0,24.97-.01,49.94,0,74.9.02,31.47,21.53,56.07,52.64,60.18,2.21.29,4.47.3,6.89.45v70.86c-10.7.35-21.02-1.02-31.17-3.51-51.09-12.52-89.63-54.14-97.92-105.92-1.08-6.77-1.5-13.7-1.55-20.56-.18-25.29-.07-50.58-.07-75.87v-4.28Z"/>
        <path d="m1781.95,170.95c72.15-.03,130.69,58.47,130.76,130.67.07,72.12-58.5,130.74-130.65,130.76-72.31.02-131.1-58.65-131.07-130.8.03-71.95,58.83-130.6,130.95-130.63Zm-1.33,253.18c68.48-.06,123.7-54.33,124.18-121.09.51-71.29-58.02-123.68-126.33-123.93-51.59-.19-118.79,44.85-119.3,122.16-.43,64.42,51.22,122.31,121.44,122.86Z"/>
        <path d="m1179.93,174.31c-19.67.07-35.56-15.62-35.75-35.31-.19-19.6,15.96-35.81,35.67-35.79,19.56.02,35.6,16.03,35.63,35.54.02,19.56-15.9,35.48-35.54,35.56Z"/>
        <path d="m1663.71,305.28c3.57,0,6.25,0,8.93,0,6.48,0,7.97-.64,7.66-3.69-.34-3.33-.85-3.76-7.83-3.55-2.67.08-5.34.01-8.61.01,1.47-38.31,18.2-68.11,47.98-91.06,34.6-26.66,86.86-30.98,125.13-9.31,37.5,21.23,64.96,64.16,62.54,100.37-3.56,0-7.17-.04-10.78.02-1.16.02-2.66-.09-3.38.56-1.12,1.01-2.33,2.64-2.28,3.97.03.9,2.06,2.32,3.33,2.49,2.97.39,6.01.17,9.03.19,1.27,0,2.54,0,4.76,0-.69,6.59-.75,12.95-2.09,19.04-9.74,44.24-43.87,85.08-96.02,93.49-44.93,7.24-83.02-6.67-112.17-42.57-12.49-15.39-21.37-32.49-24.41-52.27-.88-5.69-1.18-11.48-1.79-17.69Zm15.16,11.66c0,1.33-.08,2.3.02,3.25.2,1.92.36,3.87.79,5.75,5.55,24.1,19.23,43.28,38.15,58.26,23.04,18.25,49.82,25.82,79.06,20.8,44.01-7.55,72.14-33.87,86.2-75.76,1.3-3.87,1.52-8.11,2.23-12.1-9.03-2.36-13.69-7.25-14.1-14.23-.44-7.51,3.68-12.89,12.13-16.12.73-.28,1.55-1.77,1.43-2.55-.64-4.13-1.19-8.33-2.47-12.28-8.95-27.57-26.35-48.16-51.68-62.17-8.22-4.55-16.64-8.75-25.9-10.45-42.84-7.89-78.07,5.62-105.58,38.95-10.5,12.72-17.94,27.27-20.18,44.02-.38,2.81-.07,4.31,3.04,5.43,9.67,3.49,13.39,13.16,8.55,21.27-2.63,4.4-6.49,7.07-11.68,7.94Z"/>
        <path d="m1801.71,390.08c-.62,1.32-1.25,2.62-1.85,3.95-.49,1.08-.7,2.37-1.44,3.22-2.96,3.42-7.14,1.52-10.75,2.13-.81.14-2.22-1.23-2.79-2.23-1.17-2.03-1.96-4.28-3.22-7.17-1.29,3.73-2.37,6.85-3.52,10.17-3.94-.63-7.77-1.13-11.54-1.91-.83-.17-1.68-1.14-2.15-1.96-1.01-1.76-1.78-3.66-2.95-6.15-.63,1.34-1.2,2.18-1.41,3.1-.69,2.97-2.4,3.67-5.2,2.8-12.54-3.89-24.33-9.34-34.37-17.89-3.79-3.23-6.7-7.48-10.23-11.52,0,0-.7.56-1.45,1.15-1.8-2.36-3.74-4.43-5.09-6.84-.8-1.43-1.48-3.89-.79-5.02,3.35-5.5.43-9.8-2.08-14.63-1.26,3.18-2.42,6.1-3.64,9.19-5.15-4.55-7.4-13.3-4.57-18.64,1.98-3.74,2.46-7.02.42-10.86-.62-1.17-.25-3.3.4-4.63,1.5-3.04,3.46-5.86,5.41-9.05.58,1.55,1,2.66,1.45,3.87,5.08-4.2,5.24-11.17.61-18.44-.61.93-1.19,1.81-2.14,3.26-2.31-3.65-4.65-6.93-6.45-10.47-.48-.95.44-2.86,1.13-4.1,1.45-2.59,1.57-4.99,0-7.54-.61-1-1.06-2.12-1.42-3.24-.56-1.77-1.82-3.89-1.31-5.34,1.39-3.94,2.26-8.36,6.34-11.25,1.44,2.55,2.79,4.93,4.18,7.38,3.82-5.95,4.09-7.3,1.85-13.38-1.03-2.78-.65-4.98,1.51-6.97,1.03-.94,1.95-2,2.89-3.04,1.19-1.32,2.37-2.43,3.86.31,1.5-6.44,5.3-10.54,10.07-13.9,3.17-2.23,6.18-4.73,9.56-6.57,3.58-1.95,7.54-3.19,11.28-4.87,3.77-1.7,7.33-3.97,11.23-5.23,4.7-1.52,4.81-1.17,6.69,3.33.33.78.71,1.54,1.34,2.88.93-2.23,1.89-3.95,2.35-5.79.62-2.53,2.25-3.49,4.58-3.61,2.36-.13,4.79-.45,7.07-.03,1.25.23,2.57,1.66,3.27,2.88,1.1,1.9,1.7,4.08,2.51,6.14.29,0,.57.01.86.02.86-2.34,1.78-4.67,2.54-7.04.48-1.5,1.19-2.47,2.93-2.2.31.05.64,0,.97-.02,8.91-.27,9.19-.07,11.97,8.06.19.56.44,1.11,1.05,2.61,1.4-3.15,2.45-5.5,3.64-8.19,2.79.82,5.58,1.53,8.29,2.46,11.64,3.95,22.25,9.83,31.5,17.87,3,2.61,5.05,6.3,7.7,9.71.21-.18.69-.58,1.34-1.13,2.2,2.81,4.5,5.5,6.45,8.42.55.82.49,2.56,0,3.49-2.83,5.33-1.1,9.94,2.18,15.03,1.27-3.27,2.39-6.13,3.53-9.07,6.09,5.61,7.55,12.21,4.18,19.08-1.5,3.06-2.09,5.79-.2,9.1.84,1.47.42,4.17-.35,5.91-1.35,3.07-3.4,5.84-5.17,8.76-.6-.92-1.36-2.07-2.12-3.24-4.44,5.71-4.47,8.82-.09,17.39.44-.49.84-.89,1.19-1.34.32-.41.59-.87,1.18-1.77,2.31,3.51,4.54,6.71,6.5,10.06.4.68.02,2.06-.4,2.92-2.03,4.14-2.61,7.97.48,12.07,1.11,1.48,1.52,4.27.97,6.06-1.2,3.89-3.22,7.53-4.91,11.27-.36-.08-.71-.15-1.07-.23-1.09-2.64-2.18-5.28-3.27-7.93-3.87,2.94-5.03,8.08-2.99,12.96,1.61,3.84-1.98,11.19-6,12.06-.55.12-1.28-.59-2.12-1.01-3.72,9.71-11.52,15.5-20.12,20.36-2.74,1.55-6,2.16-9.01,3.22-.55.19-1.29.32-1.58.73-3.62,5-9.17,5.57-14.59,6.31-.7.1-1.86-.75-2.27-1.47-.83-1.46-1.29-3.13-1.9-4.71-.3-.02-.6-.04-.9-.06Zm-50.26-170.58c-4.25,5.01-4.36,14.18-.05,19.1,4.14-6.32,5.21-12.67.05-19.1Zm-30.25,121.6c-4.55,6.9-4.58,12.64-.25,18.57,4.73-5.11,4.9-12.63.25-18.57Zm121.33-78.76c4.92-8.9,4.8-12.77-.5-18.14-3.84,6.07-4.58,12.09.5,18.14Zm-70.77,24.33c4.42-5.81,4.33-13.09-.08-18.69-4.55,6.5-4.58,13.02.08,18.69Zm50.56-24.45c4.55-7.01,4.37-14.45-.31-18.54-3.49,6.14-5.36,12.27.31,18.54Zm-50.7-42.99c-4.53,6.79-4.49,13.54.11,18.36,4.18-5.43,4.12-14.79-.11-18.36Zm19.8.18q-3.97,9.38.15,18.31c5.85-8.26,5.92-9.71-.15-18.31Zm60.95,67.26c4.82-5.42,4.82-11.86.18-18.51-4.28,5.74-4.4,12.57-.18,18.51Zm-120.88,30.78c-5.6,6.73-5.56,11.87.03,17.22,4.41-5.6,4.05-11.31-.03-17.22Zm90.71,42.45c4.41-5.48,4.35-14.2-.12-18.61-4.64,6.15-4.08,12.31.12,18.61Zm-70.14,6.23c-5.39,5.46-5.63,11.27-.77,18.03,4.25-4.3,4.49-10,.77-18.03Zm19.62,18.23c4.5-5.4,4.4-13.57-.05-18.56-4.45,6.71-4.48,12.34.05,18.56Zm-40.63-97.75c4.94-5.63,4.99-10.73.2-18.11-4.84,7.31-4.88,11.06-.2,18.11Zm121.4,49c4.58-6.1,4.38-14.83-.16-18.64-4.42,6.11-4.11,12.28.16,18.64Zm-80.7.03c4.33-7.09,4.26-13.34-.04-18.78-4.5,6.17-4.55,12.54.04,18.78Zm61.03-18.44c-5.4,6.24-5.53,9.42-.89,18.19,4.19-3.48,4.54-10.01.89-18.19Zm9.4,42.02c5.65-7.26,5.54-12.38-.15-17.26-4.01,5.66-4.1,11.42.15,17.26Zm-60.06-114.95c-5.4,6.63-5.37,11.66.1,17.86,3.64-5.91,4.28-11.88-.1-17.86Zm-.02,97.56c-5.71,6.31-5.63,12.47.07,17.25,4.08-5.66,4.02-11.45-.07-17.25Zm-40.92-79.6c5.8-9.06,5.42-9.78-.13-18.01-4.4,5.92-3.89,11.98.13,18.01Zm91.54,121.73c4.2-8.7,4.17-11-.17-17.71-5.62,7.76-6.02,9.03.17,17.71Zm-40.46.29c1.21-2.74,2.36-5.23,3.4-7.76.27-.65.54-1.55.3-2.11-1.23-2.89-2.63-5.71-4.2-9.07-4.36,9.27-4.14,14.39.5,18.94Zm49.97-73.9c5.7-7.03,5.59-12.31-.23-17.22-3.64,5.68-4.5,11.41.23,17.22Zm-20.08-18.24c-4.2,8.68-4.08,14.76.24,18.84,4.18-6.12,4.16-12.5-.24-18.84Zm-30.69,42.68c5.9-7.21,6.2-9.67-.01-17.49-4.21,8.17-4.2,9.64.01,17.49Zm11.06-73.2c4.22-7.31,4.01-12.52-.73-17.95-4.71,7.17-4.49,12.51.73,17.95Zm29.82,7.13c-4.92,5.93-4.67,11.99-.17,17.98,4.56-5.9,5.02-11.92.17-17.98Zm-91.33,41.7c5.71-6.73,5.64-12.38-.08-17.28-4.34,5.64-3.79,11.38.08,17.28Zm41.23-17.53c-5.87,7.28-5.82,12.2-.04,17.41,4.26-7.88,4.26-8.46.04-17.41Zm-60.77-.54c-4.5,5.47-4.62,14.07-.3,18.55,3.92-6.06,4.66-12.15.3-18.55Zm39.67-30.17c5.25-5.41,5.21-13.69-.1-17.96q-3.93,9.26.1,17.96Zm-20.16,97.02c5.45-5.51,5.44-10.99-.03-17.3-4.17,5.75-4.15,11.56.03,17.3Zm-9.48-121.46c4.3-7.14,4.23-12.46-.22-18.02-4.71,6.05-4.63,12.02.22,18.02Zm-10.24,24.66c3.08-5.7,4.85-11.05,1.19-16.78-.31-.48-.82-.95-1.35-1.13-.23-.08-.83.52-1.07.92-3.42,5.65-3.11,11.16,1.22,17Zm90.77,54.99c-4.63,5.91-3.99,11.67-.32,17.53,5.11-4.67,5.22-11.66.32-17.53Zm-.06-48.84c-4.04,6-4.51,11.77-.08,17.6,4.98-6.04,4.99-11.54.08-17.6Zm.27-30.8c4.56-7.13,4.41-12.86-.46-17.77-4.41,7.73-4.3,11.92.46,17.77Zm-50.52,121.61c4.42-6.59,4.2-13.35-.55-17.51-4.21,8.31-4.08,12.48.55,17.51Zm30.12-72.91c4.88-5.88,4.69-11.04-.47-17.54-4.07,5.79-4.06,11.65.47,17.54Zm-30.68,24.1c5.24-5.43,5.24-12.27.15-17.39-4.49,5.64-3.78,11.42-.15,17.39Zm-9.93,6.07c-4.2,7.72-4.09,13.67.18,18.8,3.62-4.95,3.62-13.77-.18-18.8Zm-40.44.66c-3.94,5.94-4.32,11.8-.1,17.63,4.95-4.94,5.01-11.51.1-17.63Zm20.63,66.48c4.17-5.97,4.33-11.7,0-17.45-4.91,6.07-4.88,11.81,0,17.45Zm-20.47-97.14c4.9-7.41,4.8-11-.33-17.72-4.28,5.82-3.69,11.72.33,17.72Zm91.13,5.55c-4.58,7.03-4.33,16.56.2,18.66,3.38-6.13,3.36-12.26-.2-18.66Zm9.53,74.23c-4.38,8.6-4.12,12.11.93,16.89,5.17-5.73,3.74-11.29-.93-16.89Zm-9.49-25.3c-4.56,5.36-4.51,14,.04,18.84,3.42-6.25,3.57-12.4-.04-18.84Zm30.44-103.69c4.33-5.95,4.45-11.88-.35-17.7-4.61,8.83-4.59,9.63.35,17.7Zm-80.54,48.21c4.6-5.72,3.65-11.42-.65-16.76-4.66,5.76-4.56,11.49.65,16.76Z"/>
      </g>
      <g>
        <path d="m2059.1,59.37h-6.65v17.99h-12.29V26.4h20.06c2.94,0,5.6.33,7.98,1,2.38.67,4.41,1.65,6.09,2.94,1.68,1.3,2.97,2.9,3.87,4.81.9,1.91,1.35,4.13,1.35,6.65,0,1.96-.21,3.71-.63,5.23-.42,1.53-1.02,2.87-1.8,4.03-.78,1.15-1.72,2.16-2.82,3.01-1.1.85-2.31,1.59-3.64,2.22l10.64,20.55v.52h-13.16l-9-17.99Zm-6.65-9.49h7.77c2.33,0,4.09-.61,5.27-1.83,1.18-1.23,1.77-2.94,1.77-5.13s-.6-3.91-1.79-5.16c-1.19-1.25-2.94-1.87-5.25-1.87h-7.77v14Z"/>
        <path d="m2058.56,102.6c-28.29,0-51.3-23.01-51.3-51.3s23.01-51.3,51.3-51.3,51.3,23.01,51.3,51.3-23.01,51.3-51.3,51.3m0-91.68c-22.27,0-40.38,18.11-40.38,40.38s18.12,40.38,40.38,40.38,40.38-18.12,40.38-40.38-18.11-40.38-40.38-40.38"/>
      </g>
    </g>
  </g>
</svg>