<?xml version="1.0" encoding="utf-8"?>
<!-- Generator: Adobe Illustrator 27.4.0, SVG Export Plug-In . SVG Version: 6.00 Build 0)  -->
<svg version="1.1" id="Layer_1" xmlns="http://www.w3.org/2000/svg" xmlns:xlink="http://www.w3.org/1999/xlink" x="0px" y="0px"
	 viewBox="0 0 1593.26 691.13" style="enable-background:new 0 0 1593.26 691.13;" xml:space="preserve">
<style type="text/css">
	.st0{clip-path:url(#SVGID_00000114073753926923684930000005300172601217347478_);}
	.st1{fill:#006C4C;}
	.st2{fill-rule:evenodd;clip-rule:evenodd;fill:#293B91;}
	.st3{fill-rule:evenodd;clip-rule:evenodd;fill:#0EA2E2;}
</style>
<g>
	<defs>
		<rect id="SVGID_1_" x="108.6" y="230.51" width="1376.05" height="230.11"/>
	</defs>
	<clipPath id="SVGID_00000047739233960104038630000000544538617291394492_">
		<use xlink:href="#SVGID_1_"  style="overflow:visible;"/>
	</clipPath>
	<g style="clip-path:url(#SVGID_00000047739233960104038630000000544538617291394492_);">
		<path class="st1" d="M422.23,460c35.64,0,62.98-16.59,62.98-53.15v-0.62c0-30.11-26.73-41.16-49.77-48.85
			c-17.82-6.14-33.49-10.44-33.49-19.66v-0.61c0-6.45,5.84-11.37,17.2-11.37c11.98,0,28.26,5.84,44.54,15.36l17.82-32.26
			c-17.82-11.98-40.56-19.05-61.45-19.05c-33.17,0-60.21,18.74-60.21,52.23v0.61c0,31.95,26.12,42.7,49.16,49.46
			c18.13,5.53,34.1,8.9,34.1,19.04v0.61c0,7.37-6.15,12.29-19.66,12.29c-15.37,0-34.11-6.76-51.92-19.66l-19.97,30.72
			c21.81,17.2,47.62,24.88,70.66,24.88V460z M585.07,460.62c29.8,0,51.91-11.68,67.28-30.72l-26.73-23.66
			c-12.9,11.98-24.27,16.9-39.94,16.9c-20.89,0-35.64-11.06-40.25-32.26h114.59c0.31-4.3,0.62-8.6,0.62-12.28
			c0-46.7-25.19-89.4-80.18-89.4c-47.93,0-81.42,38.71-81.42,85.72v0.61C499.04,425.9,535.6,460.62,585.07,460.62L585.07,460.62z
			 M544.83,361.69c3.69-21.2,16.28-35.02,35.64-35.02c19.66,0,31.95,14.13,34.71,35.02H544.83L544.83,361.69z M730.39,460
			c22.73,0,38.41-8.3,49.77-20.89v17.82h45.16v-95.54c0-22.12-5.53-40.24-17.82-52.54c-11.67-11.68-30.1-18.43-55.61-18.43
			c-27.96,0-45.78,5.22-63.9,13.21l11.67,35.64c15.05-5.53,27.65-8.91,45.47-8.91c23.35,0,35.33,10.76,35.33,30.11v2.77
			c-11.67-3.99-23.65-6.76-40.24-6.76c-39.02,0-66.36,16.59-66.36,52.54v0.62C673.87,442.19,699.37,460.01,730.39,460L730.39,460z
			 M744.53,427.75c-15.05,0-25.5-7.37-25.5-19.97v-0.61c0-14.74,12.29-22.73,32.26-22.73c11.37,0,21.81,2.46,29.8,6.15v8.3
			C781.09,415.77,766.35,427.75,744.53,427.75L744.53,427.75z M861.89,456.93h46.69V332.2h37.17v-38.1h-37.79v-6.45
			c0-12.29,6.14-17.82,16.9-17.82c7.99,0,14.44,1.54,21.2,3.99v-38.71c-8.6-2.77-18.43-4.61-33.18-4.61
			c-16.59,0-29.19,4.3-37.79,12.9c-8.6,8.6-13.21,21.81-13.21,39.94v10.45h-19.36v38.4h19.36v124.73V456.93z M1014.28,460
			c23.66,0,37.48-12.59,48.23-26.42v23.35h46.7V292.26h-46.7v91.86c0,22.12-11.37,33.49-29.19,33.49
			c-17.82,0-28.27-11.37-28.27-33.49v-91.86h-46.69v106.6C958.36,436.65,978.94,460,1014.28,460L1014.28,460z M1139.32,456.93h46.7
			v-91.86c0-22.12,11.37-33.49,29.19-33.49c17.82,0,28.26,11.37,28.26,33.49v91.86h46.69v-106.6c0-37.79-20.58-61.14-55.91-61.14
			c-23.66,0-37.48,12.6-48.23,26.42v-23.35h-46.7V456.93z M1386.64,460c24.27,0,39.94-11.36,51.3-26.73v23.66h46.69V232.66h-46.69
			v81.1c-11.06-13.21-26.42-24.58-51.3-24.58c-39.01,0-74.96,30.11-74.96,85.1v0.62C1311.68,429.9,1348.24,460.01,1386.64,460
			L1386.64,460z M1398.62,420.37c-21.81,0-40.25-18.13-40.25-45.47v-0.62c0-27.65,18.44-45.47,40.25-45.47
			c21.81,0,39.94,18.13,39.94,45.47v0.62C1438.56,402.24,1420.43,420.37,1398.62,420.37z"/>
		<path class="st2" d="M108.6,338.36c0,0,14.72,6.43,33.15,6.22c18.43-0.22,88.11-14.28,133.91-3.38
			c45.8,10.91,68.7,27.92,68.7,27.92s-20.72-31.19-2.18-64.56c9.44-16.99,25.61-26.18,39.21-31.11c0,0-18.91-9.43-45.8-12.59
			c-21.89-2.57-49.04-0.34-75.86,9.45c-53.51,19.53-69.51,45.61-109.52,60.48C127.88,339.08,108.6,338.35,108.6,338.36L108.6,338.36
			z"/>
		<path class="st3" d="M158.74,295.98c0,0,36.1-31.3,76.67-47.44c40.57-16.14,79.39-13.52,107.3-2.18
			c27.92,11.34,35.77,21.37,35.77,21.37s-47.54-28.79-106.87-16.57C231.1,259.49,197.07,280.93,158.74,295.98L158.74,295.98z"/>
	</g>
</g>
</svg>
