<?xml version="1.0" encoding="utf-8"?>
<!-- Generator: Adobe Illustrator 27.4.0, SVG Export Plug-In . SVG Version: 6.00 Build 0)  -->
<svg version="1.1" id="Layer_1" xmlns="http://www.w3.org/2000/svg" xmlns:xlink="http://www.w3.org/1999/xlink" x="0px" y="0px"
	 viewBox="0 0 1593.26 691.13" style="enable-background:new 0 0 1593.26 691.13;" xml:space="preserve">
<style type="text/css">
	.st0{fill:#3C5C7F;}
	.st1{fill:#FDFDFD;}
	.st2{fill:#FFFFFF;}
</style>
<path class="st0" d="M341.24,658.26c-4.17-0.36-8.34-0.77-12.52-1.06c-29.43-2.05-57.94-8.3-85.58-18.59
	c-39.28-14.62-74.18-36.36-104.66-65.08c-40.96-38.6-69.74-84.83-85.85-138.82c-5.36-17.97-9.13-36.29-10.9-54.98
	c-0.64-6.77-1.02-13.57-1.55-20.35c-0.08-1.08-0.35-2.14-0.53-3.21c0-6.57,0-13.13,0-19.7c0.35-4.68,0.71-9.36,1.05-14.04
	c2.84-39.65,12.89-77.36,30.23-113.15c15.86-32.72,36.85-61.75,62.84-87.12c39.24-38.32,85.36-64.7,138.4-78.82
	c15.1-4.02,30.43-6.98,46.02-8.37c7.53-0.67,15.07-1.13,22.61-1.71c0.83-0.06,1.64-0.25,2.46-0.38c6.23,0,12.46,0,18.69,0
	c4.51,0.36,9.02,0.77,13.53,1.06c24.68,1.62,48.78,6.31,72.31,13.83c40.41,12.91,76.67,33.31,108.73,61.08
	c32.06,27.77,57.65,60.59,76.46,98.65c13.57,27.45,22.79,56.31,27.79,86.49c3.94,23.8,5.17,47.79,3.57,71.87
	c-2.8,42.26-13.49,82.42-32.59,120.28c-14.39,28.52-32.78,54.2-55.05,77.11c-28.24,29.05-60.78,51.93-97.84,68.35
	c-24.46,10.84-49.87,18.61-76.37,22.44c-12.2,1.77-24.55,2.55-36.83,3.79c-0.91,0.09-1.81,0.29-2.71,0.43
	C355.72,658.26,348.48,658.26,341.24,658.26z M47.32,354.36c1.3,76.81,31.37,150.57,93.2,210.27
	c61.79,59.67,136.35,88.3,222.18,85.53c83.08-2.68,153.81-34.74,210.93-94.98c58.29-61.48,86.12-135.37,83.35-220.04
	c-2.69-82.22-34.18-152.43-93.45-209.33C502.21,66.96,428.3,38.83,343.3,40.86C182.55,44.68,47.6,177.16,47.32,354.36z"/>
<path class="st0" d="M780.9,115.98c-0.55,0.6-0.98,1.45-1.66,1.74c-2.67,1.15-3.71,3.08-3.7,5.95c0.06,19.19,0,38.38,0.06,57.58
	c0.01,2.68,0.25,5.39,0.67,8.04c1.4,8.82,7.43,13.22,15.42,15.39c9.25,2.52,18.65,2.51,27.96,0.47
	c11.93-2.61,17.37-8.71,17.62-21.12c0.4-20.45,0.16-40.91,0.16-61.36c0-2.38-1.4-3.8-3.47-4.8c-0.75-0.36-1.24-1.27-1.85-1.92
	c0.15-0.22,0.31-0.44,0.46-0.65c10.38,0,20.76,0,32.01,0c-0.88,1.15-1.23,2.13-1.88,2.38c-2.95,1.17-3.86,3.26-3.85,6.34
	c0.08,19.95,0.13,39.9-0.02,59.85c-0.04,4.59-0.65,9.22-1.45,13.76c-1.79,10.18-7.92,16.96-17.21,21.16
	c-7.31,3.3-15.07,4.73-22.95,5.28c-11.93,0.83-23.89,0.84-35.62-1.95c-3.82-0.91-7.58-2.22-11.21-3.72
	c-10.6-4.38-15.87-12.81-17.26-23.86c-0.53-4.24-0.76-8.54-0.78-12.82c-0.08-18.94-0.05-37.88-0.02-56.82
	c0.01-3.24-0.48-6.06-4.07-7.26c-0.39-0.13-0.91-0.98-0.8-1.28c0.18-0.49,0.78-0.93,1.31-1.17c0.42-0.19,0.99-0.08,1.5-0.08
	c9.26,0,18.52-0.01,27.78,0.01c0.74,0,1.48,0.1,2.23,0.16C780.49,115.5,780.69,115.74,780.9,115.98z"/>
<path class="st0" d="M794.44,308.92c10.93,0,21.86,0,33.52,0c-0.59,0.98-0.82,1.82-1.37,2.18c-3.03,2.01-3.35,3.67-0.72,6.5
	c3.15,3.38,6.51,6.57,9.79,9.83c9.42,9.37,18.83,18.74,28.27,28.09c3.25,3.23,6.56,6.4,10.27,10.02c0.07-1.48,0.14-2.35,0.14-3.23
	c0.01-14.9-0.05-29.8,0.05-44.7c0.02-3.17-0.93-5.34-3.98-6.53c-0.58-0.23-0.89-1.13-1.64-2.14c10.31,0,19.8,0,30.14,0
	c-0.83,1.09-1.18,2.03-1.82,2.3c-2.81,1.2-3.77,3.34-3.77,6.23c0.02,23.66,0.03,47.31,0,70.97c0,2.9,0.98,5.02,3.75,6.24
	c0.62,0.27,1,1.11,1.92,2.2c-11.11,0-21.33,0-32.25,0c0.72-1.01,1.01-1.75,1.55-2.11c2.58-1.68,2.97-3.13,0.81-5.43
	c-3.85-4.12-7.84-8.1-11.85-12.06c-12.4-12.24-24.84-24.43-37.27-36.64c-0.47-0.46-0.97-0.87-1.84-1.64
	c-0.08,1.17-0.18,1.94-0.18,2.72c-0.01,15.49,0.03,30.98-0.04,46.47c-0.01,3.11,0.87,5.39,3.94,6.59c0.57,0.22,0.91,1.05,1.74,2.08
	c-10.27,0-19.81,0-29.34,0c-0.16-0.18-0.32-0.37-0.47-0.55c0.57-0.57,1.04-1.35,1.73-1.67c2.56-1.18,3.52-3.19,3.52-5.87
	c-0.01-23.82-0.01-47.65,0.01-71.47c0-2.84-1.09-4.8-3.75-5.96c-0.67-0.29-1.06-1.21-1.57-1.85
	C793.97,309.29,794.21,309.11,794.44,308.92z"/>
<path class="st0" d="M1312.19,185.69c2.63,3.67,5.16,7.21,7.7,10.74c3.89,5.39,7.73,10.81,11.69,16.14
	c2.57,3.45,5.33,6.74,9.79,7.96c0.48,0.13,0.74,1.1,1.3,2.02c-12.79,0-24.97,0-37.98,0c0.81-1.04,1.14-1.82,1.73-2.16
	c3.45-1.99,3.93-3.55,1.55-7.09c-4.18-6.21-8.53-12.31-12.81-18.45c-1.68-2.41-3.34-4.85-5.11-7.2c-0.45-0.59-1.29-1.25-1.96-1.26
	c-6.64-0.09-13.28-0.06-20.23-0.06c-0.07,1.05-0.19,1.93-0.19,2.82c-0.01,8.08,0.02,16.16-0.03,24.24c-0.02,3.12,0.81,5.6,3.94,6.93
	c0.59,0.25,0.89,1.18,1.62,2.23c-10.77,0-20.76,0-31.46,0c0.52-0.92,0.74-1.93,1.26-2.13c3.51-1.33,4.05-4.17,4.05-7.36
	c0-14.81,0-29.63,0-44.44c0-8.16-0.02-16.33,0.01-24.49c0.01-3.23-0.59-6.02-4.06-7.36c-0.52-0.2-0.76-1.15-1.43-2.23
	c1.59,0,2.5,0,3.41,0c19.87,0,39.73-0.04,59.6,0.04c6.31,0.02,12.59,0.48,18.56,2.92c8.64,3.53,12.91,10.2,13.56,19.24
	c0.24,3.4,0.04,6.93-0.61,10.27c-1.51,7.82-6.76,12.56-13.92,15.35C1319.02,183.57,1315.73,184.52,1312.19,185.69z M1267.7,170.41
	c1.16,0.1,2.06,0.24,2.95,0.24c9.25,0.02,18.51,0.08,27.76-0.03c3.18-0.04,6.39-0.28,9.52-0.81c5.08-0.86,7.83-4.41,7.83-9.6
	c0-5.15-2.54-8.22-7.77-9.3c-1.15-0.24-2.32-0.45-3.49-0.47c-6.14-0.13-12.27-0.22-18.41-0.26c-5.3-0.04-10.6-0.07-15.9,0.06
	c-0.84,0.02-2.38,0.85-2.4,1.33C1267.64,157.78,1267.7,163.98,1267.7,170.41z"/>
<path class="st0" d="M1264.98,483.51c0.82-0.05,1.64-0.14,2.47-0.14c18.6-0.01,37.2-0.15,55.8,0.07c6.35,0.08,12.83,0.42,18.99,1.8
	c11.37,2.53,17.33,10.59,17.34,22.2c0,3.09-0.13,6.26-0.82,9.24c-1.89,8.1-7.79,12.46-15.19,15.14c-2.66,0.96-5.4,1.68-8.34,2.57
	c0.35,0.68,0.58,1.28,0.95,1.79c5.78,8.07,11.53,16.15,17.39,24.17c2.94,4.02,5.97,8.02,11.32,9.21c0.64,2.14-0.89,1.91-2.08,1.92
	c-7.32,0.02-14.64,0.01-21.96,0.01c-3.45,0-6.9,0.05-10.35-0.04c-0.7-0.02-1.38-0.58-2.07-0.89c0.44-0.51,0.79-1.18,1.35-1.51
	c2.95-1.72,3.42-3.25,1.32-6.41c-3.91-5.88-8.01-11.63-12.04-17.43c-1.97-2.83-3.91-5.68-5.96-8.45c-0.5-0.67-1.37-1.51-2.08-1.52
	c-6.63-0.12-13.27-0.07-20.15-0.07c-0.1,1.01-0.26,1.81-0.26,2.61c-0.02,8.25,0,16.49-0.02,24.74c-0.01,2.9,0.69,5.3,3.67,6.54
	c0.54,0.22,0.82,1.04,1.22,1.59c-0.64,0.27-1.27,0.78-1.91,0.79c-4.8,0.07-9.59,0.04-14.39,0.05c-4.04,0-8.08,0.04-12.12-0.04
	c-0.73-0.01-1.45-0.5-2.17-0.77c0.48-0.56,0.85-1.38,1.47-1.65c2.51-1.1,3.46-3.06,3.46-5.62c0-23.98,0-47.97,0-71.95
	c0-2.6-1.02-4.5-3.49-5.61c-0.7-0.31-1.19-1.1-1.77-1.67C1264.69,483.95,1264.84,483.73,1264.98,483.51z M1290.8,519.26
	c0.71,0.08,1.2,0.2,1.69,0.2c10.93,0,21.87,0.07,32.8-0.06c2.4-0.03,4.86-0.51,7.16-1.21c4.15-1.25,6.23-4.67,6.08-9.35
	c-0.15-4.74-2.17-7.72-6.52-8.71c-3-0.69-6.14-1.01-9.22-1.06c-9.75-0.13-19.51-0.05-29.27-0.04c-0.88,0-1.77,0.08-2.73,0.13
	C1290.8,506.03,1290.8,512.62,1290.8,519.26z"/>
<path class="st0" d="M1370.91,164.42c-0.08,1.44-0.16,2.16-0.16,2.88c-0.01,15.32,0.03,30.64-0.04,45.96
	c-0.01,3.24,0.79,5.76,4.03,7.11c0.54,0.22,0.81,1.1,1.5,2.1c-10.21,0-19.76,0-30.25,0c1.02-1.07,1.46-1.87,2.13-2.16
	c2.53-1.12,3.66-2.9,3.66-5.71c-0.05-23.99-0.06-47.98,0.01-71.97c0.01-2.82-1.06-4.61-3.58-5.76c-0.69-0.31-1.17-1.09-1.74-1.65
	c0.15-0.19,0.31-0.39,0.46-0.58c11,0,22.01,0,33.91,0c-0.85,1.09-1.23,1.87-1.84,2.29c-2.1,1.43-2.59,2.97-1.09,5.08
	c1.11,1.56,2.52,2.93,3.88,4.29c13.36,13.29,26.73,26.56,40.11,39.82c1.59,1.57,3.25,3.08,5.36,5.07c0.09-1.5,0.18-2.37,0.18-3.23
	c0.01-14.65,0-29.29,0.01-43.94c0-3.22-0.53-6.04-4.09-7.3c-0.49-0.17-0.7-1.14-1.2-2.03c9.95,0,19.34,0,29.65,0
	c-0.98,1.11-1.36,1.9-1.98,2.18c-2.45,1.1-3.59,2.92-3.57,5.56c0.01,1.43-0.04,2.86-0.04,4.29c0,21.55,0,43.1-0.01,64.65
	c0,3.74-0.3,7.59,4.34,9.17c0.37,0.13,0.48,1.04,0.85,1.92c-10.65,0-20.86,0-31.75,0c0.54-0.83,0.8-1.78,1.34-2
	c3.21-1.25,2.89-3.73,0.88-5.75c-6.11-6.14-12.21-12.31-18.37-18.4c-10.05-9.94-20.15-19.83-30.24-29.74
	C1372.66,166,1372.04,165.46,1370.91,164.42z"/>
<path class="st0" d="M976.68,222.57c-10.25,0-20.51,0-31.58,0c0.75-1,1.06-1.78,1.63-2.11c2.92-1.73,3.31-3.25,0.88-5.75
	c-5.74-5.92-11.6-11.73-17.46-17.52c-10.29-10.17-20.63-20.3-30.95-30.45c-0.64-0.63-1.31-1.23-2.4-2.26
	c-0.11,1.44-0.24,2.32-0.24,3.2c-0.01,15.07,0,30.13-0.02,45.2c0,3.28,0.38,6.25,4.1,7.54c0.48,0.17,0.68,1.16,1.19,2.11
	c-9.98,0-19.38,0-29.66,0c0.82-1.06,1.17-1.97,1.8-2.24c2.71-1.17,3.65-3.24,3.65-6.03c-0.02-23.82-0.03-47.64,0-71.47
	c0-2.83-0.99-4.84-3.72-5.96c-0.6-0.25-0.94-1.13-1.78-2.2c11.76,0,22.67,0,34.53,0c-0.94,1.14-1.34,1.9-1.97,2.35
	c-2.11,1.5-2.45,2.93-0.97,5.11c0.52,0.76,1.13,1.47,1.78,2.12c14.92,14.84,29.84,29.66,44.78,44.49c0.7,0.7,1.47,1.34,2.66,2.42
	c0.1-1.29,0.21-2.05,0.21-2.82c0.01-14.9-0.01-29.8,0.02-44.7c0.01-3.11-0.72-5.63-3.97-6.86c-0.55-0.21-0.85-1.07-1.6-2.06
	c10.24,0,19.78,0,30.24,0c-1.01,1.07-1.43,1.87-2.07,2.12c-2.86,1.14-3.74,3.27-3.73,6.19c0.05,23.65,0.05,47.31-0.01,70.96
	c-0.01,3.05,1,5.16,3.88,6.38c0.61,0.26,0.97,1.12,1.45,1.7C977.12,222.22,976.9,222.39,976.68,222.57z"/>
<path class="st0" d="M984.18,513.29c0,1.67,0,2.57,0,3.48c0,15.23,0.05,30.47-0.04,45.7c-0.02,3.21,0.82,5.56,4,6.79
	c0.54,0.21,0.83,1.04,1.54,1.98c-1.41,0.13-2.15,0.25-2.89,0.25c-8,0.02-15.99,0.04-23.99-0.03c-0.85-0.01-1.7-0.6-2.55-0.92
	c0.61-0.57,1.14-1.31,1.86-1.68c2.45-1.26,3.07-3.39,3.07-5.89c0-8.84,0-17.67,0-26.51c0-14.56-0.04-29.12,0.04-43.68
	c0.02-3.22-0.67-5.8-3.92-7.17c-0.47-0.2-0.7-0.95-1.04-1.44c0.55-0.27,1.1-0.79,1.66-0.79c10.1-0.05,20.2-0.05,30.3,0
	c0.51,0,1.01,0.58,1.52,0.89c-0.37,0.47-0.65,1.09-1.13,1.39c-2.75,1.74-3.17,3.37-0.93,5.91c2.61,2.96,5.51,5.66,8.32,8.45
	c12.76,12.68,25.54,25.35,38.31,38.01c0.53,0.53,1.1,1.01,2.1,1.92c0.07-1.22,0.15-1.99,0.15-2.75c0.01-15.07-0.03-30.13,0.04-45.2
	c0.01-3.02-0.87-5.23-3.88-6.34c-0.49-0.18-0.78-0.89-1.16-1.36c0.42-0.31,0.84-0.88,1.26-0.88c9.15-0.05,18.31-0.04,27.46-0.04
	c0.15,0.23,0.3,0.46,0.45,0.69c-0.48,0.56-0.85,1.38-1.45,1.62c-2.85,1.15-3.8,3.32-3.79,6.19c0.01,23.73,0.01,47.47,0,71.2
	c0,2.79,1.01,4.85,3.73,5.97c0.63,0.26,1.03,1.08,1.98,2.13c-1.59,0.15-2.33,0.28-3.06,0.28c-8.75,0.01-17.51,0.03-26.26-0.03
	c-0.82-0.01-1.63-0.5-2.44-0.77c0.56-0.6,1.05-1.32,1.71-1.79c1.91-1.36,2.11-3.1,0.18-5.11c-4.55-4.72-9.18-9.38-13.85-13.99
	c-10.89-10.77-21.81-21.5-32.72-32.24C987.43,516.29,986.07,515.06,984.18,513.29z"/>
<path class="st0" d="M907.48,396.2c0.55-0.5,1.02-1.2,1.67-1.47c2.69-1.14,3.63-3.14,3.62-5.99c-0.05-23.74-0.07-47.48,0.01-71.22
	c0.01-3.09-0.98-5.15-3.88-6.33c-0.61-0.25-1-1.07-1.48-1.63c0.15-0.24,0.29-0.47,0.44-0.71c0.89,0,1.79,0,2.68,0
	c16.92,0,33.84-0.1,50.76,0.05c7.05,0.06,14.11,0.64,20.88,2.97c10.85,3.74,18.5,10.93,22.32,21.75c4.76,13.47,4.8,27.12-0.63,40.38
	c-5.31,12.96-15.69,19.87-29.27,21.87c-6.04,0.89-12.22,1.08-18.35,1.14c-15.15,0.15-30.31,0.04-45.46,0.03c-0.92,0-1.83,0-2.75,0
	C907.87,396.75,907.67,396.48,907.48,396.2z M933.84,381.21c0.65,0.13,0.97,0.25,1.29,0.25c9.33-0.15,18.68-0.03,27.99-0.56
	c5.66-0.32,10.95-2.23,15.4-6.15c9.73-8.58,9.92-28.29,4.29-38.1c-4.89-8.52-12.81-11.55-22-11.85c-8.41-0.27-16.83-0.09-25.24-0.08
	c-0.56,0-1.11,0.16-1.73,0.25C933.84,343.76,933.84,362.4,933.84,381.21z"/>
<path class="st0" d="M819.74,571.32c-12,0-24,0-36.91,0c0.85-1.12,1.19-2.02,1.82-2.31c3.63-1.69,4.66-3.52,3.02-7.2
	c-4.7-10.59-9.56-21.11-14.43-31.62c-8.94-19.29-17.93-38.56-26.92-57.82c-1.26-2.69-2.62-5.29-5.98-6
	c-0.54-0.11-0.89-1.17-1.66-2.28c13.22,0,25.64,0,38.12,0c0.62,1.35,0.22,2.06-1.2,2.62c-3.54,1.4-4.51,3.15-3.15,6.69
	c2.11,5.48,4.53,10.85,6.94,16.2c7.28,16.17,14.62,32.31,21.94,48.46c0.27,0.59,0.62,1.15,1.1,2.05c0.48-0.76,0.87-1.24,1.12-1.78
	c9.29-20.51,18.56-41.03,27.82-61.56c0.48-1.07,0.91-2.17,1.25-3.3c1.1-3.65,0.33-5.4-3.17-6.76c-1.39-0.54-1.93-1.17-1.3-2.68
	c11.99,0,24,0,36.93,0c-0.95,1.19-1.39,2.32-2.04,2.46c-2.74,0.58-4.11,2.49-5.18,4.75c-3.96,8.35-7.91,16.71-11.81,25.08
	c-9.32,20.04-18.62,40.09-27.91,60.14c-0.92,1.98-1.82,3.99-2.5,6.05c-1,3.05-0.03,4.92,2.85,6.37c0.7,0.36,1.17,1.18,1.75,1.79
	C820.08,570.9,819.91,571.11,819.74,571.32z"/>
<path class="st0" d="M1234.5,177.77c0.08,18.52-7.36,31.9-22.61,39.73c-19.92,10.24-40.42,10.07-60.04-1.1
	c-12.35-7.04-19.18-18.19-20.5-32.59c-1.15-12.59,1.19-24.13,9.5-33.97c6.2-7.34,14.21-12.08,23.38-14.68
	c12.57-3.56,25.27-3.74,37.79,0.11C1220.93,141.09,1234.64,155.89,1234.5,177.77z M1213.3,178.98
	c0.05-17.57-12.58-29.95-30.66-30.04c-17.09-0.08-29.78,12.27-30.35,28.53c-0.54,15.28,10.17,30.53,30.52,30.72
	C1200.16,208.35,1213.25,195.71,1213.3,178.98z"/>
<path class="st0" d="M949.54,504.28c-0.51-0.57-1.21-1.06-1.49-1.73c-1.01-2.4-2.84-3.51-5.33-3.51c-17.59-0.02-35.18,0-52.78,0.01
	c-0.32,0-0.63,0.12-1.09,0.21c0,6.43,0,12.79,0,19.44c0.78,0.07,1.57,0.21,2.37,0.22c9.85,0.01,19.7-0.05,29.54,0
	c3.22,0.02,5.78-0.74,7.09-4.04c0.21-0.54,1.11-0.8,2.09-1.46c0,8.85,0,17.06,0,25.26c-0.18,0.16-0.36,0.31-0.54,0.47
	c-0.62-0.62-1.48-1.14-1.82-1.89c-0.94-2.06-2.51-3.29-4.67-3.31c-11.27-0.08-22.53-0.04-34.02-0.04c0,7.25,0,14.36,0,21.79
	c0.82,0.05,1.7,0.14,2.59,0.14c17.42,0.01,34.85-0.02,52.27,0.03c3.14,0.01,5.61-0.73,6.85-3.95c0.22-0.56,1.06-0.89,2.08-1.68
	c0,9.08,0,17.44,0,26.55c-0.93-0.6-1.87-0.86-2.07-1.39c-1.22-3.29-3.77-3.91-6.87-3.91c-25.25,0.03-50.5,0.02-75.76,0.02
	c-0.51,0-1.02,0.08-1.51-0.02c-1.24-0.23-2.46-0.54-3.69-0.81c0.87-0.74,1.7-1.55,2.63-2.21c1.94-1.37,2.37-3.29,2.37-5.52
	c-0.03-17.34-0.02-34.68-0.02-52.02c0-6.4-0.06-12.79,0.02-19.19c0.04-2.86-1.02-4.81-3.7-5.97c-0.65-0.28-1.06-1.14-1.58-1.73
	c0.16-0.23,0.32-0.45,0.48-0.68c0.99,0,1.99,0,2.98,0c24.66,0,49.33-0.01,73.99,0.01c3.54,0,7.04,0.06,8.42-4.25
	c0.13-0.39,0.97-0.55,1.8-0.98c0,8.87,0,17.25,0,25.63C949.99,503.94,949.77,504.11,949.54,504.28z"/>
<path class="st0" d="M1464.4,565.73c3.1-7.38,6.02-14.33,9.11-21.69c0.72,0.66,1.57,1.05,1.62,1.53c0.32,2.83,2.33,4.14,4.49,5.36
	c5.57,3.15,11.7,4.61,17.92,5.68c9.3,1.6,18.58,1.85,27.64-1.36c1.86-0.66,3.74-1.63,5.25-2.89c4.32-3.62,3.6-9.86-1.64-11.83
	c-3.94-1.48-8.28-2.07-12.5-2.59c-9.58-1.17-19.26-1.69-28.8-3.15c-10.03-1.54-17.78-6.81-20.38-17.09
	c-3.12-12.39,0.52-23.62,13.23-30.4c7.83-4.17,16.26-5.58,25.04-5.83c12.69-0.36,24.37,3.25,35.69,8.52
	c1.22,0.57,2.42,1.34,3.71,1.54c1.3,0.2,2.7-0.16,4.04-0.32c0.82-0.1,1.63-0.3,2.45-0.46c0.1,0.24,0.2,0.48,0.3,0.71
	c-3.43,6.62-6.85,13.23-10.57,20.41c-0.72-1.04-1.17-1.72-1.65-2.37c-1.02-1.38-1.82-3.07-3.14-4.07c-5.49-4.17-11.99-6-18.64-7.17
	c-8.36-1.47-16.75-1.78-24.86,1.32c-2.15,0.82-4.34,2-6.01,3.56c-4.2,3.92-2.83,9.72,2.68,11.17c4.04,1.06,8.23,1.63,12.39,2.09
	c10.67,1.19,21.5,1.01,31.94,4.09c8.54,2.52,15.4,7.16,18.2,15.92c4.08,12.76-0.23,24.4-13.67,31.29
	c-9.64,4.94-20.06,5.84-30.67,5.62c-12.25-0.25-23.97-2.9-35.16-7.89c-1.99-0.89-3.92-1.57-5.84,0.26
	C1466.25,566,1465.37,565.73,1464.4,565.73z"/>
<path class="st0" d="M1395.49,499.15c0,1.44,0,2.67,0,3.9c0,4.54,0.04,9.09-0.01,13.63c-0.02,1.59,0.56,2.25,2.22,2.24
	c10.35-0.05,20.71-0.02,31.06-0.05c2.66-0.01,4.68-1.05,5.8-3.64c0.28-0.64,1.06-1.07,1.6-1.59c0.18,0.14,0.36,0.28,0.54,0.43
	c0,8.2,0,16.4,0,24.6c-0.2,0.15-0.4,0.3-0.6,0.45c-0.55-0.6-1.27-1.12-1.6-1.83c-1.09-2.33-2.87-3.43-5.39-3.43
	c-10.69,0-21.38,0-32.07,0.01c-0.33,0-0.66,0.08-1.26,0.17c0,7.15,0,14.3,0,21.78c1.05,0,1.95,0,2.85,0
	c17.34,0,34.68-0.03,52.02,0.02c3.13,0.01,5.64-0.67,6.84-3.94c0.2-0.53,1.04-0.83,1.98-1.52c0,9.05,0,17.41,0,26.52
	c-1.02-0.84-1.82-1.18-2.05-1.74c-1.1-2.78-3.25-3.68-6-3.68c-0.67,0-1.35-0.01-2.02-0.01c-25.33,0-50.67,0-76,0
	c-0.59,0-1.21,0.11-1.76-0.04c-0.64-0.18-1.21-0.59-1.8-0.9c0.45-0.51,0.81-1.26,1.37-1.49c2.33-0.95,3.33-2.7,3.47-5.09
	c0.06-1.01,0.07-2.02,0.07-3.03c0-22.47-0.03-44.94,0.01-67.42c0.01-3.47-0.33-6.58-4.19-8.01c-0.47-0.17-0.68-1.04-1.36-2.15
	c1.74,0,2.81,0,3.88,0c24.75,0,49.49,0.01,74.24-0.03c1.73,0,3.58-0.15,5.16-0.77c1-0.39,1.59-1.81,2.41-2.72
	c0.45-0.5,1.02-0.89,1.53-1.33c0.29,0.62,0.83,1.24,0.83,1.86c0.06,5.98,0.03,11.95,0.03,17.93c0,1.43,0.08,2.87-0.01,4.29
	c-0.03,0.49-0.48,0.95-0.74,1.42c-0.49-0.33-1.25-0.56-1.42-1c-1.18-3.26-3.66-4.02-6.8-4.01c-16.58,0.05-33.16,0.02-49.74,0.03
	C1397.67,499.02,1396.77,499.1,1395.49,499.15z"/>
<path class="st0" d="M1189.19,483.88c-0.68,0.76-1.07,1.57-1.68,1.8c-2.89,1.08-3.83,3.13-3.82,6.09
	c0.07,14.56,0.03,29.13,0.04,43.69c0,1.51-0.03,3.05,0.19,4.54c1.35,9.31,5.18,13.6,14.37,15.82c6.89,1.66,13.85,1.64,20.73-0.11
	c9.39-2.39,13.69-7.77,13.86-18.13c0.25-15.49,0.11-30.98,0.12-46.47c0-2.43-1.12-4.11-3.33-5.19c-0.74-0.36-1.27-1.15-1.9-1.75
	c0.15-0.2,0.3-0.4,0.45-0.6c0.66-0.07,1.31-0.2,1.97-0.2c8.17-0.01,16.33-0.03,24.5,0.03c0.76,0.01,1.51,0.59,2.27,0.9
	c-0.53,0.54-0.97,1.27-1.62,1.57c-2.67,1.26-3.41,3.43-3.4,6.19c0.04,15.91,0.13,31.82-0.06,47.73c-0.05,4.24-0.65,8.56-1.63,12.7
	c-1.87,7.84-7.09,13-14.37,16.15c-9.97,4.32-20.52,4.85-31.16,4.68c-8.46-0.13-16.72-1.28-24.7-4.28
	c-10.69-4.02-16.12-12.05-16.63-23.04c-0.62-13.69-0.46-27.42-0.6-41.13c-0.05-4.21-0.11-8.42,0.02-12.63
	c0.1-3.12-0.8-5.41-3.91-6.57c-0.48-0.18-0.75-0.91-1.12-1.39c0.51-0.3,1.03-0.86,1.54-0.87c9.51-0.04,19.02-0.01,28.54,0.02
	C1188.09,483.43,1188.33,483.58,1189.19,483.88z"/>
<path class="st0" d="M1126.04,146.99c-4.24,6.16-8.48,12.31-13.12,19.06c-0.53-1.07-1.18-1.76-1.13-2.41
	c0.17-2.19-0.8-3.81-2.4-5.01c-13.19-9.88-33.77-13.52-48.96-4.57c-15.04,8.86-19.14,28.14-8.76,41.34
	c5.76,7.33,13.55,11.16,22.66,12.32c12,1.52,23.01-1.41,33.12-7.91c2.45-1.57,4.71-3.33,4.34-6.8c-0.05-0.47,0.54-1.01,1.12-2.01
	c4.62,6.74,8.92,13.02,13.46,19.64c-0.92,0.31-1.78,0.89-2.14,0.67c-2.79-1.75-4.96-0.09-7.26,1.09
	c-5.16,2.64-10.15,5.71-15.54,7.76c-16.19,6.17-32.69,6.23-48.77-0.03c-15.88-6.17-25.13-18.27-27.32-35.19
	c-2.38-18.35,3.94-33.23,19.25-43.92c6.68-4.66,14.36-6.9,22.37-7.86c10.02-1.21,20.09-1.15,29.7,2.09c6.24,2.1,12.1,5.38,18.1,8.18
	c1.6,0.75,3.02,1.92,4.67,2.47c1.23,0.42,2.68,0.17,4.04,0.19c0.84,0.02,1.68,0,2.51,0
	C1125.99,146.39,1126.01,146.69,1126.04,146.99z"/>
<path class="st0" d="M1086.29,308.94c11,0,22.01,0,33.82,0c-0.69,1.12-0.99,2.07-1.63,2.56c-2.94,2.25-3.9,4.17-2.41,7.62
	c2.23,5.15,4.87,10.13,7.48,15.11c9.38,17.85,18.82,35.67,28.27,53.48c1.66,3.13,3.36,6.26,7.27,7.23c0.45,0.11,0.71,1.01,1.32,1.93
	c-12.33,0-24.07,0-36.73,0c1-1.04,1.41-1.77,2.03-2.07c3.58-1.77,4.66-3.65,3.16-7.22c-1.72-4.09-3.92-7.98-6.05-11.88
	c-0.29-0.52-1.4-0.84-2.13-0.84c-12.45-0.05-24.91-0.05-37.36,0c-0.66,0-1.69,0.33-1.91,0.8c-2.01,4.24-4.09,8.47-5.72,12.86
	c-1.08,2.9,0.08,4.69,2.86,6.09c0.71,0.36,1.27,1.01,1.9,1.52c-0.14,0.24-0.27,0.47-0.41,0.71c-10.55,0-21.09,0-32.29,0
	c0.65-0.87,0.96-1.76,1.46-1.87c3.46-0.79,5.03-3.46,6.43-6.28c4.91-9.85,9.79-19.72,14.67-29.58
	c5.99-12.13,11.96-24.26,17.91-36.41c0.66-1.35,1.28-2.76,1.64-4.21c0.84-3.31,0.1-4.91-2.64-6.91c-0.66-0.48-1.04-1.34-1.55-2.03
	C1085.88,309.34,1086.08,309.14,1086.29,308.94z M1116.18,362.73c-4.94-9.71-9.62-18.91-14.65-28.79
	c-4.82,9.96-9.3,19.23-13.93,28.79C1097.3,362.73,1106.42,362.73,1116.18,362.73z"/>
<path class="st0" d="M1156.3,478.02c0,8.96,0,17.33,0,26.65c-1.04-0.99-1.81-1.43-2.13-2.09c-0.95-1.99-2.37-3.43-4.58-3.45
	c-8.91-0.09-17.82-0.04-26.98-0.04c-0.1,1.1-0.27,2.07-0.27,3.04c-0.01,19.78,0,39.56-0.01,59.33c0,3.35,0.31,6.44,4.1,7.81
	c0.46,0.17,0.65,1.06,1.2,2.01c-10.62,0-20.67,0-31.35,0c0.57-0.92,0.81-1.83,1.31-2.01c3.53-1.27,4.09-4.04,4.08-7.29
	c-0.04-16.58-0.02-33.16-0.02-49.74c0-4.27,0-8.54,0-12.95c-0.92-0.11-1.56-0.26-2.21-0.26c-7.91-0.02-15.82,0-23.73-0.02
	c-2.8-0.01-4.82,1.05-5.98,3.74c-0.28,0.65-1.19,1.03-2.27,1.9c0-9.24,0-17.62,0-26.64c0.96,0.61,1.89,0.86,2.07,1.37
	c1.25,3.4,3.89,4,7.08,3.98c12.37-0.06,24.74-0.02,37.12-0.02c11.19,0,22.39-0.03,33.58,0.01c3.15,0.01,5.88-0.48,7.05-3.99
	C1154.53,478.89,1155.38,478.63,1156.3,478.02z"/>
<path class="st0" d="M782.26,396.9c-10.83,0-21.65,0-33.37,0c0.9-1.22,1.28-2.28,1.98-2.57c2.79-1.13,3.65-3.27,3.65-6.01
	c0-29.96,0-59.92,0-89.88c0-2.84-0.86-5.06-3.76-6.21c-0.65-0.26-1.02-1.26-1.93-2.46c11.72,0,22.54,0,34.13,0
	c-0.65,1.02-0.95,2.12-1.58,2.37c-2.89,1.15-3.8,3.32-3.8,6.18c0.01,29.96,0.01,59.92,0,89.88c0,2.84,0.89,5.05,3.79,6.18
	c0.67,0.26,1.04,1.28,1.54,1.94C782.7,396.53,782.48,396.71,782.26,396.9z"/>
<path class="st0" d="M1017.5,135.26c-0.6,0.57-1.1,1.35-1.8,1.68c-2.11,1.01-3.28,2.54-3.34,4.9c-0.03,1.26-0.13,2.52-0.13,3.78
	c-0.01,22.04,0,44.09-0.02,66.13c0,3.63-0.03,7.18,4.27,8.73c0.42,0.15,0.53,1.14,0.91,2.03c-10.52,0-20.58,0-31.47,0
	c0.84-1.05,1.22-1.94,1.86-2.23c2.67-1.17,3.74-3.21,3.74-6c0-23.81-0.01-47.62,0.01-71.43c0-2.8-1.1-4.82-3.74-5.99
	c-0.62-0.28-1.02-1.07-1.52-1.63c0.15-0.18,0.29-0.37,0.44-0.55c10.06,0,20.12,0,30.18,0
	C1017.09,134.88,1017.29,135.07,1017.5,135.26z"/>
<path class="st0" d="M1046.54,308.97c-0.83,1.11-1.18,2.07-1.81,2.31c-2.79,1.1-3.69,3.23-3.69,5.98c0,23.65,0.01,47.3,0,70.95
	c0,2.91,0.74,5.29,3.74,6.5c0.58,0.23,0.92,1.05,1.79,2.11c-10.87,0-20.98,0-31.1,0c-0.16-0.17-0.31-0.33-0.47-0.5
	c0.57-0.57,1.03-1.37,1.72-1.68c2.47-1.11,3.51-3.03,3.52-5.61c0.01-24.07,0.01-48.14,0.01-72.21c0-2.54-1.17-4.25-3.46-5.38
	c-0.74-0.36-1.21-1.26-1.81-1.91c0.16-0.19,0.32-0.38,0.47-0.56C1025.52,308.97,1035.59,308.97,1046.54,308.97z"/>
<path class="st1" d="M47.32,354.36C47.6,177.16,182.55,44.68,343.3,40.86c84.99-2.02,158.91,26.1,220.21,84.96
	c59.27,56.9,90.76,127.11,93.45,209.33c2.77,84.67-25.06,158.56-83.35,220.04c-57.11,60.24-127.85,92.3-210.93,94.98
	c-85.83,2.76-160.38-25.86-222.18-85.53C78.69,504.93,48.62,431.17,47.32,354.36z M350.14,634.48
	c156.42,0.44,288.71-127.89,286.4-290.88c-2.19-154.44-127.35-281.01-284.3-282.17c-161.4-1.2-288.35,129.6-288.85,285.51
	C62.87,505.91,192.44,634.95,350.14,634.48z"/>
<path class="st0" d="M350.14,634.48c-157.7,0.47-287.26-128.57-286.75-287.54c0.5-155.91,127.45-286.71,288.85-285.51
	c156.95,1.16,282.11,127.73,284.3,282.17C638.85,506.59,506.56,634.92,350.14,634.48z M234.54,562.8c2.01-2.78,3.64-4.8,5.03-6.97
	c6.3-9.83,12.6-19.67,18.72-29.62c0.69-1.11,0.62-3.09,0.17-4.43c-1.49-4.45-3.37-8.78-5.01-13.18c-7.4-19.87-13-40.27-16.91-61.09
	c-2.83-15.07-6.49-30.06-5.44-45.62c0.62-9.13,0.93-18.29,1.68-27.41c1.22-14.85,3.99-29.44,8.08-43.77
	c8.76-30.71,24.22-57.47,47-79.95c17.22-16.99,37.01-30.36,58.22-41.76c3.46-1.86,6.95-3.66,10.43-5.49
	c-0.14-0.32-0.28-0.65-0.42-0.97c-5.56,2.02-11.26,3.71-16.65,6.1c-32.61,14.44-61.63,34-85.38,60.88
	c-14.07,15.94-24.89,33.79-31.51,54.1c-9.29,28.54-12.85,57.96-13.62,87.8c-0.26,10.33-0.06,20.7,0.34,31.03
	c0.72,18.9,2.82,37.68,6.18,56.3c3.11,17.21,7.24,34.16,13.49,50.53C230.59,553.57,232.45,557.77,234.54,562.8z M329.52,238.07
	c-0.81,0.86-1.35,1.33-1.77,1.89c-7.29,9.63-13.56,19.86-18.08,31.09c-4.91,12.21-7.47,24.78-5.42,37.97
	c2.19,14.12,9.74,25.24,19.96,34.76c13.13,12.23,28.76,20.35,45.18,27.1c19.02,7.82,38.81,13.13,58.79,17.77
	c3.24,0.75,6.46,1.58,9.7,2.37c-0.62-0.93-1.37-1.45-2.15-1.93c-9.09-5.61-18.26-11.09-27.26-16.84
	c-12.48-7.98-24.85-16.15-35.72-26.31c-2.26-2.11-4.09-4.69-6.53-7.53c9.2-2.9,17.64-3.99,26.26-3.03c8.77,0.98,17.01,4,24.93,7.73
	c14.07,6.62,28.01,13.5,42.02,20.22c3.06,1.47,6.21,2.75,9.32,4.11c0.11-0.2,0.21-0.4,0.32-0.59c-2.03-1.43-4.05-2.87-6.09-4.3
	c-19.17-13.42-38.84-26.04-59.83-36.49c-11.12-5.53-22.39-9.59-35.3-7.86c-9.86,1.32-19.82,0.34-29.54-2.07
	c-7.65-1.9-13.62-5.94-16.96-13.4c-3.02-6.74-4.35-13.79-4.08-21.1c0.33-8.96,2.11-17.68,5.24-26.09
	C324.65,249.83,327.05,244.22,329.52,238.07z M345.26,475.45c0.21-0.22,0.42-0.43,0.63-0.65c-0.19-0.36-0.36-0.74-0.59-1.08
	c-0.62-0.9-1.24-1.8-1.91-2.66c-9.58-12.19-18.33-24.94-25.67-38.61c-10.08-18.78-18.86-38.1-23.13-59.15
	c-3.99-19.69-6.95-39.53-8.36-59.59c-0.27-3.89-0.79-7.76-1.28-12.42c-2.73,2.38-5.03,4.17-7.09,6.2
	c-16.14,15.88-25.26,35.5-29.6,57.38c-2.25,11.35-3.67,22.88-4.96,34.39c-0.75,6.65-0.58,13.42-0.66,20.13
	c-0.02,1.47,0.68,2.95,1.05,4.43c0.27-0.05,0.54-0.09,0.8-0.14c6.25-20.65,11.74-41.6,23.42-60.78c0.66,1.55,1.02,2.47,1.44,3.36
	c5.94,12.52,11.59,25.18,17.93,37.49c5.04,9.8,11.96,18.39,18.85,27.03c8.66,10.86,17.19,21.79,26.76,31.86
	C336.97,466.95,341.13,471.19,345.26,475.45z M506.48,499.35c0.08-0.2,0.17-0.41,0.25-0.61c-0.81-0.54-1.6-1.1-2.43-1.61
	c-14.59-9.16-29.42-17.97-43.73-27.55c-29.44-19.7-55.18-43.21-73.84-73.77c-0.88-1.44-2.63-2.66-4.25-3.31
	c-11.67-4.66-23.77-7.69-36.27-9.07c-3.77-0.42-7.58-0.52-11.37-0.77c0.17,0.96,0.46,1.35,0.82,1.65
	c14.72,12.54,29.39,25.14,44.18,37.59c13.83,11.64,27.73,23.2,41.7,34.67c22.65,18.58,48.45,31.29,76.12,40.42
	C500.55,497.93,503.54,498.57,506.48,499.35z M220.01,303.94c-2.21,0-4.29,0.05-6.37-0.01c-8.31-0.26-16.67-0.06-24.92-0.96
	c-10.06-1.1-19.98-3.48-30.04-4.66c-8.29-0.97-16.29,0.6-21.94,7.49c-2.79,3.4-4.99,7.37-7.02,11.31c-2.7,5.25-4.98,10.72-7.45,16.1
	c2.22-0.16,4.04-0.68,5.76-1.42c10.83-4.67,22.08-6.58,33.89-6.31c10.92,0.25,21.86-0.19,32.79-0.48c5.06-0.13,10-0.99,14.6-3.35
	C215.83,318.3,220.56,310.79,220.01,303.94z M192.8,448.23c-0.21,2.09-0.32,3.67-0.54,5.23c-1.25,8.78-5.81,15.86-11.7,22.16
	c-6.37,6.82-13.09,13.33-19.32,20.28c-5.72,6.37-9.34,13.93-10.68,22.46c-2.38,15.14,2.66,27.94,12.42,39.24
	c0.17,0.2,0.54,0.24,0.79,0.35c0.13-0.2,0.22-0.27,0.21-0.34c-0.01-0.33-0.02-0.67-0.09-0.99c-2.07-9.1-1.08-17.86,2.9-26.28
	c3.81-8.07,9.56-14.81,14.96-21.79c6.68-8.65,13.59-17.15,18.52-26.99c3.5-6.99,4.39-14.25,1.58-21.71
	C200.11,455.22,197.44,451.26,192.8,448.23z M139.18,249.01c0.49,0,0.98,0.05,1.47-0.01c8.6-1.01,16.8,0.08,23.39,6.09
	c5.39,4.91,10.23,10.43,15.26,15.74c3.82,4.03,7.43,8.25,12.56,10.77c7.21,3.54,14.8,4.67,22.75,4.08
	c9.14-0.67,17.39-3.52,24.51-9.42c0.88-0.73,1.9-1.29,2.86-1.92c-0.24-0.32-0.49-0.64-0.73-0.96c-2.72-0.23-5.44-0.45-8.16-0.7
	c-5.51-0.51-10.81-1.75-15.32-5.12c-3.63-2.7-7.12-5.6-10.56-8.55c-4.65-4-8.93-8.46-13.81-12.15
	c-11.26-8.53-23.74-11.47-37.51-7.01C149.79,241.82,144.21,244.78,139.18,249.01z M335.71,115.14c-0.17,0.15-0.35,0.31-0.52,0.46
	c0.1,0.55,0.17,1.1,0.32,1.63c1.53,5.37,1.87,10.9,0.55,16.22c-2.33,9.35-5.31,18.53-7.92,27.81c-1.72,6.12-4.04,12.11-3.78,18.65
	c0.37,9.08,8.64,17.58,17.94,18.01c-0.76-9.69,4.84-16.57,10.46-23.46c1.86-2.28,3.74-4.56,5.33-7.02
	c5.6-8.69,7.34-17.95,2.39-27.42c-2.11-4.03-5.01-7.85-8.28-11C347.03,124.07,341.23,119.74,335.71,115.14z M471.02,356.98
	c-0.05-0.67-0.01-0.92-0.09-1.12c-0.32-0.77-0.64-1.55-1.03-2.29c-6.66-12.64-15.5-23.57-26.12-33.09
	c-17.87-16.01-38.98-25.41-62.31-30.01c-4.52-0.89-9.32-0.77-13.95-0.48c-2.76,0.17-3.96,2.51-3.63,5.14
	c0.64,5.16,5.01,9.98,9.96,11.22c16.77,4.21,33.04,9.67,47.74,19.08c15.01,9.61,30.01,19.22,45.02,28.83
	C467.97,355.13,469.37,355.97,471.02,356.98z M165.41,177.82c0.62,0.51,0.78,0.72,0.98,0.8c11.6,4.81,19.84,13.34,26.16,23.89
	c5.62,9.37,10.87,18.95,16.57,28.27c4.89,8,11.58,14.11,20.4,17.71c8.07,3.3,16.5,3.71,25.03,3.15c3.69-0.24,7.34-0.98,11.01-1.49
	c0.01-0.23,0.02-0.45,0.04-0.68c-0.75-0.27-1.52-0.49-2.24-0.82c-4.5-2.04-9.19-3.75-13.43-6.24c-9.15-5.37-15.99-13.28-22.21-21.72
	c-7.33-9.94-14.11-20.3-22.8-29.19C194.14,180.49,180.95,176.62,165.41,177.82z M478.43,446.68c0.98,0.22,1.7,0.44,2.43,0.52
	c8.68,0.99,17.35,2.07,26.04,2.87c3.99,0.37,8.07,0.55,12.05,0.17c7.5-0.7,11.23-7.02,8.4-14.02c-0.86-2.13-2.15-4.25-3.73-5.91
	c-3.94-4.16-8.16-8.06-12.27-12.07c-0.19,0.15-0.38,0.3-0.57,0.44c0.08,0.46,0.14,0.94,0.25,1.39c1.06,4.22,2.32,8.41,3.1,12.68
	c0.26,1.43-0.68,3.08-1.07,4.63c-1.38-0.38-3.18-0.34-4.08-1.22c-3.41-3.32-7.07-6.59-9.65-10.53c-5.64-8.62-11.65-16.87-19.1-24.02
	c-10.73-10.31-23.17-17.41-37.91-20.13c-1.38-0.26-2.8-0.28-4.21-0.42c-0.07,0.23-0.13,0.45-0.2,0.68c1.55,1.24,3.11,2.46,4.65,3.72
	c8.33,6.81,16.98,13.26,24.88,20.54c8.5,7.83,13.27,17.72,12.48,29.65C479.69,439.25,478.97,442.79,478.43,446.68z M138.38,418.38
	c0.18-0.02,0.37-0.04,0.55-0.05c1.05-3.34,1.86-6.78,3.21-10c3.76-8.99,10.75-15.09,18.81-20.1c7.7-4.8,15.55-9.37,23.18-14.29
	c7.45-4.8,13.4-10.97,15.94-19.79c0.99-3.42,1.71-6.91,1.14-10.85c-1.63,0.68-2.92,1.24-4.23,1.75c-7.81,3.06-15.6,6.18-23.45,9.12
	c-4.39,1.65-8.97,2.81-13.35,4.49c-9.11,3.5-16.68,8.89-20.1,18.51c-3.38,9.48-4.19,19.33-3.27,29.31
	C137.17,410.46,137.85,414.41,138.38,418.38z M284.57,228.03c-2.54-2.91-4.86-5.23-6.78-7.85c-5.54-7.52-7.16-16.35-8.06-25.36
	c-1.11-11.22-6.2-19.96-16.59-24.66c-8.32-3.77-17.03-6.66-25.59-9.89c-0.49-0.18-1.18,0.17-1.78,0.27
	c0.18,0.56,0.18,1.35,0.56,1.66c7.61,6.27,11.11,14.79,13.26,24.04c1.37,5.89,2.52,11.83,4.08,17.67
	c2.34,8.75,7.18,15.88,15.43,19.91C266.96,227.66,275.74,227.09,284.57,228.03z M316.98,208.15c0.02-0.34,0.05-0.68,0.07-1.02
	c-4.3-4.01-5.84-9.04-5.33-14.66c0.41-4.51,1.19-8.99,1.73-13.49c0.99-8.24-0.66-15.6-6.52-21.92c-6.31-6.81-14.1-11.04-22.65-14.15
	c-1.69-0.62-3.41-1.15-5.59-1.88c0.31,1.95,0.45,3.34,0.76,4.7c3.67,16.55,7.52,33.07,10.98,49.66c1.75,8.42,10.74,13.79,18.29,13.9
	C311.46,209.32,314.22,208.55,316.98,208.15z M453.86,267.1c-0.06,0.18-0.12,0.36-0.18,0.54c0.53,0.35,1.05,0.75,1.61,1.06
	c13.84,7.52,25.11,17.99,34.59,30.44c9.02,11.84,17.69,23.94,26.88,35.64c8.62,10.96,19.08,19.88,31.81,25.88
	c0.78,0.37,1.59,0.66,2.39,0.99c-0.82-1.8-1.98-3.1-3.1-4.44c-3.07-3.68-6.38-7.19-9.12-11.1c-10.96-15.62-21.59-31.48-32.62-47.05
	c-11.27-15.91-26.37-26.37-45.53-30.68C458.36,267.88,456.1,267.52,453.86,267.1z M153.6,469.08c0.98-10.75,7.27-18.41,14.64-25.4
	c4.27-4.05,8.68-7.96,12.99-11.97c7.16-6.66,12.51-14.49,14.97-24.05c1.44-5.59,2.17-11.27,1.02-17.34
	c-0.61,0.42-0.97,0.61-1.26,0.88c-10.54,9.66-21.44,18.95-31.51,29.08C150.76,434.02,148.46,450.81,153.6,469.08z M559,372.75
	c-0.15,0.01-0.3,0.02-0.45,0.03c0,3.64-0.18,7.3,0.04,10.93c0.29,4.69,1.08,9.35,1.33,14.04c0.52,9.54-5.58,17.35-14.85,19.44
	c-5.95,1.34-11.26-0.51-16.5-3c-8.42-4-16.84-7.98-25.32-11.85c-2.98-1.36-6.11-2.37-9.17-3.54c3.84,3.84,7.9,7.22,12.05,10.48
	c9.98,7.84,19.91,15.76,30.07,23.37c5.06,3.8,9.91,3.5,14.81-0.42c5.81-4.65,10.91-10,14.82-16.4c4.02-6.6,5.47-13.7,2.73-20.99
	C565.74,387.34,562.22,380.1,559,372.75z M423.97,156c-0.28-0.08-0.57-0.16-0.85-0.24c-0.53,0.58-1.13,1.11-1.59,1.75
	c-5.42,7.52-11.91,13.83-19.91,18.66c-3.71,2.24-7.27,4.93-10.38,7.94c-7.95,7.7-9.37,17.07-3.88,26.6
	c4.07,7.07,2.72,7.72,9.89,1.97c14.22-11.39,22.42-26.58,25.87-44.33C423.88,164.33,423.7,160.12,423.97,156z M421.08,211.35
	c-0.86,7.23,0.39,13.89,3.67,20.14c5.14,9.78,13.35,16.51,22.45,22.29c11.7,7.43,24.69,12.08,37.46,17.19
	c0.38,0.15,0.83,0.11,1.97,0.24c-3.7-4.01-6.82-7.62-10.19-11c-8.3-8.34-18.27-14.5-27.91-21.08c-8.22-5.61-16.07-11.66-22.1-19.7
	C424.51,216.84,422.86,214.05,421.08,211.35z M430.43,214.16c0.22,0.42,0.37,0.79,0.6,1.11c5.87,8.18,13.53,14.5,21.69,20.19
	c4.68,3.26,9.62,2.82,14.11-0.46c5.03-3.67,7.44-9.6,6.12-14.97c-1.21-4.94-4.69-7.73-9.23-9.15c-5.28-1.65-10.7-3.83-15.96,0.32
	c-0.68,0.54-1.7,0.75-2.6,0.88C440.35,212.79,435.54,213.44,430.43,214.16z M385.63,143.45c0.12,0.55,0.15,0.95,0.29,1.3
	c1.98,4.96,1.02,9.45-2.5,13.3c-2.31,2.53-4.96,4.75-7.47,7.11c-4.03,3.79-8.43,7.26-12.03,11.42c-5.01,5.79-4.01,11.07,2.06,15.71
	c1.54,1.18,2.58,0.96,3.94-0.14c5.41-4.39,10.94-8.64,16.29-13.1c2.44-2.03,4.83-4.22,6.8-6.7
	C400.98,162.32,396.44,150.29,385.63,143.45z M458.91,298.94c3.64-5.79,3.25-11.21-0.83-15.9c-7.46-8.55-17.14-12.06-28.2-12.36
	c-1.89-0.05-3.8,0.13-5.69,0.21c-0.02,0.25-0.03,0.49-0.05,0.74c3.97,1.67,7.94,3.35,12.15,5.12c-2.03,3.02-3.9,5.8-5.77,8.56
	c-2.94,4.33-2.94,4.33,0.2,8.36c0.93,1.19,1.82,2.42,2.76,3.6c2.17,2.74,4.36,5.46,6.75,8.45c2.96-2.77,5.8-5.12,8.26-7.83
	c1.85-2.04,1.38-3.69-0.97-5.19c-0.84-0.54-1.88-0.77-2.7-1.32c-1.61-1.07-3.14-2.27-5.21-3.79
	C450.09,285.34,454.47,291.98,458.91,298.94z M523.22,360.27c-2.52,3.7-1.6,7.19-0.39,10.76c3.17,9.32,9.44,15.96,17.84,20.73
	c2.93,1.67,5.07,0.87,6.03-1.98c1.36-4.04,0.77-7.91-1.9-11.15c-3.16-3.82-6.63-7.39-10.05-10.98
	C531.51,364.25,527.48,362.1,523.22,360.27z M457.06,157.53c-0.85,0.4-1.32,0.57-1.73,0.83c-6.02,3.68-12.08,7.3-18.03,11.1
	c-3.1,1.98-6.14,4.12-8.93,6.52c-5.09,4.38-4.09,13.83-1.02,17.09c4.11-5.62,9.99-9.13,15.45-13.17c3.29-2.44,6.51-5.08,9.3-8.05
	C455.69,168.04,457.14,163.24,457.06,157.53z M459.33,204.82c5.62,1.2,10.71,2.53,14.74,6.3c4.34,4.06,4.48,9.2,3.45,15.07
	c4.91-3.23,8.76-6.64,10.63-11.76c1.72-4.72-0.22-9.91-4.36-12.21C475,197.32,467.66,198.02,459.33,204.82z M431.28,202.28
	c1.66,1.5,2.8,2.74,4.14,3.71c4.99,3.64,9.68,3.24,14.02-1.08c3.39-3.37,5.89-7.35,7.4-11.85c1.23-3.68,2.06-7.49,3.07-11.24
	c-0.26-0.15-0.53-0.29-0.79-0.44C449.97,188.25,440.82,195.12,431.28,202.28z M492.52,213.89c0.71-0.3,1.07-0.35,1.27-0.56
	c3.2-3.31,6.4-6.63,9.56-9.99c0.37-0.39,0.55-1.05,0.61-1.61c0.52-5.05-4.79-13.22-9.67-14.7c-0.99-0.3-2.37-0.17-3.3,0.29
	c-3.98,1.98-7.86,4.15-11.76,6.29c-0.51,0.28-0.92,0.72-1.68,1.34c5,0.93,9.2,2.52,12.42,5.98
	C493.36,204.56,493.73,208.95,492.52,213.89z M498.17,183.47c2.37,2.65,4.92,4.81,6.57,7.52c1.65,2.69,2.4,5.92,3.6,9.05
	c3.32-2.36,3.89-5.94,4.15-9.66c0.37-5.32-3.25-7.44-7.33-9.28C501.89,179.62,500.58,182.88,498.17,183.47z M516.88,191.87
	c3.24-2.5,5.61-4.81,6.59-8.2c1.14-3.94-2.99-9.93-6.95-9.46c-2.45,0.29-4.73,2-7.75,3.38C515.52,180.42,516.3,185.89,516.88,191.87
	z M528.27,180.44c2.7-2.88,5.34-5.15,7.21-7.93c0.77-1.14,0.41-3.7-0.38-5.06c-1.01-1.73-3.07-1.66-4.92-0.6
	c-1.23,0.7-2.57,1.22-3.84,1.86c-1.57,0.79-3.13,1.62-5.02,2.61C524.76,173.74,527.7,175.86,528.27,180.44z M537.04,162.55
	c1.35,2.25,2.47,4.11,3.67,6.11c2.88-2.59,5.78-5.13,8.58-7.76c0.47-0.44,0.54-1.32,0.79-1.99c-0.18-0.2-0.36-0.39-0.54-0.59
	C545.39,159.72,541.25,161.13,537.04,162.55z"/>
<path class="st2" d="M234.54,562.8c-2.09-5.03-3.95-9.23-5.59-13.52c-6.25-16.37-10.39-33.32-13.49-50.53
	c-3.36-18.62-5.45-37.4-6.18-56.3c-0.4-10.33-0.6-20.69-0.34-31.03c0.76-29.83,4.32-59.26,13.62-87.8
	c6.61-20.31,17.44-38.16,31.51-54.1c23.74-26.89,52.76-46.44,85.38-60.88c5.39-2.39,11.09-4.09,16.65-6.1
	c0.14,0.32,0.28,0.65,0.42,0.97c-3.48,1.83-6.97,3.63-10.43,5.49c-21.21,11.4-41.01,24.77-58.22,41.76
	c-22.78,22.48-38.24,49.24-47,79.95c-4.09,14.33-6.86,28.92-8.08,43.77c-0.75,9.12-1.06,18.28-1.68,27.41
	c-1.05,15.55,2.61,30.55,5.44,45.62c3.91,20.82,9.51,41.22,16.91,61.09c1.64,4.41,3.51,8.73,5.01,13.18
	c0.45,1.33,0.51,3.31-0.17,4.43c-6.12,9.95-12.41,19.79-18.72,29.62C238.17,558,236.55,560.02,234.54,562.8z"/>
<path class="st2" d="M329.52,238.07c-2.47,6.15-4.87,11.76-7,17.47c-3.13,8.4-4.9,17.13-5.24,26.09c-0.27,7.31,1.06,14.36,4.08,21.1
	c3.34,7.46,9.3,11.51,16.96,13.4c9.72,2.41,19.68,3.39,29.54,2.07c12.9-1.73,24.18,2.33,35.3,7.86
	c20.99,10.45,40.65,23.07,59.83,36.49c2.03,1.42,4.06,2.86,6.09,4.3c-0.11,0.2-0.21,0.4-0.32,0.59c-3.11-1.37-6.26-2.64-9.32-4.11
	c-14.01-6.72-27.96-13.61-42.02-20.22c-7.92-3.73-16.16-6.75-24.93-7.73c-8.62-0.96-17.06,0.13-26.26,3.03
	c2.44,2.85,4.27,5.42,6.53,7.53c10.87,10.16,23.24,18.33,35.72,26.31c9,5.75,18.17,11.24,27.26,16.84c0.78,0.48,1.52,1,2.15,1.93
	c-3.23-0.79-6.45-1.62-9.7-2.37c-19.98-4.64-39.77-9.95-58.79-17.77c-16.42-6.75-32.06-14.87-45.18-27.1
	c-10.21-9.52-17.76-20.64-19.96-34.76c-2.05-13.19,0.51-25.76,5.42-37.97c4.52-11.24,10.79-21.46,18.08-31.09
	C328.17,239.4,328.71,238.93,329.52,238.07z"/>
<path class="st2" d="M345.26,475.45c-4.13-4.26-8.29-8.5-12.38-12.8c-9.58-10.07-18.11-21-26.76-31.86
	c-6.89-8.64-13.8-17.23-18.85-27.03c-6.34-12.31-11.99-24.97-17.93-37.49c-0.42-0.89-0.78-1.81-1.44-3.36
	c-11.68,19.17-17.17,40.12-23.42,60.78c-0.27,0.05-0.54,0.09-0.8,0.14c-0.37-1.48-1.06-2.96-1.05-4.43
	c0.08-6.71-0.09-13.48,0.66-20.13c1.3-11.51,2.71-23.04,4.96-34.39c4.34-21.89,13.47-41.5,29.6-57.38c2.06-2.03,4.36-3.82,7.09-6.2
	c0.49,4.66,1.01,8.53,1.28,12.42c1.42,20.06,4.37,39.9,8.36,59.59c4.27,21.05,13.05,40.37,23.13,59.15
	c7.34,13.67,16.09,26.42,25.67,38.61c0.67,0.86,1.29,1.76,1.91,2.66c0.23,0.34,0.39,0.72,0.59,1.08
	C345.68,475.01,345.47,475.23,345.26,475.45z"/>
<path class="st2" d="M506.48,499.35c-2.94-0.78-5.92-1.42-8.81-2.37c-27.68-9.13-53.48-21.83-76.12-40.42
	c-13.97-11.47-27.87-23.02-41.7-34.67c-14.79-12.45-29.46-25.05-44.18-37.59c-0.36-0.31-0.65-0.69-0.82-1.65
	c3.79,0.25,7.6,0.36,11.37,0.77c12.49,1.38,24.6,4.4,36.27,9.07c1.62,0.65,3.37,1.86,4.25,3.31c18.66,30.57,44.4,54.08,73.84,73.77
	c14.31,9.58,29.14,18.39,43.73,27.55c0.82,0.52,1.62,1.07,2.43,1.61C506.64,498.94,506.56,499.14,506.48,499.35z"/>
<path class="st2" d="M220.01,303.94c0.55,6.85-4.18,14.37-10.69,17.71c-4.6,2.36-9.55,3.21-14.6,3.35
	c-10.93,0.29-21.87,0.74-32.79,0.48c-11.81-0.27-23.07,1.64-33.89,6.31c-1.72,0.74-3.54,1.26-5.76,1.42
	c2.46-5.38,4.74-10.85,7.45-16.1c2.03-3.94,4.22-7.91,7.02-11.31c5.66-6.89,13.65-8.46,21.94-7.49c10.06,1.18,19.98,3.56,30.04,4.66
	c8.24,0.9,16.61,0.7,24.92,0.96C215.72,303.99,217.8,303.94,220.01,303.94z"/>
<path class="st2" d="M192.8,448.23c4.64,3.03,7.31,7,9.05,11.63c2.81,7.46,1.92,14.72-1.58,21.71
	c-4.93,9.84-11.84,18.33-18.52,26.99c-5.39,6.98-11.15,13.73-14.96,21.79c-3.98,8.42-4.97,17.19-2.9,26.28
	c0.07,0.32,0.08,0.66,0.09,0.99c0,0.07-0.08,0.14-0.21,0.34c-0.25-0.11-0.61-0.15-0.79-0.35c-9.77-11.3-14.8-24.1-12.42-39.24
	c1.34-8.53,4.97-16.09,10.68-22.46c6.23-6.95,12.94-13.46,19.32-20.28c5.89-6.3,10.45-13.38,11.7-22.16
	C192.48,451.9,192.59,450.32,192.8,448.23z"/>
<path class="st2" d="M139.18,249.01c5.03-4.23,10.61-7.19,16.71-9.17c13.77-4.47,26.26-1.52,37.51,7.01
	c4.87,3.69,9.16,8.15,13.81,12.15c3.43,2.95,6.93,5.85,10.56,8.55c4.51,3.36,9.82,4.61,15.32,5.12c2.72,0.25,5.44,0.47,8.16,0.7
	c0.24,0.32,0.49,0.64,0.73,0.96c-0.96,0.64-1.98,1.19-2.86,1.92c-7.12,5.9-15.37,8.75-24.51,9.42c-7.95,0.59-15.55-0.55-22.75-4.08
	c-5.13-2.52-8.74-6.74-12.56-10.77c-5.03-5.31-9.87-10.82-15.26-15.74c-6.59-6.01-14.8-7.1-23.39-6.09
	C140.16,249.06,139.67,249.01,139.18,249.01z"/>
<path class="st2" d="M335.71,115.14c5.53,4.6,11.32,8.92,16.49,13.9c3.28,3.15,6.18,6.98,8.28,11c4.95,9.47,3.22,18.72-2.39,27.42
	c-1.59,2.46-3.48,4.74-5.33,7.02c-5.62,6.89-11.22,13.77-10.46,23.46c-9.3-0.43-17.57-8.93-17.94-18.01
	c-0.26-6.54,2.06-12.54,3.78-18.65c2.6-9.28,5.59-18.47,7.92-27.81c1.33-5.32,0.98-10.86-0.55-16.22c-0.15-0.53-0.22-1.09-0.32-1.63
	C335.36,115.45,335.53,115.29,335.71,115.14z"/>
<path class="st2" d="M471.02,356.98c-1.65-1.02-3.05-1.85-4.42-2.73c-15.01-9.61-30.01-19.22-45.02-28.83
	c-14.69-9.41-30.97-14.87-47.74-19.08c-4.95-1.24-9.32-6.06-9.96-11.22c-0.32-2.62,0.87-4.96,3.63-5.14
	c4.63-0.29,9.43-0.41,13.95,0.48c23.33,4.6,44.44,14,62.31,30.01c10.61,9.51,19.46,20.44,26.12,33.09c0.39,0.74,0.71,1.52,1.03,2.29
	C471.01,356.06,470.97,356.32,471.02,356.98z"/>
<path class="st2" d="M165.41,177.82c15.54-1.21,28.72,2.67,39.49,13.69c8.69,8.89,15.47,19.25,22.8,29.19
	c6.22,8.44,13.06,16.34,22.21,21.72c4.24,2.49,8.93,4.2,13.43,6.24c0.72,0.33,1.49,0.55,2.24,0.82c-0.01,0.23-0.02,0.45-0.04,0.68
	c-3.67,0.51-7.32,1.25-11.01,1.49c-8.52,0.56-16.95,0.15-25.03-3.15c-8.82-3.6-15.51-9.71-20.4-17.71
	c-5.69-9.32-10.95-18.91-16.57-28.27c-6.32-10.54-14.57-19.07-26.16-23.89C166.19,178.54,166.03,178.34,165.41,177.82z"/>
<path class="st2" d="M478.43,446.68c0.54-3.89,1.25-7.44,1.49-11.01c0.79-11.93-3.97-21.82-12.48-29.65
	c-7.9-7.27-16.55-13.73-24.88-20.54c-1.54-1.26-3.1-2.48-4.65-3.72c0.07-0.23,0.13-0.45,0.2-0.68c1.4,0.13,2.83,0.16,4.21,0.42
	c14.75,2.73,27.18,9.82,37.91,20.13c7.45,7.16,13.46,15.4,19.1,24.02c2.58,3.94,6.24,7.2,9.65,10.53c0.9,0.88,2.7,0.84,4.08,1.22
	c0.39-1.55,1.33-3.2,1.07-4.63c-0.78-4.27-2.04-8.46-3.1-12.68c-0.11-0.46-0.17-0.93-0.25-1.39c0.19-0.15,0.38-0.3,0.57-0.44
	c4.11,4,8.33,7.9,12.27,12.07c1.58,1.67,2.86,3.78,3.73,5.91c2.83,7-0.89,13.32-8.4,14.02c-3.98,0.37-8.06,0.19-12.05-0.17
	c-8.69-0.8-17.36-1.88-26.04-2.87C480.13,447.12,479.42,446.9,478.43,446.68z"/>
<path class="st2" d="M138.38,418.38c-0.54-3.96-1.22-7.92-1.59-11.9c-0.92-9.98-0.1-19.83,3.27-29.31
	c3.43-9.62,10.99-15.01,20.1-18.51c4.38-1.68,8.95-2.85,13.35-4.49c7.85-2.94,15.64-6.07,23.45-9.12c1.31-0.51,2.6-1.07,4.23-1.75
	c0.57,3.94-0.15,7.42-1.14,10.85c-2.54,8.81-8.49,14.98-15.94,19.79c-7.63,4.91-15.47,9.49-23.18,14.29
	c-8.06,5.01-15.04,11.11-18.81,20.1c-1.35,3.22-2.15,6.66-3.21,10C138.75,418.34,138.57,418.36,138.38,418.38z"/>
<path class="st2" d="M284.57,228.03c-8.83-0.94-17.6-0.37-25.47-4.21c-8.25-4.03-13.09-11.16-15.43-19.91
	c-1.56-5.83-2.7-11.78-4.08-17.67c-2.16-9.26-5.66-17.77-13.26-24.04c-0.38-0.32-0.38-1.1-0.56-1.66c0.6-0.1,1.29-0.46,1.78-0.27
	c8.56,3.22,17.27,6.12,25.59,9.89c10.4,4.71,15.48,13.44,16.59,24.66c0.89,9.01,2.52,17.85,8.06,25.36
	C279.71,222.8,282.03,225.12,284.57,228.03z"/>
<path class="st2" d="M316.98,208.15c-2.76,0.4-5.52,1.17-8.27,1.13c-7.54-0.11-16.53-5.48-18.29-13.9
	c-3.46-16.6-7.31-33.11-10.98-49.66c-0.3-1.36-0.45-2.75-0.76-4.7c2.18,0.73,3.9,1.27,5.59,1.88c8.55,3.11,16.34,7.34,22.65,14.15
	c5.86,6.32,7.51,13.69,6.52,21.92c-0.54,4.5-1.33,8.98-1.73,13.49c-0.51,5.62,1.04,10.65,5.33,14.66
	C317.02,207.47,317,207.81,316.98,208.15z"/>
<path class="st2" d="M453.86,267.1c2.24,0.42,4.5,0.77,6.72,1.27c19.16,4.31,34.27,14.77,45.53,30.68
	c11.03,15.57,21.66,31.43,32.62,47.05c2.74,3.91,6.06,7.42,9.12,11.1c1.12,1.34,2.28,2.64,3.1,4.44c-0.8-0.33-1.61-0.62-2.39-0.99
	c-12.73-6.01-23.2-14.92-31.81-25.88c-9.19-11.7-17.87-23.8-26.88-35.64c-9.48-12.45-20.75-22.92-34.59-30.44
	c-0.56-0.31-1.07-0.7-1.61-1.06C453.74,267.46,453.8,267.28,453.86,267.1z"/>
<path class="st2" d="M153.6,469.08c-5.14-18.27-2.84-35.06,10.84-48.82c10.07-10.13,20.97-19.42,31.51-29.08
	c0.29-0.27,0.65-0.46,1.26-0.88c1.16,6.08,0.42,11.75-1.02,17.34c-2.46,9.56-7.81,17.39-14.97,24.05
	c-4.31,4.01-8.72,7.92-12.99,11.97C160.86,450.68,154.58,458.33,153.6,469.08z"/>
<path class="st2" d="M559,372.75c3.21,7.35,6.74,14.58,9.56,22.08c2.74,7.29,1.3,14.39-2.73,20.99c-3.91,6.4-9,11.75-14.82,16.4
	c-4.91,3.92-9.75,4.22-14.81,0.42c-10.15-7.62-20.08-15.53-30.07-23.37c-4.15-3.26-8.21-6.64-12.05-10.48
	c3.06,1.17,6.2,2.18,9.17,3.54c8.48,3.87,16.9,7.85,25.32,11.85c5.24,2.49,10.55,4.34,16.5,3c9.27-2.08,15.37-9.89,14.85-19.44
	c-0.25-4.69-1.04-9.35-1.33-14.04c-0.22-3.63-0.04-7.28-0.04-10.93C558.7,372.78,558.85,372.76,559,372.75z"/>
<path class="st2" d="M423.97,156c-0.26,4.13-0.08,8.34-0.86,12.36c-3.44,17.75-11.65,32.94-25.87,44.33
	c-7.17,5.75-5.82,5.09-9.89-1.97c-5.49-9.54-4.07-18.9,3.88-26.6c3.11-3.02,6.67-5.7,10.38-7.94c8-4.83,14.49-11.14,19.91-18.66
	c0.46-0.63,1.06-1.17,1.59-1.75C423.4,155.84,423.68,155.92,423.97,156z"/>
<path class="st2" d="M421.08,211.35c1.78,2.69,3.43,5.48,5.36,8.06c6.03,8.05,13.88,14.09,22.1,19.7
	c9.64,6.58,19.61,12.74,27.91,21.08c3.36,3.38,6.49,6.99,10.19,11c-1.14-0.13-1.59-0.09-1.97-0.24
	c-12.77-5.11-25.77-9.76-37.46-17.19c-9.1-5.78-17.31-12.51-22.45-22.29C421.48,225.25,420.22,218.58,421.08,211.35z"/>
<path class="st2" d="M430.43,214.16c5.11-0.71,9.92-1.36,14.72-2.08c0.9-0.13,1.92-0.35,2.6-0.88c5.26-4.15,10.68-1.97,15.96-0.32
	c4.54,1.42,8.01,4.21,9.23,9.15c1.32,5.37-1.09,11.3-6.12,14.97c-4.48,3.28-9.43,3.72-14.11,0.46
	c-8.16-5.69-15.81-12.01-21.69-20.19C430.8,214.95,430.65,214.57,430.43,214.16z"/>
<path class="st2" d="M385.63,143.45c10.81,6.85,15.35,18.87,7.38,28.9c-1.97,2.47-4.36,4.66-6.8,6.7
	c-5.35,4.46-10.88,8.71-16.29,13.1c-1.36,1.11-2.4,1.32-3.94,0.14c-6.07-4.64-7.07-9.93-2.06-15.71c3.6-4.16,7.99-7.63,12.03-11.42
	c2.51-2.35,5.16-4.58,7.47-7.11c3.52-3.85,4.47-8.33,2.5-13.3C385.78,144.4,385.75,144,385.63,143.45z"/>
<path class="st2" d="M458.91,298.94c-4.44-6.96-8.83-13.6-19.31-11.34c2.07,1.52,3.6,2.72,5.21,3.79c0.83,0.55,1.86,0.79,2.7,1.32
	c2.35,1.49,2.82,3.15,0.97,5.19c-2.46,2.71-5.31,5.06-8.26,7.83c-2.39-2.99-4.58-5.72-6.75-8.45c-0.94-1.19-1.83-2.41-2.76-3.6
	c-3.14-4.03-3.14-4.03-0.2-8.36c1.87-2.77,3.74-5.54,5.77-8.56c-4.21-1.77-8.18-3.45-12.15-5.12c0.02-0.25,0.03-0.49,0.05-0.74
	c1.9-0.08,3.8-0.26,5.69-0.21c11.06,0.31,20.74,3.81,28.2,12.36C462.17,287.72,462.55,293.15,458.91,298.94z"/>
<path class="st2" d="M523.22,360.27c4.26,1.83,8.29,3.99,11.52,7.38c3.42,3.59,6.89,7.16,10.05,10.98c2.68,3.24,3.26,7.11,1.9,11.15
	c-0.96,2.85-3.1,3.65-6.03,1.98c-8.4-4.77-14.67-11.41-17.84-20.73C521.62,367.46,520.69,363.96,523.22,360.27z"/>
<path class="st2" d="M457.06,157.53c0.07,5.71-1.38,10.51-4.95,14.31c-2.8,2.97-6.02,5.61-9.3,8.05
	c-5.45,4.04-11.33,7.55-15.45,13.17c-3.07-3.25-4.07-12.71,1.02-17.09c2.79-2.4,5.83-4.53,8.93-6.52c5.94-3.8,12.01-7.42,18.03-11.1
	C455.75,158.1,456.22,157.93,457.06,157.53z"/>
<path class="st2" d="M459.33,204.82c8.34-6.8,15.68-7.5,24.45-2.61c4.14,2.31,6.09,7.5,4.36,12.21c-1.87,5.11-5.72,8.52-10.63,11.76
	c1.03-5.86,0.89-11.01-3.45-15.07C470.04,207.35,464.94,206.02,459.33,204.82z"/>
<path class="st2" d="M431.28,202.28c9.54-7.16,18.69-14.03,27.84-20.9c0.26,0.15,0.53,0.29,0.79,0.44
	c-1.01,3.75-1.83,7.56-3.07,11.24c-1.51,4.5-4.01,8.48-7.4,11.85c-4.34,4.31-9.03,4.72-14.02,1.08
	C434.09,205.01,432.94,203.78,431.28,202.28z"/>
<path class="st2" d="M492.52,213.89c1.21-4.94,0.84-9.33-2.55-12.97c-3.22-3.46-7.42-5.05-12.42-5.98c0.76-0.61,1.17-1.06,1.68-1.34
	c3.9-2.13,7.78-4.3,11.76-6.29c0.93-0.46,2.3-0.59,3.3-0.29c4.89,1.48,10.19,9.65,9.67,14.7c-0.06,0.56-0.25,1.22-0.61,1.61
	c-3.15,3.36-6.35,6.68-9.56,9.99C493.59,213.54,493.23,213.58,492.52,213.89z"/>
<path class="st2" d="M498.17,183.47c2.4-0.59,3.71-3.85,7-2.37c4.08,1.84,7.7,3.96,7.33,9.28c-0.26,3.72-0.83,7.3-4.15,9.66
	c-1.19-3.12-1.95-6.36-3.6-9.05C503.09,188.28,500.55,186.12,498.17,183.47z"/>
<path class="st2" d="M516.88,191.87c-0.58-5.98-1.36-11.45-8.12-14.28c3.03-1.38,5.31-3.09,7.75-3.38c3.96-0.47,8.08,5.52,6.95,9.46
	C522.49,187.06,520.12,189.37,516.88,191.87z"/>
<path class="st2" d="M528.27,180.44c-0.57-4.58-3.51-6.7-6.96-9.13c1.89-0.99,3.45-1.82,5.02-2.61c1.27-0.64,2.61-1.16,3.84-1.86
	c1.85-1.06,3.91-1.12,4.92,0.6c0.79,1.36,1.15,3.92,0.38,5.06C533.6,175.29,530.97,177.56,528.27,180.44z"/>
<path class="st2" d="M537.04,162.55c4.21-1.42,8.35-2.83,12.5-4.23c0.18,0.2,0.36,0.39,0.54,0.59c-0.25,0.67-0.32,1.55-0.79,1.99
	c-2.8,2.64-5.69,5.17-8.58,7.76C539.51,166.66,538.39,164.8,537.04,162.55z"/>
</svg>
